<mxfile host="app.diagrams.net" modified="2024-03-25T07:15:01.223Z" agent="Mozilla/5.0 (Macintosh; Intel Mac OS X 10_15_7) AppleWebKit/537.36 (KHTML, like Gecko) Chrome/123.0.0.0 Safari/537.36" etag="go1sj-8OjvVlJYAVxi7L" version="24.0.7" type="github">
  <diagram id="3228e29e-7158-1315-38df-8450db1d8a1d" name="Page-1">
    <mxGraphModel dx="2177" dy="1270" grid="0" gridSize="10" guides="1" tooltips="1" connect="1" arrows="1" fold="1" page="1" pageScale="1" pageWidth="1600" pageHeight="1900" background="#EFF1F3" math="0" shadow="0">
      <root>
        <mxCell id="0" />
        <mxCell id="1" parent="0" />
        <mxCell id="T-5VQnCJckOgUX1Wp16H-28" value="&lt;font style=&quot;font-size: 30px;&quot; color=&quot;#4a919b&quot;&gt;客户端&lt;/font&gt;" style="text;html=1;strokeColor=none;fillColor=none;align=center;verticalAlign=middle;whiteSpace=wrap;rounded=0;fontSize=22;" parent="1" vertex="1">
          <mxGeometry x="619.76" y="224.15999999999997" width="106.52" height="20" as="geometry" />
        </mxCell>
        <mxCell id="aH1-eks404bDhsACtXEq-3" value="&lt;font color=&quot;#535e80&quot; style=&quot;font-size: 30px;&quot;&gt;服务端&lt;/font&gt;" style="text;html=1;strokeColor=none;fillColor=none;align=center;verticalAlign=middle;whiteSpace=wrap;rounded=0;fontSize=22;" parent="1" vertex="1">
          <mxGeometry x="1046" y="224.15999999999997" width="179" height="20" as="geometry" />
        </mxCell>
        <mxCell id="TGPx2V8O0Z7DVdudsgvW-3" value="" style="shape=image;verticalLabelPosition=bottom;verticalAlign=top;imageAspect=0;aspect=fixed;image=data:image/svg+xml,PHN2ZyB4bWxuczp4bGluaz0iaHR0cDovL3d3dy53My5vcmcvMTk5OS94bGluayIgeG1sbnM9Imh0dHA6Ly93d3cudzMub3JnLzIwMDAvc3ZnIiBoZWlnaHQ9IjIwMCIgd2lkdGg9IjIwMCIgdmVyc2lvbj0iMS4xIiB2aWV3Qm94PSIwIDAgMTAyNCAxMDI0IiBjbGFzcz0iaWNvbiI+PGRlZnM+PHN0eWxlIHR5cGU9InRleHQvY3NzIj5AZm9udC1mYWNlIHsgZm9udC1mYW1pbHk6IGZlZWRiYWNrLWljb25mb250OyBzcmM6IHVybCgiLy9hdC5hbGljZG4uY29tL3QvZm9udF8xMDMxMTU4X3U2OXc4eWh4ZHUud29mZjI/dD0xNjMwMDMzNzU5OTQ0IikgZm9ybWF0KCJ3b2ZmMiIpLCB1cmwoIi8vYXQuYWxpY2RuLmNvbS90L2ZvbnRfMTAzMTE1OF91Njl3OHloeGR1LndvZmY/dD0xNjMwMDMzNzU5OTQ0IikgZm9ybWF0KCJ3b2ZmIiksIHVybCgiLy9hdC5hbGljZG4uY29tL3QvZm9udF8xMDMxMTU4X3U2OXc4eWh4ZHUudHRmP3Q9MTYzMDAzMzc1OTk0NCIpIGZvcm1hdCgidHJ1ZXR5cGUiKTsgfSYjeGE7PC9zdHlsZT48L2RlZnM+PHBhdGggZmlsbD0iIzRBOTE5QiIgZD0iTTg0Mi4zOTQ1OTUgNzk5LjczMzIzNyA2NDAuOTczMDc2IDc5OS43MzMyMzcgNjQwLjk3MzA3NiA5MTQuODI1NTA4bDU3LjU0OTAwNSAwYzE1LjkwMzg1MyAwIDI4Ljc3NDUwMyAxMi44NjkwOTkgMjguNzc0NTAzIDI4Ljc3MzMyNCAwIDE1LjkwMzIwMi0xMi44NzA2NDkgMjguNzcyMy0yOC43NzQ1MDMgMjguNzcyM0wzNTMuMjI4MDUgOTcyLjM3MTEzMmMtMTUuOTA0ODc3IDAtMjguNzc0NTAzLTEyLjg2OTA5OS0yOC43NzQ1MDMtMjguNzcyMyAwLTE1LjkwNDIyNSAxMi44Njk2MjYtMjguNzczMzI0IDI4Ljc3NDUwMy0yOC43NzMzMjRsNTcuNTQ5MDA1IDBMNDEwLjc3NzA1NSA3OTkuNzMzMjM3IDE4MC41ODEwMzQgNzk5LjczMzIzN2MtNjMuNTYyMTk5IDAtMTE1LjA5ODAxMS01MS41MzM3LTExNS4wOTgwMTEtMTE1LjA5MzI5NUw2NS40ODMwMjMgMTY2LjcyMDExNmMwLTYzLjU1OTU5NSA1MS41MzU4MTItMTE1LjA5MzI5NSAxMTUuMDk4MDExLTExNS4wOTMyOTVsNjYxLjgxMjUzNyAwYzYzLjU2MTE3NiAwIDExNS4wOTgwMTEgNTEuNTMzNyAxMTUuMDk4MDExIDExNS4wOTMyOTVsMCA1MTcuOTE5ODI2Qzk1Ny40OTE1ODIgNzQ4LjE5ODUxMyA5MDUuOTU1NzcgNzk5LjczMzIzNyA4NDIuMzk0NTk1IDc5OS43MzMyMzd6TTU4My40MjQwNzEgOTE0LjgyNTUwOCA1ODMuNDI0MDcxIDc5OS43MzMyMzcgNDY4LjMyNjA2IDc5OS43MzMyMzcgNDY4LjMyNjA2IDkxNC44MjU1MDggNTgzLjQyNDA3MSA5MTQuODI1NTA4ek04OTkuOTQyNTc3IDE2Ni43MjAxMTZjMC0zMS43Nzk3OTctMjUuNzY3OTA2LTU3LjU0NjY0Ny01Ny41NDc5ODItNTcuNTQ2NjQ3TDE4MC41ODEwMzQgMTA5LjE3MzQ2OGMtMzEuNzgxMDk5IDAtNTcuNTQ5MDA1IDI1Ljc2Njg1LTU3LjU0OTAwNSA1Ny41NDY2NDdsMCA0MDIuODI2NTMyTDg5OS45NDI1NzcgNTY5LjU0NjY0NyA4OTkuOTQyNTc3IDE2Ni43MjAxMTZ6TTg5OS45NDI1NzcgNjI3LjA5MzI5NSAxMjMuMDMzMDUyIDYyNy4wOTMyOTVsMCA1Ny41NDY2NDdjMCAzMS43Nzk3OTcgMjUuNzY3OTA2IDU3LjU0NTYyNCA1Ny41NDkwMDUgNTcuNTQ1NjI0bDY2MS44MTI1MzcgMGMzMS43ODEwOTkgMCA1Ny41NDc5ODItMjUuNzY2ODUgNTcuNTQ3OTgyLTU3LjU0NTYyNEw4OTkuOTQyNTc3IDYyNy4wOTMyOTV6Ii8+PC9zdmc+" parent="1" vertex="1">
          <mxGeometry x="601" y="72.62" width="144.04" height="144.04" as="geometry" />
        </mxCell>
        <mxCell id="TGPx2V8O0Z7DVdudsgvW-6" value="" style="rounded=1;whiteSpace=wrap;html=1;strokeColor=default;fillColor=#E7E5ED;" parent="1" vertex="1">
          <mxGeometry x="609" y="277" width="602" height="72" as="geometry" />
        </mxCell>
        <mxCell id="TGPx2V8O0Z7DVdudsgvW-8" value="&lt;font style=&quot;font-size: 30px;&quot;&gt;SYN&lt;/font&gt;" style="text;html=1;strokeColor=none;fillColor=#E7E5ED;align=center;verticalAlign=middle;whiteSpace=wrap;rounded=0;fontColor=#4A919B;" parent="1" vertex="1">
          <mxGeometry x="785" y="301" width="60" height="30" as="geometry" />
        </mxCell>
        <mxCell id="TGPx2V8O0Z7DVdudsgvW-9" value="" style="shape=image;verticalLabelPosition=bottom;verticalAlign=top;imageAspect=0;aspect=fixed;image=data:image/svg+xml,PHN2ZyB4bWxuczp4bGluaz0iaHR0cDovL3d3dy53My5vcmcvMTk5OS94bGluayIgeG1sbnM9Imh0dHA6Ly93d3cudzMub3JnLzIwMDAvc3ZnIiBoZWlnaHQ9IjIwMCIgd2lkdGg9IjIwMCIgdmVyc2lvbj0iMS4xIiB2aWV3Qm94PSIwIDAgMTAyNCAxMDI0IiBjbGFzcz0iaWNvbiI+PHBhdGggZmlsbD0iIzRBOTE5QiIgZD0iTTMxMi44ODg4ODkgOTk1LjU1NTU1NmMtMTcuMDY2NjY3IDAtMjguNDQ0NDQ0LTUuNjg4ODg5LTM5LjgyMjIyMi0xNy4wNjY2NjctMjIuNzU1NTU2LTIyLjc1NTU1Ni0xNy4wNjY2NjctNTYuODg4ODg5IDUuNjg4ODg5LTc5LjY0NDQ0NWwzNjQuMDg4ODg4LTMyOS45NTU1NTVjMTEuMzc3Nzc4LTExLjM3Nzc3OCAxNy4wNjY2NjctMjIuNzU1NTU2IDE3LjA2NjY2Ny0zNC4xMzMzMzMgMC0xMS4zNzc3NzgtNS42ODg4ODktMjIuNzU1NTU2LTE3LjA2NjY2Ny0zNC4xMzMzMzRMMjczLjA2NjY2NyAxODcuNzMzMzMzYy0yMi43NTU1NTYtMjIuNzU1NTU2LTI4LjQ0NDQ0NC01Ni44ODg4ODktNS42ODg4ODktNzkuNjQ0NDQ0IDIyLjc1NTU1Ni0yMi43NTU1NTYgNTYuODg4ODg5LTI4LjQ0NDQ0NCA3OS42NDQ0NDQtNS42ODg4ODlsMzY0LjA4ODg4OSAzMTIuODg4ODg5YzM0LjEzMzMzMyAyOC40NDQ0NDQgNTYuODg4ODg5IDczLjk1NTU1NiA1Ni44ODg4ODkgMTE5LjQ2NjY2N3MtMTcuMDY2NjY3IDg1LjMzMzMzMy01MS4yIDExOS40NjY2NjZsLTM2NC4wODg4ODkgMzI5Ljk1NTU1NmMtMTEuMzc3Nzc4IDUuNjg4ODg5LTI4LjQ0NDQ0NCAxMS4zNzc3NzgtMzkuODIyMjIyIDExLjM3Nzc3OHoiLz48L3N2Zz4=;fillColor=#E7E5ED;" parent="1" vertex="1">
          <mxGeometry x="883" y="286" width="54" height="54" as="geometry" />
        </mxCell>
        <mxCell id="TGPx2V8O0Z7DVdudsgvW-10" value="" style="rounded=1;whiteSpace=wrap;html=1;strokeColor=default;fillColor=#E7E5ED;" parent="1" vertex="1">
          <mxGeometry x="609" y="349" width="602" height="72" as="geometry" />
        </mxCell>
        <mxCell id="TGPx2V8O0Z7DVdudsgvW-11" value="&lt;font color=&quot;#535e80&quot; style=&quot;font-size: 30px;&quot;&gt;SYN + ACK&lt;/font&gt;" style="text;html=1;strokeColor=none;fillColor=#E7E5ED;align=center;verticalAlign=middle;whiteSpace=wrap;rounded=0;fontColor=#4A919B;" parent="1" vertex="1">
          <mxGeometry x="937" y="373" width="190" height="30" as="geometry" />
        </mxCell>
        <mxCell id="TGPx2V8O0Z7DVdudsgvW-13" value="" style="rounded=1;whiteSpace=wrap;html=1;strokeColor=default;fillColor=#E7E5ED;" parent="1" vertex="1">
          <mxGeometry x="609" y="421" width="602" height="72" as="geometry" />
        </mxCell>
        <mxCell id="TGPx2V8O0Z7DVdudsgvW-15" value="" style="shape=image;verticalLabelPosition=bottom;verticalAlign=top;imageAspect=0;aspect=fixed;image=data:image/svg+xml,PHN2ZyB4bWxuczp4bGluaz0iaHR0cDovL3d3dy53My5vcmcvMTk5OS94bGluayIgeG1sbnM9Imh0dHA6Ly93d3cudzMub3JnLzIwMDAvc3ZnIiBoZWlnaHQ9IjIwMCIgd2lkdGg9IjIwMCIgdmVyc2lvbj0iMS4xIiB2aWV3Qm94PSIwIDAgMTAyNCAxMDI0IiBjbGFzcz0iaWNvbiI+PHBhdGggZmlsbD0iIzRBOTE5QiIgZD0iTTMxMi44ODg4ODkgOTk1LjU1NTU1NmMtMTcuMDY2NjY3IDAtMjguNDQ0NDQ0LTUuNjg4ODg5LTM5LjgyMjIyMi0xNy4wNjY2NjctMjIuNzU1NTU2LTIyLjc1NTU1Ni0xNy4wNjY2NjctNTYuODg4ODg5IDUuNjg4ODg5LTc5LjY0NDQ0NWwzNjQuMDg4ODg4LTMyOS45NTU1NTVjMTEuMzc3Nzc4LTExLjM3Nzc3OCAxNy4wNjY2NjctMjIuNzU1NTU2IDE3LjA2NjY2Ny0zNC4xMzMzMzMgMC0xMS4zNzc3NzgtNS42ODg4ODktMjIuNzU1NTU2LTE3LjA2NjY2Ny0zNC4xMzMzMzRMMjczLjA2NjY2NyAxODcuNzMzMzMzYy0yMi43NTU1NTYtMjIuNzU1NTU2LTI4LjQ0NDQ0NC01Ni44ODg4ODktNS42ODg4ODktNzkuNjQ0NDQ0IDIyLjc1NTU1Ni0yMi43NTU1NTYgNTYuODg4ODg5LTI4LjQ0NDQ0NCA3OS42NDQ0NDQtNS42ODg4ODlsMzY0LjA4ODg4OSAzMTIuODg4ODg5YzM0LjEzMzMzMyAyOC40NDQ0NDQgNTYuODg4ODg5IDczLjk1NTU1NiA1Ni44ODg4ODkgMTE5LjQ2NjY2N3MtMTcuMDY2NjY3IDg1LjMzMzMzMy01MS4yIDExOS40NjY2NjZsLTM2NC4wODg4ODkgMzI5Ljk1NTU1NmMtMTEuMzc3Nzc4IDUuNjg4ODg5LTI4LjQ0NDQ0NCAxMS4zNzc3NzgtMzkuODIyMjIyIDExLjM3Nzc3OHoiLz48L3N2Zz4=;flipH=0;fillColor=#E7E5ED;" parent="1" vertex="1">
          <mxGeometry x="883" y="430" width="54" height="54" as="geometry" />
        </mxCell>
        <mxCell id="TGPx2V8O0Z7DVdudsgvW-16" value="&lt;font style=&quot;font-size: 30px;&quot;&gt;ACK&lt;br&gt;&lt;/font&gt;" style="text;html=1;strokeColor=none;fillColor=#E7E5ED;align=center;verticalAlign=middle;whiteSpace=wrap;rounded=0;fontColor=#4A919B;" parent="1" vertex="1">
          <mxGeometry x="785" y="442" width="60" height="30" as="geometry" />
        </mxCell>
        <mxCell id="TGPx2V8O0Z7DVdudsgvW-17" value="" style="rounded=1;whiteSpace=wrap;html=1;strokeColor=#000000;fillColor=#FCFBF8;" parent="1" vertex="1">
          <mxGeometry x="609" y="508" width="602" height="165" as="geometry" />
        </mxCell>
        <mxCell id="TGPx2V8O0Z7DVdudsgvW-18" value="&lt;font style=&quot;font-size: 30px;&quot;&gt;Client Hello&lt;/font&gt;" style="text;html=1;strokeColor=none;fillColor=none;align=center;verticalAlign=middle;whiteSpace=wrap;rounded=0;fontColor=#4A919B;" parent="1" vertex="1">
          <mxGeometry x="830" y="514" width="174" height="30" as="geometry" />
        </mxCell>
        <mxCell id="TGPx2V8O0Z7DVdudsgvW-19" value="" style="shape=image;verticalLabelPosition=bottom;verticalAlign=top;imageAspect=0;aspect=fixed;image=data:image/svg+xml,PHN2ZyB4bWxuczp4bGluaz0iaHR0cDovL3d3dy53My5vcmcvMTk5OS94bGluayIgeG1sbnM9Imh0dHA6Ly93d3cudzMub3JnLzIwMDAvc3ZnIiBoZWlnaHQ9IjIwMCIgd2lkdGg9IjIwMCIgdmVyc2lvbj0iMS4xIiB2aWV3Qm94PSIwIDAgMTAyNCAxMDI0IiBjbGFzcz0iaWNvbiI+PHBhdGggZmlsbD0iIzRBOTE5QiIgZD0iTTMxMi44ODg4ODkgOTk1LjU1NTU1NmMtMTcuMDY2NjY3IDAtMjguNDQ0NDQ0LTUuNjg4ODg5LTM5LjgyMjIyMi0xNy4wNjY2NjctMjIuNzU1NTU2LTIyLjc1NTU1Ni0xNy4wNjY2NjctNTYuODg4ODg5IDUuNjg4ODg5LTc5LjY0NDQ0NWwzNjQuMDg4ODg4LTMyOS45NTU1NTVjMTEuMzc3Nzc4LTExLjM3Nzc3OCAxNy4wNjY2NjctMjIuNzU1NTU2IDE3LjA2NjY2Ny0zNC4xMzMzMzMgMC0xMS4zNzc3NzgtNS42ODg4ODktMjIuNzU1NTU2LTE3LjA2NjY2Ny0zNC4xMzMzMzRMMjczLjA2NjY2NyAxODcuNzMzMzMzYy0yMi43NTU1NTYtMjIuNzU1NTU2LTI4LjQ0NDQ0NC01Ni44ODg4ODktNS42ODg4ODktNzkuNjQ0NDQ0IDIyLjc1NTU1Ni0yMi43NTU1NTYgNTYuODg4ODg5LTI4LjQ0NDQ0NCA3OS42NDQ0NDQtNS42ODg4ODlsMzY0LjA4ODg4OSAzMTIuODg4ODg5YzM0LjEzMzMzMyAyOC40NDQ0NDQgNTYuODg4ODg5IDczLjk1NTU1NiA1Ni44ODg4ODkgMTE5LjQ2NjY2N3MtMTcuMDY2NjY3IDg1LjMzMzMzMy01MS4yIDExOS40NjY2NjZsLTM2NC4wODg4ODkgMzI5Ljk1NTU1NmMtMTEuMzc3Nzc4IDUuNjg4ODg5LTI4LjQ0NDQ0NCAxMS4zNzc3NzgtMzkuODIyMjIyIDExLjM3Nzc3OHoiLz48L3N2Zz4=" parent="1" vertex="1">
          <mxGeometry x="883" y="571" width="54" height="54" as="geometry" />
        </mxCell>
        <mxCell id="TGPx2V8O0Z7DVdudsgvW-20" value="" style="rounded=1;whiteSpace=wrap;html=1;strokeColor=default;fillColor=#E7E5ED;" parent="1" vertex="1">
          <mxGeometry x="609" y="673" width="602" height="234" as="geometry" />
        </mxCell>
        <mxCell id="TGPx2V8O0Z7DVdudsgvW-21" value="&lt;font color=&quot;#535e80&quot; style=&quot;font-size: 30px;&quot;&gt;Server Hello&lt;/font&gt;" style="text;html=1;strokeColor=none;fillColor=none;align=center;verticalAlign=middle;whiteSpace=wrap;rounded=0;fontColor=#4A919B;" parent="1" vertex="1">
          <mxGeometry x="822" y="691" width="190" height="30" as="geometry" />
        </mxCell>
        <mxCell id="TGPx2V8O0Z7DVdudsgvW-26" value="&lt;span style=&quot;font-size: 28px;&quot;&gt;客户端登录请求&lt;/span&gt;" style="text;html=1;strokeColor=none;fillColor=none;align=center;verticalAlign=middle;whiteSpace=wrap;rounded=0;fontColor=#4A919B;" parent="1" vertex="1">
          <mxGeometry x="670" y="583" width="230" height="30" as="geometry" />
        </mxCell>
        <mxCell id="TGPx2V8O0Z7DVdudsgvW-27" value="" style="shape=image;verticalLabelPosition=bottom;verticalAlign=top;imageAspect=0;aspect=fixed;image=data:image/svg+xml,PHN2ZyB4bWxuczp4bGluaz0iaHR0cDovL3d3dy53My5vcmcvMTk5OS94bGluayIgeG1sbnM9Imh0dHA6Ly93d3cudzMub3JnLzIwMDAvc3ZnIiBoZWlnaHQ9IjIwMCIgd2lkdGg9IjIwMCIgdmVyc2lvbj0iMS4xIiB2aWV3Qm94PSIwIDAgMTAyNCAxMDI0IiBjbGFzcz0iaWNvbiI+PHBhdGggZmlsbD0iIzRBOTE5QiIgZD0iTTQyMS4zNzYgNDgxLjI4czExNy4yNDggMjQuNTc2IDE3NS4xMDQtOC43MDRjMCAwLTg5LjYgNzAuMTQ0LTg5LjYgMTY2LjQgMC41MTItMC41MTItOC4xOTItMTIxLjM0NC04NS41MDQtMTU3LjY5NnpNNDM4Ljc4NCA5NjkuMjE2czY4LjYwOCA2LjY1NiA2OC42MDgtODAuODk2YzAgMCAzLjA3MiA4OC41NzYgNjUuMDI0IDc4LjMzNiAwIDAuNTEyLTUwLjY4OCAyMi4wMTYtMTMzLjYzMiAyLjU2ek0xNjEuMjggMjM4LjA4cy0zMC4yMDggNjUuNTM2IDExLjI2NCA5MS42NDhjMCAwLTY3LjA3Mi0xNy40MDgtODEuNDA4IDM3LjM3NiAwIDAgOC43MDQtODIuOTQ0IDcwLjE0NC0xMjkuMDI0ek04NTcuNiAyMjcuMzI4czQ5LjE1MiA1MC4xNzYgMS4wMjQgODEuNDA4YzAgMCA1OC44OC0xOC40MzIgNjYuNTYgMzYuMzUyIDAgMCA1LjEyLTY5LjYzMi02Ny41ODQtMTE3Ljc2eiIvPjxwYXRoIGZpbGw9IiM0QTkxOUIiIGQ9Ik00NDMuMzkyIDk3MC43NTJjLTUuNjMyIDAtMTAuNzUyLTEuMDI0LTE1LjM2LTMuMDcybC0yNzAuODQ4LTE1Ny4xODQtMS41MzYtMS4wMjRzLTEuMDI0LTEuMDI0LTQuNjA4LTIuNTZjLTUxLjItMjkuMTg0LTYyLjk3Ni05NC4yMDgtNjUuNTM2LTEyMC44MzJWMzg2LjU2YzAtMy4wNzIgMC41MTItNy4xNjggMS4wMjQtMTEuMjY0bDAuNTEyLTMuNTg0IDEuMDI0LTIuNTZjMTkuNDU2LTUwLjY4OCA3Ni44LTUxLjIgMTAzLjkzNi00NC4wMzJsLTEuNTM2IDUuNjMyIDQuMDk2LTYuMTQ0TDQ3Ni4xNiA0ODYuNGwxOC45NDQgMzcuODg4YzIwLjk5MiAzNi44NjQgMjkuMTg0IDc3LjgyNCAzMi43NjggOTkuODR2MjU4LjA0OGMtNC42MDggNTYuMzItMzYuODY0IDc2LjI4OC01NS44MDggODIuOTQ0LTEuMDI0IDAuNTEyLTE1LjM2IDUuNjMyLTI4LjY3MiA1LjYzMnogbS0yNjIuMTQ0LTE5Ni4wOTZsMjYzLjE2OCAxNTIuNTc2YzEyLjI4OC0wLjUxMiAzNi44NjQtNi42NTYgNDAuNDQ4LTQ4LjEyOHYtMjUwLjM2OGMtNC42MDgtMzEuNzQ0LTIwLjk5Mi0xMDMuOTM2LTcyLjE5Mi0xMjhMMzIyLjU2IDQ0NS40NGwxLjUzNiAzLjA3Mi0xNDIuMzM2LTgyLjQzMmMtMi4wNDgtMC41MTItNDAuNDQ4LTkuMjE2LTUyLjczNiAxNS44NzItMC41MTIgMi41Ni0wLjUxMiA0LjYwOC0wLjUxMiA2LjE0NHYyOTQuNGMxLjUzNiAxNi44OTYgOS43MjggNjcuMDcyIDQzLjUyIDg2LjUyOCAzLjU4NCAyLjA0OCA2LjY1NiA0LjA5NiA5LjIxNiA1LjYzMnoiLz48cGF0aCBmaWxsPSIjNEE5MTlCIiBkPSJNODM3LjYzMiAyMTIuOTkyYzYuNjU2IDQuMDk2IDEyLjggNy4xNjggMTguNDMyIDEwLjc1MmwxLjUzNiAxLjAyNCAxLjUzNiAxLjUzNmM1LjEyIDQuMDk2IDEwLjc1MiA5LjIxNiAxNi4zODQgMTUuMzYgNi4xNDQgMTEuNzc2IDUuNjMyIDMzLjI4IDQuNjA4IDQ5LjE1Mi0xLjAyNCAxMi4yODgtNi42NTYgMzAuMjA4LTI2LjYyNCA0NC41NDRsLTEuMDI0IDAuNTEyLTI0Ny44MDggMTU2LjY3MmMtMjYuNjI0IDE0LjMzNi02Mi45NzYgMTguNDMyLTk2LjI1NiAxOC40MzItNDAuOTYgMC03Ny44MjQtNi42NTYtODkuMDg4LTguNzA0bC0zLjA3Mi0wLjUxMi0yNDUuMjQ4LTE0Mi4zMzZjLTM5LjQyNC0yOS42OTYtMjguMTYtODUuNTA0LTE1LjM2LTExMy42NjRsMi41Ni02LjE0NCAyNjMuNjgtMTY2LjkxMmMyOS4xODQtMTQuMzM2IDEwNC40NDgtNDMuMDA4IDE3My4wNTYtMS4wMjQgMy41ODQgMi41NiA1OC4zNjggMzQuMzA0IDExOS4yOTYgNjkuNjMyTTQzMS42MTYgNDYwLjhjNDAuNDQ4IDcuMTY4IDExNC4xNzYgMTMuODI0IDE1Mi41NzYtNi4xNDRsMjQ0LjczNi0xNTUuMTM2YzcuMTY4LTUuNjMyIDguMTkyLTEwLjI0IDguNzA0LTEyLjggMS4wMjQtMTEuMjY0LTkuNzI4LTI2LjYyNC0xNS4zNi0zMi43NjgtNTUuODA4LTMyLjI1Ni0yNDMuNzEyLTE0MS4zMTItMjUwLjM2OC0xNDUuNDA4LTQ5LjY2NC0zMC43Mi0xMDcuMDA4LTkuMjE2LTEzMC4wNDggMi41NkwxOTIuNTEyIDI2OC44Yy00LjA5NiAxMi4yODgtMTIuMjg4IDQyLjQ5NiAzLjU4NCA1NS44MDhsMjM1LjUyIDEzNi4xOTJ6Ii8+PHBhdGggZmlsbD0iIzRBOTE5QiIgZD0iTTgzMS40ODggMjk5LjAwOGM0LjA5Ni0xLjAyNCAzOC40LTExLjI2NCA2Ni4wNDggNi4xNDQgNy4xNjggNC42MDggMTcuOTIgMTEuNzc2IDI0LjA2NCAyNC41NzYgMS4wMjQgNS42MzIgNC4wOTYgMTAuNzUyIDQuNjA4IDE2Ljg5NnYyLjA0OGwtMS4wMjQgMzIzLjA3MmMtNS4xMiAzNS4zMjgtMjIuNTI4IDkxLjY0OC03Ny4zMTIgMTI1LjQ0bC01LjEyIDMuNTg0aC0xLjAyNGwtMjYyLjE0NCAxNjUuODg4LTQuNjA4IDAuNTEyYy00LjA5NiAwLjUxMi04LjcwNCAxLjAyNC0xMi44IDEuMDI0LTE1Ljg3MiAwLTMwLjIwOC01LjEyLTQxLjk4NC0xNC44NDgtMjQuNTc2LTIwLjQ4LTMyLjc2OC01NS44MDgtMzUuMzI4LTczLjcyOGwtMS4wMjQtMjUyLjkyOGgxLjUzNmM2LjE0NC05Ni43NjggODguNTc2LTE2NC44NjQgOTYuNzY4LTE3MS4wMDhsLTAuNTEyLTAuNTEyTDgyOS40NCAyOTkuNTJtLTMwMS4wNTYgNTY3LjgwOGMwLjUxMiAxMC4yNCA1LjEyIDQxLjQ3MiAxOS45NjggNTMuNzYgMy4wNzIgMi41NiA3LjY4IDUuNjMyIDE2LjM4NCA1LjEybDI2NC43MDQtMTY3LjkzNmM1Ni4zMi0zOC40IDUzLjc2LTExNS43MTIgNTMuNzYtMTE2LjIyNGwtMC41MTItMzIuMjU2IDEuMDI0LTI1MC4zNjhoLTAuNTEyYy0xLjUzNi0xMi44LTcuMTY4LTE2LjM4NC04LjcwNC0xNy40MDgtOC43MDQtNS42MzItMjMuNTUyLTMuMDcyLTI4LjY3Mi0yLjA0OGwtMjM1LjUyIDE0OC45OTJjLTEuMDI0IDAuNTEyLTgwLjg5NiA2NS4wMjQtODAuODk2IDE0OS41MDRoLTEuNTM2bDAuNTEyIDIyOC44NjR6TTQzNS4yIDI2NC4xOTJjMCAyNy42NDggMzEuNzQ0IDUwLjE3NiA3MS4xNjggNTAuMTc2czcxLjE2OC0yMi41MjggNzEuMTY4LTUwLjE3Ni0zMS43NDQtNTAuMTc2LTcxLjE2OC01MC4xNzZTNDM1LjIgMjM2LjU0NCA0MzUuMiAyNjQuMTkyeiIvPjxwYXRoIGZpbGw9IiM0QTkxOUIiIGQ9Ik02NjMuNTUyIDc4Mi44NDhjMCAzMC43Mi0yMi41MjggNjcuMDcyLTQ5LjY2NCA4MC4zODQtMjcuNjQ4IDEzLjgyNC01MC4xNzYtMC41MTItNTAuMTc2LTMxLjIzMnMyMi41MjgtNjcuMDcyIDUwLjE3Ni04MC4zODRjMjcuMTM2LTEzLjgyNCA0OS42NjQgMCA0OS42NjQgMzEuMjMyek03NjAuMzIgNjAyLjYyNGMwIDMwLjcyLTIyLjUyOCA2Ny4wNzItNDkuNjY0IDgwLjM4NC0yNy42NDggMTMuODI0LTQ5LjY2NC0wLjUxMi00OS42NjQtMzEuMjMyczIyLjUyOC02Ny4wNzIgNDkuNjY0LTgwLjM4NGMyNy4xMzYtMTMuODI0IDQ5LjY2NCAwLjUxMiA0OS42NjQgMzEuMjMyek04NjcuODQgNDI4LjAzMmMwIDMwLjcyLTIyLjUyOCA2Ny4wNzItNDkuNjY0IDgwLjM4NC0yNy42NDggMTMuODI0LTUwLjE3Ni0wLjUxMi01MC4xNzYtMzEuMjMyczIyLjUyOC02Ny4wNzIgNTAuMTc2LTgwLjM4NGMyNy4xMzYtMTMuODI0IDQ5LjY2NCAwIDQ5LjY2NCAzMS4yMzJ6TTI3MC44NDggNTM4LjExMmMwIDMwLjcyLTIyLjAxNiA0MS45ODQtNDguNjQgMjQuNTc2LTI3LjEzNi0xNi44OTYtNDguNjQtNTUuODA4LTQ4LjY0LTg2LjUyOCAwLTMwLjcyIDIyLjAxNi00MS45ODQgNDguNjQtMjQuNTc2IDI2LjYyNCAxNi44OTYgNDguNjQgNTUuODA4IDQ4LjY0IDg2LjUyOHpNNDMyLjEyOCA4MjMuMjk2YzAgMzAuNzItMjIuMDE2IDQxLjk4NC00OC42NCAyNC41NzYtMjYuNjI0LTE3LjQwOC00OC42NC01NS44MDgtNDguNjQtODYuNTI4IDAtMzAuNzIgMjIuMDE2LTQxLjk4NCA0OC42NC0yNC41NzYgMjYuNjI0IDE2Ljg5NiA0OC42NCA1NS44MDggNDguNjQgODYuNTI4eiIvPjwvc3ZnPg==" parent="1" vertex="1">
          <mxGeometry x="619.76" y="569" width="56" height="56" as="geometry" />
        </mxCell>
        <mxCell id="TGPx2V8O0Z7DVdudsgvW-31" value="" style="shape=image;verticalLabelPosition=bottom;verticalAlign=top;imageAspect=0;aspect=fixed;image=data:image/svg+xml,PHN2ZyB4bWxuczp4bGluaz0iaHR0cDovL3d3dy53My5vcmcvMTk5OS94bGluayIgeG1sbnM9Imh0dHA6Ly93d3cudzMub3JnLzIwMDAvc3ZnIiBoZWlnaHQ9IjIwMCIgd2lkdGg9IjIwMCIgdmVyc2lvbj0iMS4xIiB2aWV3Qm94PSIwIDAgMTAyNCAxMDI0IiBjbGFzcz0iaWNvbiI+PHBhdGggZmlsbD0iIzUzNUU4MCIgZD0iTTMxMi44ODg4ODkgOTk1LjU1NTU1NmMtMTcuMDY2NjY3IDAtMjguNDQ0NDQ0LTUuNjg4ODg5LTM5LjgyMjIyMi0xNy4wNjY2NjctMjIuNzU1NTU2LTIyLjc1NTU1Ni0xNy4wNjY2NjctNTYuODg4ODg5IDUuNjg4ODg5LTc5LjY0NDQ0NWwzNjQuMDg4ODg4LTMyOS45NTU1NTVjMTEuMzc3Nzc4LTExLjM3Nzc3OCAxNy4wNjY2NjctMjIuNzU1NTU2IDE3LjA2NjY2Ny0zNC4xMzMzMzMgMC0xMS4zNzc3NzgtNS42ODg4ODktMjIuNzU1NTU2LTE3LjA2NjY2Ny0zNC4xMzMzMzRMMjczLjA2NjY2NyAxODcuNzMzMzMzYy0yMi43NTU1NTYtMjIuNzU1NTU2LTI4LjQ0NDQ0NC01Ni44ODg4ODktNS42ODg4ODktNzkuNjQ0NDQ0IDIyLjc1NTU1Ni0yMi43NTU1NTYgNTYuODg4ODg5LTI4LjQ0NDQ0NCA3OS42NDQ0NDQtNS42ODg4ODlsMzY0LjA4ODg4OSAzMTIuODg4ODg5YzM0LjEzMzMzMyAyOC40NDQ0NDQgNTYuODg4ODg5IDczLjk1NTU1NiA1Ni44ODg4ODkgMTE5LjQ2NjY2N3MtMTcuMDY2NjY3IDg1LjMzMzMzMy01MS4yIDExOS40NjY2NjZsLTM2NC4wODg4ODkgMzI5Ljk1NTU1NmMtMTEuMzc3Nzc4IDUuNjg4ODg5LTI4LjQ0NDQ0NCAxMS4zNzc3NzgtMzkuODIyMjIyIDExLjM3Nzc3OHoiLz48L3N2Zz4=;flipH=1;" parent="1" vertex="1">
          <mxGeometry x="873" y="758.5" width="55" height="55" as="geometry" />
        </mxCell>
        <mxCell id="TGPx2V8O0Z7DVdudsgvW-32" value="" style="shape=image;verticalLabelPosition=bottom;verticalAlign=top;imageAspect=0;aspect=fixed;image=data:image/svg+xml,PHN2ZyB4bWxuczp4bGluaz0iaHR0cDovL3d3dy53My5vcmcvMTk5OS94bGluayIgeG1sbnM9Imh0dHA6Ly93d3cudzMub3JnLzIwMDAvc3ZnIiBoZWlnaHQ9IjIwMCIgd2lkdGg9IjIwMCIgdmVyc2lvbj0iMS4xIiB2aWV3Qm94PSIwIDAgMTAyNCAxMDI0IiBjbGFzcz0iaWNvbiI+PHBhdGggZmlsbD0iIzUzNUU4MCIgZD0iTTMxMi44ODg4ODkgOTk1LjU1NTU1NmMtMTcuMDY2NjY3IDAtMjguNDQ0NDQ0LTUuNjg4ODg5LTM5LjgyMjIyMi0xNy4wNjY2NjctMjIuNzU1NTU2LTIyLjc1NTU1Ni0xNy4wNjY2NjctNTYuODg4ODg5IDUuNjg4ODg5LTc5LjY0NDQ0NWwzNjQuMDg4ODg4LTMyOS45NTU1NTVjMTEuMzc3Nzc4LTExLjM3Nzc3OCAxNy4wNjY2NjctMjIuNzU1NTU2IDE3LjA2NjY2Ny0zNC4xMzMzMzMgMC0xMS4zNzc3NzgtNS42ODg4ODktMjIuNzU1NTU2LTE3LjA2NjY2Ny0zNC4xMzMzMzRMMjczLjA2NjY2NyAxODcuNzMzMzMzYy0yMi43NTU1NTYtMjIuNzU1NTU2LTI4LjQ0NDQ0NC01Ni44ODg4ODktNS42ODg4ODktNzkuNjQ0NDQ0IDIyLjc1NTU1Ni0yMi43NTU1NTYgNTYuODg4ODg5LTI4LjQ0NDQ0NCA3OS42NDQ0NDQtNS42ODg4ODlsMzY0LjA4ODg4OSAzMTIuODg4ODg5YzM0LjEzMzMzMyAyOC40NDQ0NDQgNTYuODg4ODg5IDczLjk1NTU1NiA1Ni44ODg4ODkgMTE5LjQ2NjY2N3MtMTcuMDY2NjY3IDg1LjMzMzMzMy01MS4yIDExOS40NjY2NjZsLTM2NC4wODg4ODkgMzI5Ljk1NTU1NmMtMTEuMzc3Nzc4IDUuNjg4ODg5LTI4LjQ0NDQ0NCAxMS4zNzc3NzgtMzkuODIyMjIyIDExLjM3Nzc3OHoiLz48L3N2Zz4=;flipH=1;fillColor=#E7E5ED;" parent="1" vertex="1">
          <mxGeometry x="877" y="360.5" width="55" height="55" as="geometry" />
        </mxCell>
        <mxCell id="TGPx2V8O0Z7DVdudsgvW-33" value="" style="shape=image;verticalLabelPosition=bottom;verticalAlign=top;imageAspect=0;aspect=fixed;image=data:image/svg+xml,PHN2ZyB4bWxuczp4bGluaz0iaHR0cDovL3d3dy53My5vcmcvMTk5OS94bGluayIgeG1sbnM9Imh0dHA6Ly93d3cudzMub3JnLzIwMDAvc3ZnIiBoZWlnaHQ9IjIwMCIgd2lkdGg9IjIwMCIgdmVyc2lvbj0iMS4xIiB2aWV3Qm94PSIwIDAgMTAyNCAxMDI0IiBjbGFzcz0iaWNvbiI+PHBhdGggZmlsbD0iIzUzNUU4MCIgZD0iTTQyMS4zNzYgNDgxLjI4czExNy4yNDggMjQuNTc2IDE3NS4xMDQtOC43MDRjMCAwLTg5LjYgNzAuMTQ0LTg5LjYgMTY2LjQgMC41MTItMC41MTItOC4xOTItMTIxLjM0NC04NS41MDQtMTU3LjY5NnpNNDM4Ljc4NCA5NjkuMjE2czY4LjYwOCA2LjY1NiA2OC42MDgtODAuODk2YzAgMCAzLjA3MiA4OC41NzYgNjUuMDI0IDc4LjMzNiAwIDAuNTEyLTUwLjY4OCAyMi4wMTYtMTMzLjYzMiAyLjU2ek0xNjEuMjggMjM4LjA4cy0zMC4yMDggNjUuNTM2IDExLjI2NCA5MS42NDhjMCAwLTY3LjA3Mi0xNy40MDgtODEuNDA4IDM3LjM3NiAwIDAgOC43MDQtODIuOTQ0IDcwLjE0NC0xMjkuMDI0ek04NTcuNiAyMjcuMzI4czQ5LjE1MiA1MC4xNzYgMS4wMjQgODEuNDA4YzAgMCA1OC44OC0xOC40MzIgNjYuNTYgMzYuMzUyIDAgMCA1LjEyLTY5LjYzMi02Ny41ODQtMTE3Ljc2eiIvPjxwYXRoIGZpbGw9IiM1MzVFODAiIGQ9Ik00NDMuMzkyIDk3MC43NTJjLTUuNjMyIDAtMTAuNzUyLTEuMDI0LTE1LjM2LTMuMDcybC0yNzAuODQ4LTE1Ny4xODQtMS41MzYtMS4wMjRzLTEuMDI0LTEuMDI0LTQuNjA4LTIuNTZjLTUxLjItMjkuMTg0LTYyLjk3Ni05NC4yMDgtNjUuNTM2LTEyMC44MzJWMzg2LjU2YzAtMy4wNzIgMC41MTItNy4xNjggMS4wMjQtMTEuMjY0bDAuNTEyLTMuNTg0IDEuMDI0LTIuNTZjMTkuNDU2LTUwLjY4OCA3Ni44LTUxLjIgMTAzLjkzNi00NC4wMzJsLTEuNTM2IDUuNjMyIDQuMDk2LTYuMTQ0TDQ3Ni4xNiA0ODYuNGwxOC45NDQgMzcuODg4YzIwLjk5MiAzNi44NjQgMjkuMTg0IDc3LjgyNCAzMi43NjggOTkuODR2MjU4LjA0OGMtNC42MDggNTYuMzItMzYuODY0IDc2LjI4OC01NS44MDggODIuOTQ0LTEuMDI0IDAuNTEyLTE1LjM2IDUuNjMyLTI4LjY3MiA1LjYzMnogbS0yNjIuMTQ0LTE5Ni4wOTZsMjYzLjE2OCAxNTIuNTc2YzEyLjI4OC0wLjUxMiAzNi44NjQtNi42NTYgNDAuNDQ4LTQ4LjEyOHYtMjUwLjM2OGMtNC42MDgtMzEuNzQ0LTIwLjk5Mi0xMDMuOTM2LTcyLjE5Mi0xMjhMMzIyLjU2IDQ0NS40NGwxLjUzNiAzLjA3Mi0xNDIuMzM2LTgyLjQzMmMtMi4wNDgtMC41MTItNDAuNDQ4LTkuMjE2LTUyLjczNiAxNS44NzItMC41MTIgMi41Ni0wLjUxMiA0LjYwOC0wLjUxMiA2LjE0NHYyOTQuNGMxLjUzNiAxNi44OTYgOS43MjggNjcuMDcyIDQzLjUyIDg2LjUyOCAzLjU4NCAyLjA0OCA2LjY1NiA0LjA5NiA5LjIxNiA1LjYzMnoiLz48cGF0aCBmaWxsPSIjNTM1RTgwIiBkPSJNODM3LjYzMiAyMTIuOTkyYzYuNjU2IDQuMDk2IDEyLjggNy4xNjggMTguNDMyIDEwLjc1MmwxLjUzNiAxLjAyNCAxLjUzNiAxLjUzNmM1LjEyIDQuMDk2IDEwLjc1MiA5LjIxNiAxNi4zODQgMTUuMzYgNi4xNDQgMTEuNzc2IDUuNjMyIDMzLjI4IDQuNjA4IDQ5LjE1Mi0xLjAyNCAxMi4yODgtNi42NTYgMzAuMjA4LTI2LjYyNCA0NC41NDRsLTEuMDI0IDAuNTEyLTI0Ny44MDggMTU2LjY3MmMtMjYuNjI0IDE0LjMzNi02Mi45NzYgMTguNDMyLTk2LjI1NiAxOC40MzItNDAuOTYgMC03Ny44MjQtNi42NTYtODkuMDg4LTguNzA0bC0zLjA3Mi0wLjUxMi0yNDUuMjQ4LTE0Mi4zMzZjLTM5LjQyNC0yOS42OTYtMjguMTYtODUuNTA0LTE1LjM2LTExMy42NjRsMi41Ni02LjE0NCAyNjMuNjgtMTY2LjkxMmMyOS4xODQtMTQuMzM2IDEwNC40NDgtNDMuMDA4IDE3My4wNTYtMS4wMjQgMy41ODQgMi41NiA1OC4zNjggMzQuMzA0IDExOS4yOTYgNjkuNjMyTTQzMS42MTYgNDYwLjhjNDAuNDQ4IDcuMTY4IDExNC4xNzYgMTMuODI0IDE1Mi41NzYtNi4xNDRsMjQ0LjczNi0xNTUuMTM2YzcuMTY4LTUuNjMyIDguMTkyLTEwLjI0IDguNzA0LTEyLjggMS4wMjQtMTEuMjY0LTkuNzI4LTI2LjYyNC0xNS4zNi0zMi43NjgtNTUuODA4LTMyLjI1Ni0yNDMuNzEyLTE0MS4zMTItMjUwLjM2OC0xNDUuNDA4LTQ5LjY2NC0zMC43Mi0xMDcuMDA4LTkuMjE2LTEzMC4wNDggMi41NkwxOTIuNTEyIDI2OC44Yy00LjA5NiAxMi4yODgtMTIuMjg4IDQyLjQ5NiAzLjU4NCA1NS44MDhsMjM1LjUyIDEzNi4xOTJ6Ii8+PHBhdGggZmlsbD0iIzUzNUU4MCIgZD0iTTgzMS40ODggMjk5LjAwOGM0LjA5Ni0xLjAyNCAzOC40LTExLjI2NCA2Ni4wNDggNi4xNDQgNy4xNjggNC42MDggMTcuOTIgMTEuNzc2IDI0LjA2NCAyNC41NzYgMS4wMjQgNS42MzIgNC4wOTYgMTAuNzUyIDQuNjA4IDE2Ljg5NnYyLjA0OGwtMS4wMjQgMzIzLjA3MmMtNS4xMiAzNS4zMjgtMjIuNTI4IDkxLjY0OC03Ny4zMTIgMTI1LjQ0bC01LjEyIDMuNTg0aC0xLjAyNGwtMjYyLjE0NCAxNjUuODg4LTQuNjA4IDAuNTEyYy00LjA5NiAwLjUxMi04LjcwNCAxLjAyNC0xMi44IDEuMDI0LTE1Ljg3MiAwLTMwLjIwOC01LjEyLTQxLjk4NC0xNC44NDgtMjQuNTc2LTIwLjQ4LTMyLjc2OC01NS44MDgtMzUuMzI4LTczLjcyOGwtMS4wMjQtMjUyLjkyOGgxLjUzNmM2LjE0NC05Ni43NjggODguNTc2LTE2NC44NjQgOTYuNzY4LTE3MS4wMDhsLTAuNTEyLTAuNTEyTDgyOS40NCAyOTkuNTJtLTMwMS4wNTYgNTY3LjgwOGMwLjUxMiAxMC4yNCA1LjEyIDQxLjQ3MiAxOS45NjggNTMuNzYgMy4wNzIgMi41NiA3LjY4IDUuNjMyIDE2LjM4NCA1LjEybDI2NC43MDQtMTY3LjkzNmM1Ni4zMi0zOC40IDUzLjc2LTExNS43MTIgNTMuNzYtMTE2LjIyNGwtMC41MTItMzIuMjU2IDEuMDI0LTI1MC4zNjhoLTAuNTEyYy0xLjUzNi0xMi44LTcuMTY4LTE2LjM4NC04LjcwNC0xNy40MDgtOC43MDQtNS42MzItMjMuNTUyLTMuMDcyLTI4LjY3Mi0yLjA0OGwtMjM1LjUyIDE0OC45OTJjLTEuMDI0IDAuNTEyLTgwLjg5NiA2NS4wMjQtODAuODk2IDE0OS41MDRoLTEuNTM2bDAuNTEyIDIyOC44NjR6TTQzNS4yIDI2NC4xOTJjMCAyNy42NDggMzEuNzQ0IDUwLjE3NiA3MS4xNjggNTAuMTc2czcxLjE2OC0yMi41MjggNzEuMTY4LTUwLjE3Ni0zMS43NDQtNTAuMTc2LTcxLjE2OC01MC4xNzZTNDM1LjIgMjM2LjU0NCA0MzUuMiAyNjQuMTkyeiIvPjxwYXRoIGZpbGw9IiM1MzVFODAiIGQ9Ik02NjMuNTUyIDc4Mi44NDhjMCAzMC43Mi0yMi41MjggNjcuMDcyLTQ5LjY2NCA4MC4zODQtMjcuNjQ4IDEzLjgyNC01MC4xNzYtMC41MTItNTAuMTc2LTMxLjIzMnMyMi41MjgtNjcuMDcyIDUwLjE3Ni04MC4zODRjMjcuMTM2LTEzLjgyNCA0OS42NjQgMCA0OS42NjQgMzEuMjMyek03NjAuMzIgNjAyLjYyNGMwIDMwLjcyLTIyLjUyOCA2Ny4wNzItNDkuNjY0IDgwLjM4NC0yNy42NDggMTMuODI0LTQ5LjY2NC0wLjUxMi00OS42NjQtMzEuMjMyczIyLjUyOC02Ny4wNzIgNDkuNjY0LTgwLjM4NGMyNy4xMzYtMTMuODI0IDQ5LjY2NCAwLjUxMiA0OS42NjQgMzEuMjMyek04NjcuODQgNDI4LjAzMmMwIDMwLjcyLTIyLjUyOCA2Ny4wNzItNDkuNjY0IDgwLjM4NC0yNy42NDggMTMuODI0LTUwLjE3Ni0wLjUxMi01MC4xNzYtMzEuMjMyczIyLjUyOC02Ny4wNzIgNTAuMTc2LTgwLjM4NGMyNy4xMzYtMTMuODI0IDQ5LjY2NCAwIDQ5LjY2NCAzMS4yMzJ6TTI3MC44NDggNTM4LjExMmMwIDMwLjcyLTIyLjAxNiA0MS45ODQtNDguNjQgMjQuNTc2LTI3LjEzNi0xNi44OTYtNDguNjQtNTUuODA4LTQ4LjY0LTg2LjUyOCAwLTMwLjcyIDIyLjAxNi00MS45ODQgNDguNjQtMjQuNTc2IDI2LjYyNCAxNi44OTYgNDguNjQgNTUuODA4IDQ4LjY0IDg2LjUyOHpNNDMyLjEyOCA4MjMuMjk2YzAgMzAuNzItMjIuMDE2IDQxLjk4NC00OC42NCAyNC41NzYtMjYuNjI0LTE3LjQwOC00OC42NC01NS44MDgtNDguNjQtODYuNTI4IDAtMzAuNzIgMjIuMDE2LTQxLjk4NCA0OC42NC0yNC41NzYgMjYuNjI0IDE2Ljg5NiA0OC42NCA1NS44MDggNDguNjQgODYuNTI4eiIvPjwvc3ZnPg==" parent="1" vertex="1">
          <mxGeometry x="1153" y="710" width="56" height="56" as="geometry" />
        </mxCell>
        <mxCell id="TGPx2V8O0Z7DVdudsgvW-38" value="" style="shape=image;verticalLabelPosition=bottom;labelBackgroundColor=default;verticalAlign=top;aspect=fixed;imageAspect=0;image=data:image/svg+xml,PHN2ZyB4bWxuczp4bGluaz0iaHR0cDovL3d3dy53My5vcmcvMTk5OS94bGluayIgeG1sbnM9Imh0dHA6Ly93d3cudzMub3JnLzIwMDAvc3ZnIiBoZWlnaHQ9IjIwMCIgd2lkdGg9IjIwMCIgdmVyc2lvbj0iMS4xIiB2aWV3Qm94PSIwIDAgMTAyNCAxMDI0IiBjbGFzcz0iaWNvbiI+PHBhdGggZmlsbD0iIzUzNUU4MCIgZD0iTTEwMDYuMjY5MTQ5IDkzNy41MzA0MjhhMTMuOTk2NzA1IDEzLjk5NjcwNSAwIDAgMS0xNC41MTUxMDEgNS4yODc2NDRsLTk5LjE3OTYxOC0yMy4wMzc1NC0zNC4xMzEyMjUgOTQuNTk2OTkyYTE0Ljk1MDU1NSAxNC45NTA1NTUgMCAwIDEtMTIuNjI4MTM4IDkuNjIxNDM5aC0xLjUxMzcxOGExNC4xNjI1OTIgMTQuMTYyNTkyIDAgMCAxLTEyLjYyODEzOS03LjU0Nzg1M2wtMTAwLjUwNjcxMi0xODUuMzk5MzIyYy0xNi45NjE5MzMgMS43MDAzNDEtMjcuMTQzMjQgMS41MTM3MTgtNDQuODcyNDAxLTAuMzczMjQ1bC05OS45MjYxMDggMTg0LjgxODcxOGExNC4zMDc3NDMgMTQuMzA3NzQzIDAgMCAxLTEzLjAwMTM4NCA3LjU2ODU4OWgtMS4xNDA0NzJhMTQuNTU2NTc0IDE0LjU1NjU3NCAwIDAgMS0xMi4yNTQ4OTMtOS42NDIxNzVsLTMzLjczNzI0NC05NC45NDk1MDItOTkuMzg2OTc2IDIyLjQ1NjkzNmExNC43NDMxOTYgMTQuNzQzMTk2IDAgMCAxLTE0LjcwMTcyNS01LjQ3NDI2NyAxNC43MDE3MjUgMTQuNzAxNzI1IDAgMCAxLTEuMTE5NzM2LTE1Ljg2MjkzM2wxMTMuNjk0NzE5LTIwNS45NjkyOTUtMC45NTM4NS0yLjA3MzU4NmEyMDIuOTAwMzg4IDIwMi45MDAzODggMCAwIDEtMTcuOTE1NzgyLTg0LjAyMTcwNGMwLjE4NjYyMy0xMTIuNjk5Mzk4IDkxLjY1MjUtMjAzLjg3NDk3MyAyMDQuMjA2NzQ3LTIwMy44NzQ5NzNoMC45MzMxMTNjMTEzLjEzNDg1MSAwLjM3MzI0NSAyMDQuMzkzMzcgOTIuMzE2MDQ4IDIwMy44MzM1MDIgMjA1LjM4ODY5MSAwIDI5LjY1MjI3OS02LjU5NDAwMyA1Ny4yMTAyMzctMTguNjYyMjc0IDg0LjIwODMyN2wxMTEuNjIxMTMzIDIwOC40MTYxMjZjMi40NDY4MzEgNS4xMDEwMjIgMi4wNzM1ODYgMTEuMzQyNTE1LTEuNTEzNzE4IDE1Ljg2MjkzM3ogbS00NDIuNzEwNjA2LTE3Mi4zNTY0NjZsLTU4LjA4MTE0MyAxMDQuNDA1MDUzIDQ1LjI2NjM4Mi0xMC4yMDIwNDNhNC45OTczNDIgNC45OTczNDIgMCAwIDEgNS44MjY3NzcgMy4yMTQwNTlsMTUuMjgyMzI4IDQzLjAyNjkwOSA1Mi45ODAxMjItOTYuNjQ5ODQzYy0yNS4wNjk2NTQtMTMuNzg5MzQ3LTQxLjA5ODQ3NC0yMy4yMjQxNjMtNjEuMjc0NDY2LTQzLjc5NDEzNXogbTE0Ni44NzIwOTUtMjc1LjY0MTc4NGgtMC41NTk4NjhhMTM3Ljg1MTk5NiAxMzcuODUxOTk2IDAgMCAwLTEzNy44MzEyNiAxMzcuNDM3Mjc4Yy0wLjM3MzI0NSA3Ni4wNzk4NyA2MS4yNzQ0NjYgMTM4LjM5MTEyOCAxMzcuMjcxMzkyIDEzOC43NjQzNzRhMTM4LjI2NjcxMyAxMzguMjY2NzEzIDAgMCAwIDEzOC4zOTExMjgtMTM3LjYyMzkwMiAxMzcuOTc2NDExIDEzNy45NzY0MTEgMCAwIDAtMTM3LjI3MTM5Mi0xMzguNTc3NzV6IG0xNDYuNTE5NTg1IDI3NS40NTUxNjFjLTIzLjM5MDA1IDIzLjQxMDc4Ni00Mi40MjU1NjkgMzQuNzMyNTY1LTcxLjEwMzI2MyA1MC41OTU0OThsNjAuNzE0NTk3IDExMS43NDU1NDggMTcuNTQyNTM4LTQ5LjA4MTc4YTYuOTQ2NTEzIDYuOTQ2NTEzIDAgMCAxIDcuOTIxMDk4LTQuMzMzNzk1bDUxLjQ2NjQwNCAxMS42OTUwMjUtNjYuNTQxMzc0LTEyMC42MjA0OTZ6TTE5Mi44NjM1NzggNzExLjU1MTAyOGgyNDYuMjU5MDcxdjY0LjM4NDg0NUgxOTIuODYzNTc4di02NC4zODQ4NDV6IG0wLTExMy42NTMyNDd2LTY0LjE5ODIyMmgyNDYuMjU5MDcxdjY0LjE5ODIyMkgxOTIuODYzNTc4eiBtMC00MjAuMDQ2MzEyaDUwNS40OTg3OXY2NC4zNjQxMDlIMTkyLjg2MzU3OFYxNzcuODUxNDY5eiBtMCAxNzcuODMwNzM0aDM2MC4xNDA0MTN2NjQuMzg0ODQ0SDE5Mi44NjM1Nzh2LTY0LjM4NDg0NHpNODQ5LjQwMjM3IDYzLjk5MDg2M0g3OC42MDg5OTFWODg5LjQwMjQ5N2gyNzYuMDM1NzY1djY0LjE3NzQ4Nkg4My4xMjk0MDhjLTM3LjY5Nzc5MyAwLTY4LjYzNTY5Ni0zMS43MDUxMy02OC42MzU2OTYtNzAuOTc4ODQ4VjcwLjk3ODg0OGMwLTM5LjA2NjM2IDMwLjc1MTI4LTcwLjk3ODg0OCA2OC42MzU2OTYtNzAuOTc4ODQ4SDg0NC44NjEyMTdjMzcuNzE4NTI5IDAgNjguNjM1Njk2IDMxLjcwNTEzIDY4LjYzNTY5NiA3MC45Nzg4NDh2MzAzLjM4NjM2NGgtNjQuMDk0NTQzVjYzLjk5MDg2M3oiLz48L3N2Zz4=;" parent="1" vertex="1">
          <mxGeometry x="1103" y="844.6599999999999" width="46.68" height="46.68" as="geometry" />
        </mxCell>
        <mxCell id="TGPx2V8O0Z7DVdudsgvW-39" value="" style="shape=image;verticalLabelPosition=bottom;labelBackgroundColor=default;verticalAlign=top;aspect=fixed;imageAspect=0;image=data:image/svg+xml,PHN2ZyB4bWxuczp4bGluaz0iaHR0cDovL3d3dy53My5vcmcvMTk5OS94bGluayIgeG1sbnM9Imh0dHA6Ly93d3cudzMub3JnLzIwMDAvc3ZnIiBoZWlnaHQ9IjIwMCIgd2lkdGg9IjIwMCIgdmVyc2lvbj0iMS4xIiB2aWV3Qm94PSIwIDAgMTAyNCAxMDI0IiBjbGFzcz0iaWNvbiI+PHBhdGggZmlsbD0iIzUzNUU4MCIgZD0iTTEwMDYuMjY5MTQ5IDkzNy41MzA0MjhhMTMuOTk2NzA1IDEzLjk5NjcwNSAwIDAgMS0xNC41MTUxMDEgNS4yODc2NDRsLTk5LjE3OTYxOC0yMy4wMzc1NC0zNC4xMzEyMjUgOTQuNTk2OTkyYTE0Ljk1MDU1NSAxNC45NTA1NTUgMCAwIDEtMTIuNjI4MTM4IDkuNjIxNDM5aC0xLjUxMzcxOGExNC4xNjI1OTIgMTQuMTYyNTkyIDAgMCAxLTEyLjYyODEzOS03LjU0Nzg1M2wtMTAwLjUwNjcxMi0xODUuMzk5MzIyYy0xNi45NjE5MzMgMS43MDAzNDEtMjcuMTQzMjQgMS41MTM3MTgtNDQuODcyNDAxLTAuMzczMjQ1bC05OS45MjYxMDggMTg0LjgxODcxOGExNC4zMDc3NDMgMTQuMzA3NzQzIDAgMCAxLTEzLjAwMTM4NCA3LjU2ODU4OWgtMS4xNDA0NzJhMTQuNTU2NTc0IDE0LjU1NjU3NCAwIDAgMS0xMi4yNTQ4OTMtOS42NDIxNzVsLTMzLjczNzI0NC05NC45NDk1MDItOTkuMzg2OTc2IDIyLjQ1NjkzNmExNC43NDMxOTYgMTQuNzQzMTk2IDAgMCAxLTE0LjcwMTcyNS01LjQ3NDI2NyAxNC43MDE3MjUgMTQuNzAxNzI1IDAgMCAxLTEuMTE5NzM2LTE1Ljg2MjkzM2wxMTMuNjk0NzE5LTIwNS45NjkyOTUtMC45NTM4NS0yLjA3MzU4NmEyMDIuOTAwMzg4IDIwMi45MDAzODggMCAwIDEtMTcuOTE1NzgyLTg0LjAyMTcwNGMwLjE4NjYyMy0xMTIuNjk5Mzk4IDkxLjY1MjUtMjAzLjg3NDk3MyAyMDQuMjA2NzQ3LTIwMy44NzQ5NzNoMC45MzMxMTNjMTEzLjEzNDg1MSAwLjM3MzI0NSAyMDQuMzkzMzcgOTIuMzE2MDQ4IDIwMy44MzM1MDIgMjA1LjM4ODY5MSAwIDI5LjY1MjI3OS02LjU5NDAwMyA1Ny4yMTAyMzctMTguNjYyMjc0IDg0LjIwODMyN2wxMTEuNjIxMTMzIDIwOC40MTYxMjZjMi40NDY4MzEgNS4xMDEwMjIgMi4wNzM1ODYgMTEuMzQyNTE1LTEuNTEzNzE4IDE1Ljg2MjkzM3ogbS00NDIuNzEwNjA2LTE3Mi4zNTY0NjZsLTU4LjA4MTE0MyAxMDQuNDA1MDUzIDQ1LjI2NjM4Mi0xMC4yMDIwNDNhNC45OTczNDIgNC45OTczNDIgMCAwIDEgNS44MjY3NzcgMy4yMTQwNTlsMTUuMjgyMzI4IDQzLjAyNjkwOSA1Mi45ODAxMjItOTYuNjQ5ODQzYy0yNS4wNjk2NTQtMTMuNzg5MzQ3LTQxLjA5ODQ3NC0yMy4yMjQxNjMtNjEuMjc0NDY2LTQzLjc5NDEzNXogbTE0Ni44NzIwOTUtMjc1LjY0MTc4NGgtMC41NTk4NjhhMTM3Ljg1MTk5NiAxMzcuODUxOTk2IDAgMCAwLTEzNy44MzEyNiAxMzcuNDM3Mjc4Yy0wLjM3MzI0NSA3Ni4wNzk4NyA2MS4yNzQ0NjYgMTM4LjM5MTEyOCAxMzcuMjcxMzkyIDEzOC43NjQzNzRhMTM4LjI2NjcxMyAxMzguMjY2NzEzIDAgMCAwIDEzOC4zOTExMjgtMTM3LjYyMzkwMiAxMzcuOTc2NDExIDEzNy45NzY0MTEgMCAwIDAtMTM3LjI3MTM5Mi0xMzguNTc3NzV6IG0xNDYuNTE5NTg1IDI3NS40NTUxNjFjLTIzLjM5MDA1IDIzLjQxMDc4Ni00Mi40MjU1NjkgMzQuNzMyNTY1LTcxLjEwMzI2MyA1MC41OTU0OThsNjAuNzE0NTk3IDExMS43NDU1NDggMTcuNTQyNTM4LTQ5LjA4MTc4YTYuOTQ2NTEzIDYuOTQ2NTEzIDAgMCAxIDcuOTIxMDk4LTQuMzMzNzk1bDUxLjQ2NjQwNCAxMS42OTUwMjUtNjYuNTQxMzc0LTEyMC42MjA0OTZ6TTE5Mi44NjM1NzggNzExLjU1MTAyOGgyNDYuMjU5MDcxdjY0LjM4NDg0NUgxOTIuODYzNTc4di02NC4zODQ4NDV6IG0wLTExMy42NTMyNDd2LTY0LjE5ODIyMmgyNDYuMjU5MDcxdjY0LjE5ODIyMkgxOTIuODYzNTc4eiBtMC00MjAuMDQ2MzEyaDUwNS40OTg3OXY2NC4zNjQxMDlIMTkyLjg2MzU3OFYxNzcuODUxNDY5eiBtMCAxNzcuODMwNzM0aDM2MC4xNDA0MTN2NjQuMzg0ODQ0SDE5Mi44NjM1Nzh2LTY0LjM4NDg0NHpNODQ5LjQwMjM3IDYzLjk5MDg2M0g3OC42MDg5OTFWODg5LjQwMjQ5N2gyNzYuMDM1NzY1djY0LjE3NzQ4Nkg4My4xMjk0MDhjLTM3LjY5Nzc5MyAwLTY4LjYzNTY5Ni0zMS43MDUxMy02OC42MzU2OTYtNzAuOTc4ODQ4VjcwLjk3ODg0OGMwLTM5LjA2NjM2IDMwLjc1MTI4LTcwLjk3ODg0OCA2OC42MzU2OTYtNzAuOTc4ODQ4SDg0NC44NjEyMTdjMzcuNzE4NTI5IDAgNjguNjM1Njk2IDMxLjcwNTEzIDY4LjYzNTY5NiA3MC45Nzg4NDh2MzAzLjM4NjM2NGgtNjQuMDk0NTQzVjYzLjk5MDg2M3oiLz48L3N2Zz4=;" parent="1" vertex="1">
          <mxGeometry x="769.6600000000001" y="838.3199999999997" width="46.68" height="46.68" as="geometry" />
        </mxCell>
        <mxCell id="TGPx2V8O0Z7DVdudsgvW-41" value="" style="shape=image;verticalLabelPosition=bottom;labelBackgroundColor=default;verticalAlign=top;aspect=fixed;imageAspect=0;image=data:image/svg+xml,PHN2ZyB4bWxuczp4bGluaz0iaHR0cDovL3d3dy53My5vcmcvMTk5OS94bGluayIgeG1sbnM9Imh0dHA6Ly93d3cudzMub3JnLzIwMDAvc3ZnIiBoZWlnaHQ9IjIwMCIgd2lkdGg9IjIwMCIgdmVyc2lvbj0iMS4xIiB2aWV3Qm94PSIwIDAgMTAyNCAxMDI0IiBjbGFzcz0iaWNvbiI+PHBhdGggZmlsbD0iIzRBOTE5QiIgZD0iTTg3NC42NjY2NjcgNDIuNjY2NjY3aC03MjUuMzMzMzM0Qzg5LjYgNDIuNjY2NjY3IDQyLjY2NjY2NyA4OS42IDQyLjY2NjY2NyAxNDkuMzMzMzMzdjcyNS4zMzMzMzRDNDIuNjY2NjY3IDkzNC40IDg5LjYgOTgxLjMzMzMzMyAxNDkuMzMzMzMzIDk4MS4zMzMzMzNoNzI1LjMzMzMzNGM1OS43MzMzMzMgMCAxMDYuNjY2NjY3LTQ2LjkzMzMzMyAxMDYuNjY2NjY2LTEwNi42NjY2NjZ2LTcyNS4zMzMzMzRDOTgxLjMzMzMzMyA4OS42IDkzNC40IDQyLjY2NjY2NyA4NzQuNjY2NjY3IDQyLjY2NjY2N3ogbS03MjUuMzMzMzM0IDg1LjMzMzMzM2g3MjUuMzMzMzM0YzEyLjggMCAyMS4zMzMzMzMgOC41MzMzMzMgMjEuMzMzMzMzIDIxLjMzMzMzM1YzNDEuMzMzMzMzSDEyOFYxNDkuMzMzMzMzYzAtMTIuOCA4LjUzMzMzMy0yMS4zMzMzMzMgMjEuMzMzMzMzLTIxLjMzMzMzM3ogbTcyNS4zMzMzMzQgNzY4aC03MjUuMzMzMzM0Yy0xMi44IDAtMjEuMzMzMzMzLTguNTMzMzMzLTIxLjMzMzMzMy0yMS4zMzMzMzNWNDI2LjY2NjY2N2g3Njh2NDQ4YzAgMTIuOC04LjUzMzMzMyAyMS4zMzMzMzMtMjEuMzMzMzMzIDIxLjMzMzMzM3oiLz48cGF0aCBmaWxsPSIjNEE5MTlCIiBkPSJNMjM0LjY2NjY2NyAyNzcuMzMzMzMzaDQyLjY2NjY2NmMyNS42IDAgNDIuNjY2NjY3LTE3LjA2NjY2NyA0Mi42NjY2NjctNDIuNjY2NjY2cy0xNy4wNjY2NjctNDIuNjY2NjY3LTQyLjY2NjY2Ny00Mi42NjY2NjdoLTQyLjY2NjY2NmMtMjUuNiAwLTQyLjY2NjY2NyAxNy4wNjY2NjctNDIuNjY2NjY3IDQyLjY2NjY2N3MxNy4wNjY2NjcgNDIuNjY2NjY3IDQyLjY2NjY2NyA0Mi42NjY2NjZ6TTQwNS4zMzMzMzMgMjc3LjMzMzMzM2g0Mi42NjY2NjdjMjUuNiAwIDQyLjY2NjY2Ny0xNy4wNjY2NjcgNDIuNjY2NjY3LTQyLjY2NjY2NnMtMTcuMDY2NjY3LTQyLjY2NjY2Ny00Mi42NjY2NjctNDIuNjY2NjY3aC00Mi42NjY2NjdjLTI1LjYgMC00Mi42NjY2NjcgMTcuMDY2NjY3LTQyLjY2NjY2NiA0Mi42NjY2NjdzMTcuMDY2NjY3IDQyLjY2NjY2NyA0Mi42NjY2NjYgNDIuNjY2NjY2ek01NzYgMjc3LjMzMzMzM2g0Mi42NjY2NjdjMjUuNiAwIDQyLjY2NjY2Ny0xNy4wNjY2NjcgNDIuNjY2NjY2LTQyLjY2NjY2NnMtMTcuMDY2NjY3LTQyLjY2NjY2Ny00Mi42NjY2NjYtNDIuNjY2NjY3aC00Mi42NjY2NjdjLTI1LjYgMC00Mi42NjY2NjcgMTcuMDY2NjY3LTQyLjY2NjY2NyA0Mi42NjY2NjdzMTcuMDY2NjY3IDQyLjY2NjY2NyA0Mi42NjY2NjcgNDIuNjY2NjY2eiIvPjwvc3ZnPg==;" parent="1" vertex="1">
          <mxGeometry x="670" y="721" width="77" height="77" as="geometry" />
        </mxCell>
        <mxCell id="TGPx2V8O0Z7DVdudsgvW-42" value="" style="shape=image;verticalLabelPosition=bottom;labelBackgroundColor=default;verticalAlign=top;aspect=fixed;imageAspect=0;image=data:image/svg+xml,PHN2ZyB4bWxuczp4bGluaz0iaHR0cDovL3d3dy53My5vcmcvMTk5OS94bGluayIgeG1sbnM9Imh0dHA6Ly93d3cudzMub3JnLzIwMDAvc3ZnIiBoZWlnaHQ9IjIwMCIgd2lkdGg9IjIwMCIgdmVyc2lvbj0iMS4xIiB2aWV3Qm94PSIwIDAgMTAyNCAxMDI0IiBjbGFzcz0iaWNvbiI+PHBhdGggZmlsbD0iIzRBOTE5QiIgZD0iTTUxMC4yOTM3MTQgMC4wMjEzMjlxMTM3LjEyMTQwNS0xLjE1MTc0MyAyNTcuNjQ5MTc5IDY4LjU1MDAzOCAxMzIuNTM1NzYxIDc2LjU0ODI1NCAyMDEuMTA3MTI4IDIxMi41MTc5MTVsLTQyMy45MDU0MTYtMjIuMjg4MzZxLTkxLjQxNDI3LTUuMTQwMTg2LTE2Ny45NjI1MjMgNDIuNTcxODM0dC0xMDUuNjgzMDg2IDEzMS4xMDY3NDdsLTE1Ny42ODIxNTEtMjQyLjIyODYxOXE3My4xMzU2ODItOTAuODM4Mzk4IDE3Ny42NjcwMjUtMTQwLjI1NjcwNXQyMTguODA5ODQ1LTQ5Ljk5NDE3OHpNODMuNTMwMjY5IDIzMS4zOTM3MDRsMTkyLjUzMzA0MSAzNzguNzc0MTUzcTQxLjE0MjgyIDgxLjY4ODQ0IDEyMC41NDkxMDIgMTIzLjk4MzAwM3QxNjcuMzg2NjUyIDI1LjcwMDkzMmwtMTMxLjQwNTM0NyAyNTcuNjQ5MTc5cS0xMjEuMTI0OTc0LTE4Ljg1NDQ2LTIxOS45NjE1ODgtODkuOTg1MjU1dC0xNTUuNjc3MjY1LTE4MC41MjUwNTQtNTYuODQwNjUxLTIzNS4wODM1NDdxMC0xNTIuNTQxOTY0IDgzLjQxNjA1NC0yODAuNTEzNDF6TTk4OS42MTA3NjYgMzI3Ljk0ODE2cTMzLjE0NDYwNSA4NS42OTgyMTIgMzMuOTk3NzQ4IDE3Ny4zODk3NTN0LTI3LjcwNTgxOCAxNzQuODA4OTk2LTg3LjQwNDQ5OCAxNTUuMzk5OTkzLTE0MC41MzM5NzcgMTE5LjY5NTk2cS0xMzEuNDA1MzQ3IDc1Ljk5MzcxMS0yODQuNTAxODU0IDY3Ljk5NTQ5NWwyMzEuMzcyMzc1LTM1NS45MDk5MjFxNTAuMjcxNDUtNzQuODQxOTY4IDQ3LjEzNjE0OS0xNjUuOTU3NjM3dC02MC44NTA0MjMtMTU4LjUzNTI5M3pNNTEyIDMzOS4zODAyNzZxNzEuNDA4MDY3IDAgMTIxLjk3ODExNyA1MC41NzAwNXQ1MC41NzAwNSAxMjEuOTc4MTE3LTUwLjU3MDA1IDEyMS45NzgxMTctMTIxLjk3ODExNyA1MC41NzAwNS0xMjEuOTc4MTE3LTUwLjU3MDA1LTUwLjU3MDA1LTEyMS45NzgxMTcgNTAuNTcwMDUtMTIxLjk3ODExNyAxMjEuOTc4MTE3LTUwLjU3MDA1eiIvPjwvc3ZnPg==;" parent="1" vertex="1">
          <mxGeometry x="694.87" y="758" width="25.27" height="25.27" as="geometry" />
        </mxCell>
        <mxCell id="TGPx2V8O0Z7DVdudsgvW-43" value="" style="shape=image;verticalLabelPosition=bottom;verticalAlign=top;imageAspect=0;aspect=fixed;image=data:image/svg+xml,PHN2ZyB4bWxuczp4bGluaz0iaHR0cDovL3d3dy53My5vcmcvMTk5OS94bGluayIgeG1sbnM9Imh0dHA6Ly93d3cudzMub3JnLzIwMDAvc3ZnIiBoZWlnaHQ9IjIwMCIgd2lkdGg9IjIwMCIgdmVyc2lvbj0iMS4xIiB2aWV3Qm94PSIwIDAgMTAyNCAxMDI0IiBjbGFzcz0iaWNvbiI+PHBhdGggZmlsbD0iIzRBOTE5QiIgZD0iTTQ0Ni42ODA0MDcgNTEzLjcwNDcyNmgxMzYuMDc4NzM5djUxMC4yOTUyNzRoLTEzNi4wNzg3Mzl6Ii8+PHBhdGggZmlsbD0iIzRBOTE5QiIgZD0iTTUzMi40MTAwMTMgNjY2Ljc5MzMwOGgxMTUuNjY2OTI4djEzNi4wNzg3NEg1MzIuNDEwMDEzek01MzIuNDEwMDEzIDg0My42OTU2N2gxNDkuNjg2NjEzdjEzNi4wNzg3NEg1MzIuNDEwMDEzek01MTEuOTk4MjAyIDU4NS4xNDYwNjVBMjkwLjUyODEwOSAyOTAuNTI4MTA5IDAgMCAxIDIxOS40Mjg5MTIgMjkyLjU3Njc3NSAyOTAuNTI4MTA5IDI5MC41MjgxMDkgMCAwIDEgNTExLjk5ODIwMiAwLjAwNzQ4NGEyOTAuNTI4MTA5IDI5MC41MjgxMDkgMCAwIDEgMjkyLjU2OTI5IDI5Mi41NjkyOTEgMjkwLjUyODEwOSAyOTAuNTI4MTA5IDAgMCAxLTI5Mi41NjkyOSAyOTIuNTY5Mjl6IG0wLTQ0OS4wNTk4NDFBMTUzLjc2ODk3NiAxNTMuNzY4OTc2IDAgMCAwIDM1NS41MDc2NTEgMjkyLjU3Njc3NWExNTMuNzY4OTc2IDE1My43Njg5NzYgMCAwIDAgMTU2LjQ5MDU1MSAxNTYuNDkwNTUgMTUzLjc2ODk3NiAxNTMuNzY4OTc2IDAgMCAwIDE1Ni40OTA1NS0xNTYuNDkwNTVBMTUzLjc2ODk3NiAxNTMuNzY4OTc2IDAgMCAwIDUxMS45OTgyMDIgMTM2LjA4NjIyNHoiLz48L3N2Zz4=;strokeColor=#E6D7C2;fontSize=28;fontColor=#808080;fillColor=#E6D7C2;" parent="1" vertex="1">
          <mxGeometry x="772" y="746" width="42" height="42" as="geometry" />
        </mxCell>
        <mxCell id="TGPx2V8O0Z7DVdudsgvW-46" value="" style="shape=flexArrow;endArrow=classic;html=1;rounded=0;fontSize=28;fontColor=#808080;width=9.18032786885246;endSize=4.6;strokeColor=none;fillColor=#4A919B;" parent="1" edge="1">
          <mxGeometry width="50" height="50" relative="1" as="geometry">
            <mxPoint x="792.84" y="801" as="sourcePoint" />
            <mxPoint x="792.84" y="831" as="targetPoint" />
          </mxGeometry>
        </mxCell>
        <mxCell id="TGPx2V8O0Z7DVdudsgvW-47" value="&lt;font color=&quot;#4a919b&quot; style=&quot;font-size: 24px;&quot;&gt;3.用CA公钥&lt;br&gt;解密证书&lt;/font&gt;" style="text;html=1;strokeColor=none;fillColor=none;align=center;verticalAlign=middle;whiteSpace=wrap;rounded=0;fontSize=28;fontColor=#808080;" parent="1" vertex="1">
          <mxGeometry x="628" y="846.6600000000001" width="144" height="30" as="geometry" />
        </mxCell>
        <mxCell id="TGPx2V8O0Z7DVdudsgvW-48" value="" style="shape=flexArrow;endArrow=classic;html=1;rounded=0;fontSize=28;fontColor=#808080;width=9.18032786885246;endSize=4.6;strokeColor=none;fillColor=#4A919B;" parent="1" edge="1">
          <mxGeometry width="50" height="50" relative="1" as="geometry">
            <mxPoint x="749" y="766" as="sourcePoint" />
            <mxPoint x="776.3800000000001" y="766" as="targetPoint" />
          </mxGeometry>
        </mxCell>
        <mxCell id="TGPx2V8O0Z7DVdudsgvW-49" value="" style="rounded=1;whiteSpace=wrap;html=1;strokeColor=default;fillColor=#FCFBF8;" parent="1" vertex="1">
          <mxGeometry x="609" y="907" width="602" height="152" as="geometry" />
        </mxCell>
        <mxCell id="TGPx2V8O0Z7DVdudsgvW-50" value="&lt;font style=&quot;font-size: 30px;&quot;&gt;Client Key Exchange&lt;/font&gt;" style="text;html=1;strokeColor=none;fillColor=none;align=center;verticalAlign=middle;whiteSpace=wrap;rounded=0;fontColor=#4A919B;" parent="1" vertex="1">
          <mxGeometry x="763.5" y="913" width="307" height="30" as="geometry" />
        </mxCell>
        <mxCell id="TGPx2V8O0Z7DVdudsgvW-51" value="" style="shape=image;verticalLabelPosition=bottom;verticalAlign=top;imageAspect=0;aspect=fixed;image=data:image/svg+xml,PHN2ZyB4bWxuczp4bGluaz0iaHR0cDovL3d3dy53My5vcmcvMTk5OS94bGluayIgeG1sbnM9Imh0dHA6Ly93d3cudzMub3JnLzIwMDAvc3ZnIiBoZWlnaHQ9IjIwMCIgd2lkdGg9IjIwMCIgdmVyc2lvbj0iMS4xIiB2aWV3Qm94PSIwIDAgMTAyNCAxMDI0IiBjbGFzcz0iaWNvbiI+PHBhdGggZmlsbD0iIzRBOTE5QiIgZD0iTTMxMi44ODg4ODkgOTk1LjU1NTU1NmMtMTcuMDY2NjY3IDAtMjguNDQ0NDQ0LTUuNjg4ODg5LTM5LjgyMjIyMi0xNy4wNjY2NjctMjIuNzU1NTU2LTIyLjc1NTU1Ni0xNy4wNjY2NjctNTYuODg4ODg5IDUuNjg4ODg5LTc5LjY0NDQ0NWwzNjQuMDg4ODg4LTMyOS45NTU1NTVjMTEuMzc3Nzc4LTExLjM3Nzc3OCAxNy4wNjY2NjctMjIuNzU1NTU2IDE3LjA2NjY2Ny0zNC4xMzMzMzMgMC0xMS4zNzc3NzgtNS42ODg4ODktMjIuNzU1NTU2LTE3LjA2NjY2Ny0zNC4xMzMzMzRMMjczLjA2NjY2NyAxODcuNzMzMzMzYy0yMi43NTU1NTYtMjIuNzU1NTU2LTI4LjQ0NDQ0NC01Ni44ODg4ODktNS42ODg4ODktNzkuNjQ0NDQ0IDIyLjc1NTU1Ni0yMi43NTU1NTYgNTYuODg4ODg5LTI4LjQ0NDQ0NCA3OS42NDQ0NDQtNS42ODg4ODlsMzY0LjA4ODg4OSAzMTIuODg4ODg5YzM0LjEzMzMzMyAyOC40NDQ0NDQgNTYuODg4ODg5IDczLjk1NTU1NiA1Ni44ODg4ODkgMTE5LjQ2NjY2N3MtMTcuMDY2NjY3IDg1LjMzMzMzMy01MS4yIDExOS40NjY2NjZsLTM2NC4wODg4ODkgMzI5Ljk1NTU1NmMtMTEuMzc3Nzc4IDUuNjg4ODg5LTI4LjQ0NDQ0NCAxMS4zNzc3NzgtMzkuODIyMjIyIDExLjM3Nzc3OHoiLz48L3N2Zz4=" parent="1" vertex="1">
          <mxGeometry x="883" y="976" width="54" height="54" as="geometry" />
        </mxCell>
        <mxCell id="TGPx2V8O0Z7DVdudsgvW-52" value="&lt;font style=&quot;font-size: 21px;&quot;&gt;pre_master&lt;/font&gt;" style="text;html=1;strokeColor=none;fillColor=none;align=center;verticalAlign=middle;whiteSpace=wrap;rounded=0;fontColor=#4A919B;" parent="1" vertex="1">
          <mxGeometry x="428.5" y="930" width="170" height="30" as="geometry" />
        </mxCell>
        <mxCell id="TGPx2V8O0Z7DVdudsgvW-53" value="" style="shape=image;verticalLabelPosition=bottom;verticalAlign=top;imageAspect=0;aspect=fixed;image=data:image/svg+xml,PHN2ZyB4bWxuczp4bGluaz0iaHR0cDovL3d3dy53My5vcmcvMTk5OS94bGluayIgeG1sbnM9Imh0dHA6Ly93d3cudzMub3JnLzIwMDAvc3ZnIiBoZWlnaHQ9IjIwMCIgd2lkdGg9IjIwMCIgdmVyc2lvbj0iMS4xIiB2aWV3Qm94PSIwIDAgMTAyNCAxMDI0IiBjbGFzcz0iaWNvbiI+PHBhdGggZmlsbD0iIzRBOTE5QiIgZD0iTTQyMS4zNzYgNDgxLjI4czExNy4yNDggMjQuNTc2IDE3NS4xMDQtOC43MDRjMCAwLTg5LjYgNzAuMTQ0LTg5LjYgMTY2LjQgMC41MTItMC41MTItOC4xOTItMTIxLjM0NC04NS41MDQtMTU3LjY5NnpNNDM4Ljc4NCA5NjkuMjE2czY4LjYwOCA2LjY1NiA2OC42MDgtODAuODk2YzAgMCAzLjA3MiA4OC41NzYgNjUuMDI0IDc4LjMzNiAwIDAuNTEyLTUwLjY4OCAyMi4wMTYtMTMzLjYzMiAyLjU2ek0xNjEuMjggMjM4LjA4cy0zMC4yMDggNjUuNTM2IDExLjI2NCA5MS42NDhjMCAwLTY3LjA3Mi0xNy40MDgtODEuNDA4IDM3LjM3NiAwIDAgOC43MDQtODIuOTQ0IDcwLjE0NC0xMjkuMDI0ek04NTcuNiAyMjcuMzI4czQ5LjE1MiA1MC4xNzYgMS4wMjQgODEuNDA4YzAgMCA1OC44OC0xOC40MzIgNjYuNTYgMzYuMzUyIDAgMCA1LjEyLTY5LjYzMi02Ny41ODQtMTE3Ljc2eiIvPjxwYXRoIGZpbGw9IiM0QTkxOUIiIGQ9Ik00NDMuMzkyIDk3MC43NTJjLTUuNjMyIDAtMTAuNzUyLTEuMDI0LTE1LjM2LTMuMDcybC0yNzAuODQ4LTE1Ny4xODQtMS41MzYtMS4wMjRzLTEuMDI0LTEuMDI0LTQuNjA4LTIuNTZjLTUxLjItMjkuMTg0LTYyLjk3Ni05NC4yMDgtNjUuNTM2LTEyMC44MzJWMzg2LjU2YzAtMy4wNzIgMC41MTItNy4xNjggMS4wMjQtMTEuMjY0bDAuNTEyLTMuNTg0IDEuMDI0LTIuNTZjMTkuNDU2LTUwLjY4OCA3Ni44LTUxLjIgMTAzLjkzNi00NC4wMzJsLTEuNTM2IDUuNjMyIDQuMDk2LTYuMTQ0TDQ3Ni4xNiA0ODYuNGwxOC45NDQgMzcuODg4YzIwLjk5MiAzNi44NjQgMjkuMTg0IDc3LjgyNCAzMi43NjggOTkuODR2MjU4LjA0OGMtNC42MDggNTYuMzItMzYuODY0IDc2LjI4OC01NS44MDggODIuOTQ0LTEuMDI0IDAuNTEyLTE1LjM2IDUuNjMyLTI4LjY3MiA1LjYzMnogbS0yNjIuMTQ0LTE5Ni4wOTZsMjYzLjE2OCAxNTIuNTc2YzEyLjI4OC0wLjUxMiAzNi44NjQtNi42NTYgNDAuNDQ4LTQ4LjEyOHYtMjUwLjM2OGMtNC42MDgtMzEuNzQ0LTIwLjk5Mi0xMDMuOTM2LTcyLjE5Mi0xMjhMMzIyLjU2IDQ0NS40NGwxLjUzNiAzLjA3Mi0xNDIuMzM2LTgyLjQzMmMtMi4wNDgtMC41MTItNDAuNDQ4LTkuMjE2LTUyLjczNiAxNS44NzItMC41MTIgMi41Ni0wLjUxMiA0LjYwOC0wLjUxMiA2LjE0NHYyOTQuNGMxLjUzNiAxNi44OTYgOS43MjggNjcuMDcyIDQzLjUyIDg2LjUyOCAzLjU4NCAyLjA0OCA2LjY1NiA0LjA5NiA5LjIxNiA1LjYzMnoiLz48cGF0aCBmaWxsPSIjNEE5MTlCIiBkPSJNODM3LjYzMiAyMTIuOTkyYzYuNjU2IDQuMDk2IDEyLjggNy4xNjggMTguNDMyIDEwLjc1MmwxLjUzNiAxLjAyNCAxLjUzNiAxLjUzNmM1LjEyIDQuMDk2IDEwLjc1MiA5LjIxNiAxNi4zODQgMTUuMzYgNi4xNDQgMTEuNzc2IDUuNjMyIDMzLjI4IDQuNjA4IDQ5LjE1Mi0xLjAyNCAxMi4yODgtNi42NTYgMzAuMjA4LTI2LjYyNCA0NC41NDRsLTEuMDI0IDAuNTEyLTI0Ny44MDggMTU2LjY3MmMtMjYuNjI0IDE0LjMzNi02Mi45NzYgMTguNDMyLTk2LjI1NiAxOC40MzItNDAuOTYgMC03Ny44MjQtNi42NTYtODkuMDg4LTguNzA0bC0zLjA3Mi0wLjUxMi0yNDUuMjQ4LTE0Mi4zMzZjLTM5LjQyNC0yOS42OTYtMjguMTYtODUuNTA0LTE1LjM2LTExMy42NjRsMi41Ni02LjE0NCAyNjMuNjgtMTY2LjkxMmMyOS4xODQtMTQuMzM2IDEwNC40NDgtNDMuMDA4IDE3My4wNTYtMS4wMjQgMy41ODQgMi41NiA1OC4zNjggMzQuMzA0IDExOS4yOTYgNjkuNjMyTTQzMS42MTYgNDYwLjhjNDAuNDQ4IDcuMTY4IDExNC4xNzYgMTMuODI0IDE1Mi41NzYtNi4xNDRsMjQ0LjczNi0xNTUuMTM2YzcuMTY4LTUuNjMyIDguMTkyLTEwLjI0IDguNzA0LTEyLjggMS4wMjQtMTEuMjY0LTkuNzI4LTI2LjYyNC0xNS4zNi0zMi43NjgtNTUuODA4LTMyLjI1Ni0yNDMuNzEyLTE0MS4zMTItMjUwLjM2OC0xNDUuNDA4LTQ5LjY2NC0zMC43Mi0xMDcuMDA4LTkuMjE2LTEzMC4wNDggMi41NkwxOTIuNTEyIDI2OC44Yy00LjA5NiAxMi4yODgtMTIuMjg4IDQyLjQ5NiAzLjU4NCA1NS44MDhsMjM1LjUyIDEzNi4xOTJ6Ii8+PHBhdGggZmlsbD0iIzRBOTE5QiIgZD0iTTgzMS40ODggMjk5LjAwOGM0LjA5Ni0xLjAyNCAzOC40LTExLjI2NCA2Ni4wNDggNi4xNDQgNy4xNjggNC42MDggMTcuOTIgMTEuNzc2IDI0LjA2NCAyNC41NzYgMS4wMjQgNS42MzIgNC4wOTYgMTAuNzUyIDQuNjA4IDE2Ljg5NnYyLjA0OGwtMS4wMjQgMzIzLjA3MmMtNS4xMiAzNS4zMjgtMjIuNTI4IDkxLjY0OC03Ny4zMTIgMTI1LjQ0bC01LjEyIDMuNTg0aC0xLjAyNGwtMjYyLjE0NCAxNjUuODg4LTQuNjA4IDAuNTEyYy00LjA5NiAwLjUxMi04LjcwNCAxLjAyNC0xMi44IDEuMDI0LTE1Ljg3MiAwLTMwLjIwOC01LjEyLTQxLjk4NC0xNC44NDgtMjQuNTc2LTIwLjQ4LTMyLjc2OC01NS44MDgtMzUuMzI4LTczLjcyOGwtMS4wMjQtMjUyLjkyOGgxLjUzNmM2LjE0NC05Ni43NjggODguNTc2LTE2NC44NjQgOTYuNzY4LTE3MS4wMDhsLTAuNTEyLTAuNTEyTDgyOS40NCAyOTkuNTJtLTMwMS4wNTYgNTY3LjgwOGMwLjUxMiAxMC4yNCA1LjEyIDQxLjQ3MiAxOS45NjggNTMuNzYgMy4wNzIgMi41NiA3LjY4IDUuNjMyIDE2LjM4NCA1LjEybDI2NC43MDQtMTY3LjkzNmM1Ni4zMi0zOC40IDUzLjc2LTExNS43MTIgNTMuNzYtMTE2LjIyNGwtMC41MTItMzIuMjU2IDEuMDI0LTI1MC4zNjhoLTAuNTEyYy0xLjUzNi0xMi44LTcuMTY4LTE2LjM4NC04LjcwNC0xNy40MDgtOC43MDQtNS42MzItMjMuNTUyLTMuMDcyLTI4LjY3Mi0yLjA0OGwtMjM1LjUyIDE0OC45OTJjLTEuMDI0IDAuNTEyLTgwLjg5NiA2NS4wMjQtODAuODk2IDE0OS41MDRoLTEuNTM2bDAuNTEyIDIyOC44NjR6TTQzNS4yIDI2NC4xOTJjMCAyNy42NDggMzEuNzQ0IDUwLjE3NiA3MS4xNjggNTAuMTc2czcxLjE2OC0yMi41MjggNzEuMTY4LTUwLjE3Ni0zMS43NDQtNTAuMTc2LTcxLjE2OC01MC4xNzZTNDM1LjIgMjM2LjU0NCA0MzUuMiAyNjQuMTkyeiIvPjxwYXRoIGZpbGw9IiM0QTkxOUIiIGQ9Ik02NjMuNTUyIDc4Mi44NDhjMCAzMC43Mi0yMi41MjggNjcuMDcyLTQ5LjY2NCA4MC4zODQtMjcuNjQ4IDEzLjgyNC01MC4xNzYtMC41MTItNTAuMTc2LTMxLjIzMnMyMi41MjgtNjcuMDcyIDUwLjE3Ni04MC4zODRjMjcuMTM2LTEzLjgyNCA0OS42NjQgMCA0OS42NjQgMzEuMjMyek03NjAuMzIgNjAyLjYyNGMwIDMwLjcyLTIyLjUyOCA2Ny4wNzItNDkuNjY0IDgwLjM4NC0yNy42NDggMTMuODI0LTQ5LjY2NC0wLjUxMi00OS42NjQtMzEuMjMyczIyLjUyOC02Ny4wNzIgNDkuNjY0LTgwLjM4NGMyNy4xMzYtMTMuODI0IDQ5LjY2NCAwLjUxMiA0OS42NjQgMzEuMjMyek04NjcuODQgNDI4LjAzMmMwIDMwLjcyLTIyLjUyOCA2Ny4wNzItNDkuNjY0IDgwLjM4NC0yNy42NDggMTMuODI0LTUwLjE3Ni0wLjUxMi01MC4xNzYtMzEuMjMyczIyLjUyOC02Ny4wNzIgNTAuMTc2LTgwLjM4NGMyNy4xMzYtMTMuODI0IDQ5LjY2NCAwIDQ5LjY2NCAzMS4yMzJ6TTI3MC44NDggNTM4LjExMmMwIDMwLjcyLTIyLjAxNiA0MS45ODQtNDguNjQgMjQuNTc2LTI3LjEzNi0xNi44OTYtNDguNjQtNTUuODA4LTQ4LjY0LTg2LjUyOCAwLTMwLjcyIDIyLjAxNi00MS45ODQgNDguNjQtMjQuNTc2IDI2LjYyNCAxNi44OTYgNDguNjQgNTUuODA4IDQ4LjY0IDg2LjUyOHpNNDMyLjEyOCA4MjMuMjk2YzAgMzAuNzItMjIuMDE2IDQxLjk4NC00OC42NCAyNC41NzYtMjYuNjI0LTE3LjQwOC00OC42NC01NS44MDgtNDguNjQtODYuNTI4IDAtMzAuNzIgMjIuMDE2LTQxLjk4NCA0OC42NC0yNC41NzYgMjYuNjI0IDE2Ljg5NiA0OC42NCA1NS44MDggNDguNjQgODYuNTI4eiIvPjwvc3ZnPg==" parent="1" vertex="1">
          <mxGeometry x="399" y="917" width="56" height="56" as="geometry" />
        </mxCell>
        <mxCell id="TGPx2V8O0Z7DVdudsgvW-44" value="" style="shape=image;verticalLabelPosition=bottom;verticalAlign=top;imageAspect=0;aspect=fixed;image=data:image/svg+xml,PHN2ZyB4bWxuczp4bGluaz0iaHR0cDovL3d3dy53My5vcmcvMTk5OS94bGluayIgeG1sbnM9Imh0dHA6Ly93d3cudzMub3JnLzIwMDAvc3ZnIiBoZWlnaHQ9IjIwMCIgd2lkdGg9IjIwMCIgdmVyc2lvbj0iMS4xIiB2aWV3Qm94PSIwIDAgMTAyNCAxMDI0IiBjbGFzcz0iaWNvbiI+PHBhdGggZmlsbD0iIzUzNUU4MCIgZD0iTTQ0Ni42ODA0MDcgNTEzLjcwNDcyNmgxMzYuMDc4NzM5djUxMC4yOTUyNzRoLTEzNi4wNzg3Mzl6Ii8+PHBhdGggZmlsbD0iIzUzNUU4MCIgZD0iTTUzMi40MTAwMTMgNjY2Ljc5MzMwOGgxMTUuNjY2OTI4djEzNi4wNzg3NEg1MzIuNDEwMDEzek01MzIuNDEwMDEzIDg0My42OTU2N2gxNDkuNjg2NjEzdjEzNi4wNzg3NEg1MzIuNDEwMDEzek01MTEuOTk4MjAyIDU4NS4xNDYwNjVBMjkwLjUyODEwOSAyOTAuNTI4MTA5IDAgMCAxIDIxOS40Mjg5MTIgMjkyLjU3Njc3NSAyOTAuNTI4MTA5IDI5MC41MjgxMDkgMCAwIDEgNTExLjk5ODIwMiAwLjAwNzQ4NGEyOTAuNTI4MTA5IDI5MC41MjgxMDkgMCAwIDEgMjkyLjU2OTI5IDI5Mi41NjkyOTEgMjkwLjUyODEwOSAyOTAuNTI4MTA5IDAgMCAxLTI5Mi41NjkyOSAyOTIuNTY5Mjl6IG0wLTQ0OS4wNTk4NDFBMTUzLjc2ODk3NiAxNTMuNzY4OTc2IDAgMCAwIDM1NS41MDc2NTEgMjkyLjU3Njc3NWExNTMuNzY4OTc2IDE1My43Njg5NzYgMCAwIDAgMTU2LjQ5MDU1MSAxNTYuNDkwNTUgMTUzLjc2ODk3NiAxNTMuNzY4OTc2IDAgMCAwIDE1Ni40OTA1NS0xNTYuNDkwNTVBMTUzLjc2ODk3NiAxNTMuNzY4OTc2IDAgMCAwIDUxMS45OTgyMDIgMTM2LjA4NjIyNHoiLz48L3N2Zz4=;strokeColor=#E6D7C2;fontSize=28;fontColor=#808080;fillColor=#E6D7C2;" parent="1" vertex="1">
          <mxGeometry x="401" y="833.0000000000002" width="52" height="52" as="geometry" />
        </mxCell>
        <mxCell id="TGPx2V8O0Z7DVdudsgvW-58" value="" style="shape=flexArrow;endArrow=classic;html=1;rounded=0;fontSize=28;fontColor=#808080;width=9.18032786885246;endSize=4.6;strokeColor=none;fillColor=#535E80;exitX=0.021;exitY=0.411;exitDx=0;exitDy=0;exitPerimeter=0;" parent="1" edge="1">
          <mxGeometry width="50" height="50" relative="1" as="geometry">
            <mxPoint x="622.0240000000001" y="858.99" as="sourcePoint" />
            <mxPoint x="579" y="859" as="targetPoint" />
          </mxGeometry>
        </mxCell>
        <mxCell id="TGPx2V8O0Z7DVdudsgvW-60" value="" style="shape=image;verticalLabelPosition=bottom;labelBackgroundColor=default;verticalAlign=top;aspect=fixed;imageAspect=0;image=data:image/svg+xml,PHN2ZyB4bWxuczp4bGluaz0iaHR0cDovL3d3dy53My5vcmcvMTk5OS94bGluayIgeG1sbnM9Imh0dHA6Ly93d3cudzMub3JnLzIwMDAvc3ZnIiBoZWlnaHQ9IjIwMCIgd2lkdGg9IjIwMCIgdmVyc2lvbj0iMS4xIiB2aWV3Qm94PSIwIDAgMTAyNCAxMDI0IiBjbGFzcz0iaWNvbiI+PHBhdGggZmlsbD0iIzUzNUU4MCIgZD0iTTkyNS42OTYgMzg0cTE5LjQ1NiAwIDM3LjM3NiA3LjY4dDMwLjcyIDIwLjQ4IDIwLjQ4IDMwLjcyIDcuNjggMzcuMzc2cTAgMjAuNDgtNy42OCAzNy44ODh0LTIwLjQ4IDMwLjIwOC0zMC43MiAyMC40OC0zNy4zNzYgNy42OGwtMjg3Ljc0NCAwIDAgMjg3Ljc0NHEwIDIwLjQ4LTcuNjggMzcuODg4dC0yMC40OCAzMC4yMDgtMzAuNzIgMjAuNDgtMzcuMzc2IDcuNjhxLTIwLjQ4IDAtMzcuODg4LTcuNjh0LTMwLjIwOC0yMC40OC0yMC40OC0zMC4yMDgtNy42OC0zNy44ODhsMC0yODcuNzQ0LTI4Ny43NDQgMHEtMjAuNDggMC0zNy44ODgtNy42OHQtMzAuMjA4LTIwLjQ4LTIwLjQ4LTMwLjIwOC03LjY4LTM3Ljg4OHEwLTE5LjQ1NiA3LjY4LTM3LjM3NnQyMC40OC0zMC43MiAzMC4yMDgtMjAuNDggMzcuODg4LTcuNjhsMjg3Ljc0NCAwIDAtMjg3Ljc0NHEwLTE5LjQ1NiA3LjY4LTM3LjM3NnQyMC40OC0zMC43MiAzMC4yMDgtMjAuNDggMzcuODg4LTcuNjhxMzkuOTM2IDAgNjguMDk2IDI4LjE2dDI4LjE2IDY4LjA5NmwwIDI4Ny43NDQgMjg3Ljc0NCAweiIvPjwvc3ZnPg==;" parent="1" vertex="1">
          <mxGeometry x="472" y="895" width="30" height="30" as="geometry" />
        </mxCell>
        <mxCell id="TGPx2V8O0Z7DVdudsgvW-61" value="&lt;font color=&quot;#535e80&quot; style=&quot;font-size: 21px;&quot;&gt;服务器公钥&lt;/font&gt;" style="text;html=1;strokeColor=none;fillColor=none;align=center;verticalAlign=middle;whiteSpace=wrap;rounded=0;fontColor=#4A919B;" parent="1" vertex="1">
          <mxGeometry x="455" y="847.6600000000001" width="117" height="29" as="geometry" />
        </mxCell>
        <mxCell id="TGPx2V8O0Z7DVdudsgvW-62" value="" style="shape=flexArrow;endArrow=classic;html=1;rounded=0;fontSize=28;fontColor=#808080;width=9.18032786885246;endSize=4.6;strokeColor=none;fillColor=#4A919B;" parent="1" edge="1">
          <mxGeometry width="50" height="50" relative="1" as="geometry">
            <mxPoint x="491.9200000000001" y="975.9999999999998" as="sourcePoint" />
            <mxPoint x="535.08" y="1008" as="targetPoint" />
            <Array as="points">
              <mxPoint x="492.0799999999999" y="1008" />
            </Array>
          </mxGeometry>
        </mxCell>
        <mxCell id="TGPx2V8O0Z7DVdudsgvW-63" value="&lt;font style=&quot;font-size: 28px;&quot;&gt;pre_master_key&lt;/font&gt;" style="text;html=1;strokeColor=none;fillColor=none;align=center;verticalAlign=middle;whiteSpace=wrap;rounded=0;fontColor=#4A919B;" parent="1" vertex="1">
          <mxGeometry x="659" y="985.5" width="230" height="30" as="geometry" />
        </mxCell>
        <mxCell id="TGPx2V8O0Z7DVdudsgvW-65" value="" style="shape=image;verticalLabelPosition=bottom;labelBackgroundColor=default;verticalAlign=top;aspect=fixed;imageAspect=0;image=data:image/svg+xml,PHN2ZyB4bWxuczp4bGluaz0iaHR0cDovL3d3dy53My5vcmcvMTk5OS94bGluayIgeG1sbnM9Imh0dHA6Ly93d3cudzMub3JnLzIwMDAvc3ZnIiBoZWlnaHQ9IjIwMCIgd2lkdGg9IjIwMCIgdmVyc2lvbj0iMS4xIiB2aWV3Qm94PSIwIDAgMTAyNCAxMDI0IiBjbGFzcz0iaWNvbiI+PHBhdGggZmlsbD0iIzRBOTE5QiIgZD0iTTU2Mi4zOTMyOCAyOTMuNjk2YTMyIDMyIDAgMCAxLTE0LjMzNiA2Mi40IDE2MCAxNjAgMCAwIDAtMTg1LjA1NiAyMTQuMzM2IDMyIDMyIDAgMSAxLTU5LjU4NCAyMy4zMjggMjI0IDIyNCAwIDAgMSAyNTguOTc2LTMwMC4wNjR6IG0tMTAwLjI1NiA0MzYuNzA0YTMyIDMyIDAgMCAxIDE0LjIwOC02Mi40IDE2MCAxNjAgMCAwIDAgMTg4LjIyNC0yMDQuNDggMzIgMzIgMCAxIDEgNjAuOTkyLTE5LjMyOCAyMjQgMjI0IDAgMCAxLTI2My40NTYgMjg2LjIwOHoiLz48cGF0aCBmaWxsPSIjNEE5MTlCIiBkPSJNMjEzLjQ2NTI4IDY3Ni4wOTZhMzIgMzIgMCAxIDEtNDIuMzM2IDQ4QzEzMi4wNTcyOCA2ODkuNiA3Ny40OTcyOCA2MjUuNTY4IDYuNDU3MjggNTMxLjI2NGEzMiAzMiAwIDAgMS0wLjk5Mi0zNy4xMkMxNTQuMTY5MjggMjcyLjcwNCAzMjMuMjI1MjggMTYwIDUxMi4wMjUyOCAxNjBjNTIuNzA0IDAgMTA0LjA5NiA4LjgzMiAxNTQuMDE2IDI2LjQ5NmEzMiAzMiAwIDAgMS0yMS4zNDQgNjAuMzUyQTM5NC43NTIgMzk0Ljc1MiAwIDAgMCA1MTIuMDI1MjggMjI0Yy0xNTkuNTg0IDAtMzA2LjI0IDk0LjQ2NC00NDAuNTc2IDI4Ny4wNCA2MS44MjQgODEuMDU2IDEwOS40NCAxMzYuMjg4IDE0Mi4wNDggMTY1LjA1NnogbTU5OS44MDgtMzI1Ljc2YTMyIDMyIDAgMCAxIDQyLjU5Mi00Ny44MDhjMzguMzY4IDM0LjI0IDkxLjk2OCA5Ny4zNzYgMTYxLjcyOCAxOTAuMjRhMzIgMzIgMCAwIDEgMC45OTIgMzcuMDg4Qzg2OS44ODEyOCA3NTEuMjk2IDcwMC44MjUyOCA4NjQgNTEyLjAyNTI4IDg2NGMtMzcuODI0IDAtNzQuOTQ0LTQuNTQ0LTExMS4zNi0xMy42NjRhMzIgMzIgMCAwIDEgMTUuNDg4LTYyLjA4YzMxLjM2IDcuODQgNjMuMjY0IDExLjc0NCA5NS44NzIgMTEuNzQ0IDE1OS41ODQgMCAzMDYuMjQtOTQuNDY0IDQ0MC41NzYtMjg3LjA0LTYwLjY0LTc5LjcxMi0xMDcuMzI4LTEzNC4xMTItMTM5LjMyOC0xNjIuNjU2ek04MjMuOTI5MjggMTIyLjkxMmEzMiAzMiAwIDAgMSA0OC4xOTIgNDIuMTc2bC02NzIgNzY4YTMyIDMyIDAgMCAxLTQ4LjE5Mi00Mi4xNzZsNjcyLTc2OHoiLz48L3N2Zz4=;" parent="1" vertex="1">
          <mxGeometry x="622" y="982.5" width="41" height="41" as="geometry" />
        </mxCell>
        <mxCell id="TGPx2V8O0Z7DVdudsgvW-67" value="" style="shape=image;verticalLabelPosition=bottom;verticalAlign=top;imageAspect=0;aspect=fixed;image=data:image/svg+xml,PHN2ZyB4bWxuczp4bGluaz0iaHR0cDovL3d3dy53My5vcmcvMTk5OS94bGluayIgeG1sbnM9Imh0dHA6Ly93d3cudzMub3JnLzIwMDAvc3ZnIiBoZWlnaHQ9IjIwMCIgd2lkdGg9IjIwMCIgdmVyc2lvbj0iMS4xIiB2aWV3Qm94PSIwIDAgMTAyNCAxMDI0IiBjbGFzcz0iaWNvbiI+PHBhdGggZmlsbD0iIzUzNUU4MCIgZD0iTTQyMS4zNzYgNDgxLjI4czExNy4yNDggMjQuNTc2IDE3NS4xMDQtOC43MDRjMCAwLTg5LjYgNzAuMTQ0LTg5LjYgMTY2LjQgMC41MTItMC41MTItOC4xOTItMTIxLjM0NC04NS41MDQtMTU3LjY5NnpNNDM4Ljc4NCA5NjkuMjE2czY4LjYwOCA2LjY1NiA2OC42MDgtODAuODk2YzAgMCAzLjA3MiA4OC41NzYgNjUuMDI0IDc4LjMzNiAwIDAuNTEyLTUwLjY4OCAyMi4wMTYtMTMzLjYzMiAyLjU2ek0xNjEuMjggMjM4LjA4cy0zMC4yMDggNjUuNTM2IDExLjI2NCA5MS42NDhjMCAwLTY3LjA3Mi0xNy40MDgtODEuNDA4IDM3LjM3NiAwIDAgOC43MDQtODIuOTQ0IDcwLjE0NC0xMjkuMDI0ek04NTcuNiAyMjcuMzI4czQ5LjE1MiA1MC4xNzYgMS4wMjQgODEuNDA4YzAgMCA1OC44OC0xOC40MzIgNjYuNTYgMzYuMzUyIDAgMCA1LjEyLTY5LjYzMi02Ny41ODQtMTE3Ljc2eiIvPjxwYXRoIGZpbGw9IiM1MzVFODAiIGQ9Ik00NDMuMzkyIDk3MC43NTJjLTUuNjMyIDAtMTAuNzUyLTEuMDI0LTE1LjM2LTMuMDcybC0yNzAuODQ4LTE1Ny4xODQtMS41MzYtMS4wMjRzLTEuMDI0LTEuMDI0LTQuNjA4LTIuNTZjLTUxLjItMjkuMTg0LTYyLjk3Ni05NC4yMDgtNjUuNTM2LTEyMC44MzJWMzg2LjU2YzAtMy4wNzIgMC41MTItNy4xNjggMS4wMjQtMTEuMjY0bDAuNTEyLTMuNTg0IDEuMDI0LTIuNTZjMTkuNDU2LTUwLjY4OCA3Ni44LTUxLjIgMTAzLjkzNi00NC4wMzJsLTEuNTM2IDUuNjMyIDQuMDk2LTYuMTQ0TDQ3Ni4xNiA0ODYuNGwxOC45NDQgMzcuODg4YzIwLjk5MiAzNi44NjQgMjkuMTg0IDc3LjgyNCAzMi43NjggOTkuODR2MjU4LjA0OGMtNC42MDggNTYuMzItMzYuODY0IDc2LjI4OC01NS44MDggODIuOTQ0LTEuMDI0IDAuNTEyLTE1LjM2IDUuNjMyLTI4LjY3MiA1LjYzMnogbS0yNjIuMTQ0LTE5Ni4wOTZsMjYzLjE2OCAxNTIuNTc2YzEyLjI4OC0wLjUxMiAzNi44NjQtNi42NTYgNDAuNDQ4LTQ4LjEyOHYtMjUwLjM2OGMtNC42MDgtMzEuNzQ0LTIwLjk5Mi0xMDMuOTM2LTcyLjE5Mi0xMjhMMzIyLjU2IDQ0NS40NGwxLjUzNiAzLjA3Mi0xNDIuMzM2LTgyLjQzMmMtMi4wNDgtMC41MTItNDAuNDQ4LTkuMjE2LTUyLjczNiAxNS44NzItMC41MTIgMi41Ni0wLjUxMiA0LjYwOC0wLjUxMiA2LjE0NHYyOTQuNGMxLjUzNiAxNi44OTYgOS43MjggNjcuMDcyIDQzLjUyIDg2LjUyOCAzLjU4NCAyLjA0OCA2LjY1NiA0LjA5NiA5LjIxNiA1LjYzMnoiLz48cGF0aCBmaWxsPSIjNTM1RTgwIiBkPSJNODM3LjYzMiAyMTIuOTkyYzYuNjU2IDQuMDk2IDEyLjggNy4xNjggMTguNDMyIDEwLjc1MmwxLjUzNiAxLjAyNCAxLjUzNiAxLjUzNmM1LjEyIDQuMDk2IDEwLjc1MiA5LjIxNiAxNi4zODQgMTUuMzYgNi4xNDQgMTEuNzc2IDUuNjMyIDMzLjI4IDQuNjA4IDQ5LjE1Mi0xLjAyNCAxMi4yODgtNi42NTYgMzAuMjA4LTI2LjYyNCA0NC41NDRsLTEuMDI0IDAuNTEyLTI0Ny44MDggMTU2LjY3MmMtMjYuNjI0IDE0LjMzNi02Mi45NzYgMTguNDMyLTk2LjI1NiAxOC40MzItNDAuOTYgMC03Ny44MjQtNi42NTYtODkuMDg4LTguNzA0bC0zLjA3Mi0wLjUxMi0yNDUuMjQ4LTE0Mi4zMzZjLTM5LjQyNC0yOS42OTYtMjguMTYtODUuNTA0LTE1LjM2LTExMy42NjRsMi41Ni02LjE0NCAyNjMuNjgtMTY2LjkxMmMyOS4xODQtMTQuMzM2IDEwNC40NDgtNDMuMDA4IDE3My4wNTYtMS4wMjQgMy41ODQgMi41NiA1OC4zNjggMzQuMzA0IDExOS4yOTYgNjkuNjMyTTQzMS42MTYgNDYwLjhjNDAuNDQ4IDcuMTY4IDExNC4xNzYgMTMuODI0IDE1Mi41NzYtNi4xNDRsMjQ0LjczNi0xNTUuMTM2YzcuMTY4LTUuNjMyIDguMTkyLTEwLjI0IDguNzA0LTEyLjggMS4wMjQtMTEuMjY0LTkuNzI4LTI2LjYyNC0xNS4zNi0zMi43NjgtNTUuODA4LTMyLjI1Ni0yNDMuNzEyLTE0MS4zMTItMjUwLjM2OC0xNDUuNDA4LTQ5LjY2NC0zMC43Mi0xMDcuMDA4LTkuMjE2LTEzMC4wNDggMi41NkwxOTIuNTEyIDI2OC44Yy00LjA5NiAxMi4yODgtMTIuMjg4IDQyLjQ5NiAzLjU4NCA1NS44MDhsMjM1LjUyIDEzNi4xOTJ6Ii8+PHBhdGggZmlsbD0iIzUzNUU4MCIgZD0iTTgzMS40ODggMjk5LjAwOGM0LjA5Ni0xLjAyNCAzOC40LTExLjI2NCA2Ni4wNDggNi4xNDQgNy4xNjggNC42MDggMTcuOTIgMTEuNzc2IDI0LjA2NCAyNC41NzYgMS4wMjQgNS42MzIgNC4wOTYgMTAuNzUyIDQuNjA4IDE2Ljg5NnYyLjA0OGwtMS4wMjQgMzIzLjA3MmMtNS4xMiAzNS4zMjgtMjIuNTI4IDkxLjY0OC03Ny4zMTIgMTI1LjQ0bC01LjEyIDMuNTg0aC0xLjAyNGwtMjYyLjE0NCAxNjUuODg4LTQuNjA4IDAuNTEyYy00LjA5NiAwLjUxMi04LjcwNCAxLjAyNC0xMi44IDEuMDI0LTE1Ljg3MiAwLTMwLjIwOC01LjEyLTQxLjk4NC0xNC44NDgtMjQuNTc2LTIwLjQ4LTMyLjc2OC01NS44MDgtMzUuMzI4LTczLjcyOGwtMS4wMjQtMjUyLjkyOGgxLjUzNmM2LjE0NC05Ni43NjggODguNTc2LTE2NC44NjQgOTYuNzY4LTE3MS4wMDhsLTAuNTEyLTAuNTEyTDgyOS40NCAyOTkuNTJtLTMwMS4wNTYgNTY3LjgwOGMwLjUxMiAxMC4yNCA1LjEyIDQxLjQ3MiAxOS45NjggNTMuNzYgMy4wNzIgMi41NiA3LjY4IDUuNjMyIDE2LjM4NCA1LjEybDI2NC43MDQtMTY3LjkzNmM1Ni4zMi0zOC40IDUzLjc2LTExNS43MTIgNTMuNzYtMTE2LjIyNGwtMC41MTItMzIuMjU2IDEuMDI0LTI1MC4zNjhoLTAuNTEyYy0xLjUzNi0xMi44LTcuMTY4LTE2LjM4NC04LjcwNC0xNy40MDgtOC43MDQtNS42MzItMjMuNTUyLTMuMDcyLTI4LjY3Mi0yLjA0OGwtMjM1LjUyIDE0OC45OTJjLTEuMDI0IDAuNTEyLTgwLjg5NiA2NS4wMjQtODAuODk2IDE0OS41MDRoLTEuNTM2bDAuNTEyIDIyOC44NjR6TTQzNS4yIDI2NC4xOTJjMCAyNy42NDggMzEuNzQ0IDUwLjE3NiA3MS4xNjggNTAuMTc2czcxLjE2OC0yMi41MjggNzEuMTY4LTUwLjE3Ni0zMS43NDQtNTAuMTc2LTcxLjE2OC01MC4xNzZTNDM1LjIgMjM2LjU0NCA0MzUuMiAyNjQuMTkyeiIvPjxwYXRoIGZpbGw9IiM1MzVFODAiIGQ9Ik02NjMuNTUyIDc4Mi44NDhjMCAzMC43Mi0yMi41MjggNjcuMDcyLTQ5LjY2NCA4MC4zODQtMjcuNjQ4IDEzLjgyNC01MC4xNzYtMC41MTItNTAuMTc2LTMxLjIzMnMyMi41MjgtNjcuMDcyIDUwLjE3Ni04MC4zODRjMjcuMTM2LTEzLjgyNCA0OS42NjQgMCA0OS42NjQgMzEuMjMyek03NjAuMzIgNjAyLjYyNGMwIDMwLjcyLTIyLjUyOCA2Ny4wNzItNDkuNjY0IDgwLjM4NC0yNy42NDggMTMuODI0LTQ5LjY2NC0wLjUxMi00OS42NjQtMzEuMjMyczIyLjUyOC02Ny4wNzIgNDkuNjY0LTgwLjM4NGMyNy4xMzYtMTMuODI0IDQ5LjY2NCAwLjUxMiA0OS42NjQgMzEuMjMyek04NjcuODQgNDI4LjAzMmMwIDMwLjcyLTIyLjUyOCA2Ny4wNzItNDkuNjY0IDgwLjM4NC0yNy42NDggMTMuODI0LTUwLjE3Ni0wLjUxMi01MC4xNzYtMzEuMjMyczIyLjUyOC02Ny4wNzIgNTAuMTc2LTgwLjM4NGMyNy4xMzYtMTMuODI0IDQ5LjY2NCAwIDQ5LjY2NCAzMS4yMzJ6TTI3MC44NDggNTM4LjExMmMwIDMwLjcyLTIyLjAxNiA0MS45ODQtNDguNjQgMjQuNTc2LTI3LjEzNi0xNi44OTYtNDguNjQtNTUuODA4LTQ4LjY0LTg2LjUyOCAwLTMwLjcyIDIyLjAxNi00MS45ODQgNDguNjQtMjQuNTc2IDI2LjYyNCAxNi44OTYgNDguNjQgNTUuODA4IDQ4LjY0IDg2LjUyOHpNNDMyLjEyOCA4MjMuMjk2YzAgMzAuNzItMjIuMDE2IDQxLjk4NC00OC42NCAyNC41NzYtMjYuNjI0LTE3LjQwOC00OC42NC01NS44MDgtNDguNjQtODYuNTI4IDAtMzAuNzIgMjIuMDE2LTQxLjk4NCA0OC42NC0yNC41NzYgMjYuNjI0IDE2Ljg5NiA0OC42NCA1NS44MDggNDguNjQgODYuNTI4eiIvPjwvc3ZnPg==" parent="1" vertex="1">
          <mxGeometry x="393" y="697" width="56" height="56" as="geometry" />
        </mxCell>
        <mxCell id="TGPx2V8O0Z7DVdudsgvW-68" value="&lt;font color=&quot;#535e80&quot; style=&quot;font-size: 21px;&quot;&gt;Server Random&lt;/font&gt;" style="text;html=1;strokeColor=none;fillColor=none;align=center;verticalAlign=middle;whiteSpace=wrap;rounded=0;fontColor=#4A919B;" parent="1" vertex="1">
          <mxGeometry x="415" y="710" width="230" height="30" as="geometry" />
        </mxCell>
        <mxCell id="TGPx2V8O0Z7DVdudsgvW-71" value="" style="shape=image;verticalLabelPosition=bottom;verticalAlign=top;imageAspect=0;aspect=fixed;image=data:image/svg+xml,PHN2ZyB4bWxuczp4bGluaz0iaHR0cDovL3d3dy53My5vcmcvMTk5OS94bGluayIgeG1sbnM9Imh0dHA6Ly93d3cudzMub3JnLzIwMDAvc3ZnIiBoZWlnaHQ9IjIwMCIgd2lkdGg9IjIwMCIgdmVyc2lvbj0iMS4xIiB2aWV3Qm94PSIwIDAgMTAyNCAxMDI0IiBjbGFzcz0iaWNvbiI+PHBhdGggZmlsbD0iIzRBOTE5QiIgZD0iTTQyMS4zNzYgNDgxLjI4czExNy4yNDggMjQuNTc2IDE3NS4xMDQtOC43MDRjMCAwLTg5LjYgNzAuMTQ0LTg5LjYgMTY2LjQgMC41MTItMC41MTItOC4xOTItMTIxLjM0NC04NS41MDQtMTU3LjY5NnpNNDM4Ljc4NCA5NjkuMjE2czY4LjYwOCA2LjY1NiA2OC42MDgtODAuODk2YzAgMCAzLjA3MiA4OC41NzYgNjUuMDI0IDc4LjMzNiAwIDAuNTEyLTUwLjY4OCAyMi4wMTYtMTMzLjYzMiAyLjU2ek0xNjEuMjggMjM4LjA4cy0zMC4yMDggNjUuNTM2IDExLjI2NCA5MS42NDhjMCAwLTY3LjA3Mi0xNy40MDgtODEuNDA4IDM3LjM3NiAwIDAgOC43MDQtODIuOTQ0IDcwLjE0NC0xMjkuMDI0ek04NTcuNiAyMjcuMzI4czQ5LjE1MiA1MC4xNzYgMS4wMjQgODEuNDA4YzAgMCA1OC44OC0xOC40MzIgNjYuNTYgMzYuMzUyIDAgMCA1LjEyLTY5LjYzMi02Ny41ODQtMTE3Ljc2eiIvPjxwYXRoIGZpbGw9IiM0QTkxOUIiIGQ9Ik00NDMuMzkyIDk3MC43NTJjLTUuNjMyIDAtMTAuNzUyLTEuMDI0LTE1LjM2LTMuMDcybC0yNzAuODQ4LTE1Ny4xODQtMS41MzYtMS4wMjRzLTEuMDI0LTEuMDI0LTQuNjA4LTIuNTZjLTUxLjItMjkuMTg0LTYyLjk3Ni05NC4yMDgtNjUuNTM2LTEyMC44MzJWMzg2LjU2YzAtMy4wNzIgMC41MTItNy4xNjggMS4wMjQtMTEuMjY0bDAuNTEyLTMuNTg0IDEuMDI0LTIuNTZjMTkuNDU2LTUwLjY4OCA3Ni44LTUxLjIgMTAzLjkzNi00NC4wMzJsLTEuNTM2IDUuNjMyIDQuMDk2LTYuMTQ0TDQ3Ni4xNiA0ODYuNGwxOC45NDQgMzcuODg4YzIwLjk5MiAzNi44NjQgMjkuMTg0IDc3LjgyNCAzMi43NjggOTkuODR2MjU4LjA0OGMtNC42MDggNTYuMzItMzYuODY0IDc2LjI4OC01NS44MDggODIuOTQ0LTEuMDI0IDAuNTEyLTE1LjM2IDUuNjMyLTI4LjY3MiA1LjYzMnogbS0yNjIuMTQ0LTE5Ni4wOTZsMjYzLjE2OCAxNTIuNTc2YzEyLjI4OC0wLjUxMiAzNi44NjQtNi42NTYgNDAuNDQ4LTQ4LjEyOHYtMjUwLjM2OGMtNC42MDgtMzEuNzQ0LTIwLjk5Mi0xMDMuOTM2LTcyLjE5Mi0xMjhMMzIyLjU2IDQ0NS40NGwxLjUzNiAzLjA3Mi0xNDIuMzM2LTgyLjQzMmMtMi4wNDgtMC41MTItNDAuNDQ4LTkuMjE2LTUyLjczNiAxNS44NzItMC41MTIgMi41Ni0wLjUxMiA0LjYwOC0wLjUxMiA2LjE0NHYyOTQuNGMxLjUzNiAxNi44OTYgOS43MjggNjcuMDcyIDQzLjUyIDg2LjUyOCAzLjU4NCAyLjA0OCA2LjY1NiA0LjA5NiA5LjIxNiA1LjYzMnoiLz48cGF0aCBmaWxsPSIjNEE5MTlCIiBkPSJNODM3LjYzMiAyMTIuOTkyYzYuNjU2IDQuMDk2IDEyLjggNy4xNjggMTguNDMyIDEwLjc1MmwxLjUzNiAxLjAyNCAxLjUzNiAxLjUzNmM1LjEyIDQuMDk2IDEwLjc1MiA5LjIxNiAxNi4zODQgMTUuMzYgNi4xNDQgMTEuNzc2IDUuNjMyIDMzLjI4IDQuNjA4IDQ5LjE1Mi0xLjAyNCAxMi4yODgtNi42NTYgMzAuMjA4LTI2LjYyNCA0NC41NDRsLTEuMDI0IDAuNTEyLTI0Ny44MDggMTU2LjY3MmMtMjYuNjI0IDE0LjMzNi02Mi45NzYgMTguNDMyLTk2LjI1NiAxOC40MzItNDAuOTYgMC03Ny44MjQtNi42NTYtODkuMDg4LTguNzA0bC0zLjA3Mi0wLjUxMi0yNDUuMjQ4LTE0Mi4zMzZjLTM5LjQyNC0yOS42OTYtMjguMTYtODUuNTA0LTE1LjM2LTExMy42NjRsMi41Ni02LjE0NCAyNjMuNjgtMTY2LjkxMmMyOS4xODQtMTQuMzM2IDEwNC40NDgtNDMuMDA4IDE3My4wNTYtMS4wMjQgMy41ODQgMi41NiA1OC4zNjggMzQuMzA0IDExOS4yOTYgNjkuNjMyTTQzMS42MTYgNDYwLjhjNDAuNDQ4IDcuMTY4IDExNC4xNzYgMTMuODI0IDE1Mi41NzYtNi4xNDRsMjQ0LjczNi0xNTUuMTM2YzcuMTY4LTUuNjMyIDguMTkyLTEwLjI0IDguNzA0LTEyLjggMS4wMjQtMTEuMjY0LTkuNzI4LTI2LjYyNC0xNS4zNi0zMi43NjgtNTUuODA4LTMyLjI1Ni0yNDMuNzEyLTE0MS4zMTItMjUwLjM2OC0xNDUuNDA4LTQ5LjY2NC0zMC43Mi0xMDcuMDA4LTkuMjE2LTEzMC4wNDggMi41NkwxOTIuNTEyIDI2OC44Yy00LjA5NiAxMi4yODgtMTIuMjg4IDQyLjQ5NiAzLjU4NCA1NS44MDhsMjM1LjUyIDEzNi4xOTJ6Ii8+PHBhdGggZmlsbD0iIzRBOTE5QiIgZD0iTTgzMS40ODggMjk5LjAwOGM0LjA5Ni0xLjAyNCAzOC40LTExLjI2NCA2Ni4wNDggNi4xNDQgNy4xNjggNC42MDggMTcuOTIgMTEuNzc2IDI0LjA2NCAyNC41NzYgMS4wMjQgNS42MzIgNC4wOTYgMTAuNzUyIDQuNjA4IDE2Ljg5NnYyLjA0OGwtMS4wMjQgMzIzLjA3MmMtNS4xMiAzNS4zMjgtMjIuNTI4IDkxLjY0OC03Ny4zMTIgMTI1LjQ0bC01LjEyIDMuNTg0aC0xLjAyNGwtMjYyLjE0NCAxNjUuODg4LTQuNjA4IDAuNTEyYy00LjA5NiAwLjUxMi04LjcwNCAxLjAyNC0xMi44IDEuMDI0LTE1Ljg3MiAwLTMwLjIwOC01LjEyLTQxLjk4NC0xNC44NDgtMjQuNTc2LTIwLjQ4LTMyLjc2OC01NS44MDgtMzUuMzI4LTczLjcyOGwtMS4wMjQtMjUyLjkyOGgxLjUzNmM2LjE0NC05Ni43NjggODguNTc2LTE2NC44NjQgOTYuNzY4LTE3MS4wMDhsLTAuNTEyLTAuNTEyTDgyOS40NCAyOTkuNTJtLTMwMS4wNTYgNTY3LjgwOGMwLjUxMiAxMC4yNCA1LjEyIDQxLjQ3MiAxOS45NjggNTMuNzYgMy4wNzIgMi41NiA3LjY4IDUuNjMyIDE2LjM4NCA1LjEybDI2NC43MDQtMTY3LjkzNmM1Ni4zMi0zOC40IDUzLjc2LTExNS43MTIgNTMuNzYtMTE2LjIyNGwtMC41MTItMzIuMjU2IDEuMDI0LTI1MC4zNjhoLTAuNTEyYy0xLjUzNi0xMi44LTcuMTY4LTE2LjM4NC04LjcwNC0xNy40MDgtOC43MDQtNS42MzItMjMuNTUyLTMuMDcyLTI4LjY3Mi0yLjA0OGwtMjM1LjUyIDE0OC45OTJjLTEuMDI0IDAuNTEyLTgwLjg5NiA2NS4wMjQtODAuODk2IDE0OS41MDRoLTEuNTM2bDAuNTEyIDIyOC44NjR6TTQzNS4yIDI2NC4xOTJjMCAyNy42NDggMzEuNzQ0IDUwLjE3NiA3MS4xNjggNTAuMTc2czcxLjE2OC0yMi41MjggNzEuMTY4LTUwLjE3Ni0zMS43NDQtNTAuMTc2LTcxLjE2OC01MC4xNzZTNDM1LjIgMjM2LjU0NCA0MzUuMiAyNjQuMTkyeiIvPjxwYXRoIGZpbGw9IiM0QTkxOUIiIGQ9Ik02NjMuNTUyIDc4Mi44NDhjMCAzMC43Mi0yMi41MjggNjcuMDcyLTQ5LjY2NCA4MC4zODQtMjcuNjQ4IDEzLjgyNC01MC4xNzYtMC41MTItNTAuMTc2LTMxLjIzMnMyMi41MjgtNjcuMDcyIDUwLjE3Ni04MC4zODRjMjcuMTM2LTEzLjgyNCA0OS42NjQgMCA0OS42NjQgMzEuMjMyek03NjAuMzIgNjAyLjYyNGMwIDMwLjcyLTIyLjUyOCA2Ny4wNzItNDkuNjY0IDgwLjM4NC0yNy42NDggMTMuODI0LTQ5LjY2NC0wLjUxMi00OS42NjQtMzEuMjMyczIyLjUyOC02Ny4wNzIgNDkuNjY0LTgwLjM4NGMyNy4xMzYtMTMuODI0IDQ5LjY2NCAwLjUxMiA0OS42NjQgMzEuMjMyek04NjcuODQgNDI4LjAzMmMwIDMwLjcyLTIyLjUyOCA2Ny4wNzItNDkuNjY0IDgwLjM4NC0yNy42NDggMTMuODI0LTUwLjE3Ni0wLjUxMi01MC4xNzYtMzEuMjMyczIyLjUyOC02Ny4wNzIgNTAuMTc2LTgwLjM4NGMyNy4xMzYtMTMuODI0IDQ5LjY2NCAwIDQ5LjY2NCAzMS4yMzJ6TTI3MC44NDggNTM4LjExMmMwIDMwLjcyLTIyLjAxNiA0MS45ODQtNDguNjQgMjQuNTc2LTI3LjEzNi0xNi44OTYtNDguNjQtNTUuODA4LTQ4LjY0LTg2LjUyOCAwLTMwLjcyIDIyLjAxNi00MS45ODQgNDguNjQtMjQuNTc2IDI2LjYyNCAxNi44OTYgNDguNjQgNTUuODA4IDQ4LjY0IDg2LjUyOHpNNDMyLjEyOCA4MjMuMjk2YzAgMzAuNzItMjIuMDE2IDQxLjk4NC00OC42NCAyNC41NzYtMjYuNjI0LTE3LjQwOC00OC42NC01NS44MDgtNDguNjQtODYuNTI4IDAtMzAuNzIgMjIuMDE2LTQxLjk4NCA0OC42NC0yNC41NzYgMjYuNjI0IDE2Ljg5NiA0OC42NCA1NS44MDggNDguNjQgODYuNTI4eiIvPjwvc3ZnPg==" parent="1" vertex="1">
          <mxGeometry x="1231" y="542" width="56" height="56" as="geometry" />
        </mxCell>
        <mxCell id="TGPx2V8O0Z7DVdudsgvW-72" value="&lt;font style=&quot;font-size: 21px;&quot;&gt;Client Random&lt;/font&gt;" style="text;html=1;strokeColor=none;fillColor=none;align=center;verticalAlign=middle;whiteSpace=wrap;rounded=0;fontColor=#4A919B;" parent="1" vertex="1">
          <mxGeometry x="1296" y="558" width="142" height="30" as="geometry" />
        </mxCell>
        <mxCell id="TGPx2V8O0Z7DVdudsgvW-73" value="" style="shape=image;verticalLabelPosition=bottom;labelBackgroundColor=default;verticalAlign=top;aspect=fixed;imageAspect=0;image=data:image/svg+xml,PHN2ZyB4bWxuczp4bGluaz0iaHR0cDovL3d3dy53My5vcmcvMTk5OS94bGluayIgeG1sbnM9Imh0dHA6Ly93d3cudzMub3JnLzIwMDAvc3ZnIiBoZWlnaHQ9IjIwMCIgd2lkdGg9IjIwMCIgdmVyc2lvbj0iMS4xIiB2aWV3Qm94PSIwIDAgMTAyNCAxMDI0IiBjbGFzcz0iaWNvbiI+PHBhdGggZmlsbD0iI0YxOUM5OSIgZD0iTTQ0Ni42ODA0MDcgNTEzLjcwNDcyNmgxMzYuMDc4NzM5djUxMC4yOTUyNzRoLTEzNi4wNzg3Mzl6Ii8+PHBhdGggZmlsbD0iI0YxOUM5OSIgZD0iTTUzMi40MTAwMTMgNjY2Ljc5MzMwOGgxMTUuNjY2OTI4djEzNi4wNzg3NEg1MzIuNDEwMDEzek01MzIuNDEwMDEzIDg0My42OTU2N2gxNDkuNjg2NjEzdjEzNi4wNzg3NEg1MzIuNDEwMDEzek01MTEuOTk4MjAyIDU4NS4xNDYwNjVBMjkwLjUyODEwOSAyOTAuNTI4MTA5IDAgMCAxIDIxOS40Mjg5MTIgMjkyLjU3Njc3NSAyOTAuNTI4MTA5IDI5MC41MjgxMDkgMCAwIDEgNTExLjk5ODIwMiAwLjAwNzQ4NGEyOTAuNTI4MTA5IDI5MC41MjgxMDkgMCAwIDEgMjkyLjU2OTI5IDI5Mi41NjkyOTEgMjkwLjUyODEwOSAyOTAuNTI4MTA5IDAgMCAxLTI5Mi41NjkyOSAyOTIuNTY5Mjl6IG0wLTQ0OS4wNTk4NDFBMTUzLjc2ODk3NiAxNTMuNzY4OTc2IDAgMCAwIDM1NS41MDc2NTEgMjkyLjU3Njc3NWExNTMuNzY4OTc2IDE1My43Njg5NzYgMCAwIDAgMTU2LjQ5MDU1MSAxNTYuNDkwNTUgMTUzLjc2ODk3NiAxNTMuNzY4OTc2IDAgMCAwIDE1Ni40OTA1NS0xNTYuNDkwNTVBMTUzLjc2ODk3NiAxNTMuNzY4OTc2IDAgMCAwIDUxMS45OTgyMDIgMTM2LjA4NjIyNHoiLz48L3N2Zz4=;" parent="1" vertex="1">
          <mxGeometry x="464" y="1101" width="89.5" height="89.5" as="geometry" />
        </mxCell>
        <mxCell id="TGPx2V8O0Z7DVdudsgvW-74" value="" style="rounded=1;whiteSpace=wrap;html=1;strokeColor=default;fillColor=#FCFBF8;" parent="1" vertex="1">
          <mxGeometry x="609" y="1059" width="602" height="152" as="geometry" />
        </mxCell>
        <mxCell id="TGPx2V8O0Z7DVdudsgvW-75" value="&lt;font style=&quot;font-size: 30px;&quot;&gt;Change Cipher Spec&lt;/font&gt;" style="text;html=1;strokeColor=none;fillColor=none;align=center;verticalAlign=middle;whiteSpace=wrap;rounded=0;fontColor=#4A919B;" parent="1" vertex="1">
          <mxGeometry x="763.5" y="1065" width="307" height="30" as="geometry" />
        </mxCell>
        <mxCell id="TGPx2V8O0Z7DVdudsgvW-76" value="" style="shape=image;verticalLabelPosition=bottom;verticalAlign=top;imageAspect=0;aspect=fixed;image=data:image/svg+xml,PHN2ZyB4bWxuczp4bGluaz0iaHR0cDovL3d3dy53My5vcmcvMTk5OS94bGluayIgeG1sbnM9Imh0dHA6Ly93d3cudzMub3JnLzIwMDAvc3ZnIiBoZWlnaHQ9IjIwMCIgd2lkdGg9IjIwMCIgdmVyc2lvbj0iMS4xIiB2aWV3Qm94PSIwIDAgMTAyNCAxMDI0IiBjbGFzcz0iaWNvbiI+PHBhdGggZmlsbD0iIzRBOTE5QiIgZD0iTTMxMi44ODg4ODkgOTk1LjU1NTU1NmMtMTcuMDY2NjY3IDAtMjguNDQ0NDQ0LTUuNjg4ODg5LTM5LjgyMjIyMi0xNy4wNjY2NjctMjIuNzU1NTU2LTIyLjc1NTU1Ni0xNy4wNjY2NjctNTYuODg4ODg5IDUuNjg4ODg5LTc5LjY0NDQ0NWwzNjQuMDg4ODg4LTMyOS45NTU1NTVjMTEuMzc3Nzc4LTExLjM3Nzc3OCAxNy4wNjY2NjctMjIuNzU1NTU2IDE3LjA2NjY2Ny0zNC4xMzMzMzMgMC0xMS4zNzc3NzgtNS42ODg4ODktMjIuNzU1NTU2LTE3LjA2NjY2Ny0zNC4xMzMzMzRMMjczLjA2NjY2NyAxODcuNzMzMzMzYy0yMi43NTU1NTYtMjIuNzU1NTU2LTI4LjQ0NDQ0NC01Ni44ODg4ODktNS42ODg4ODktNzkuNjQ0NDQ0IDIyLjc1NTU1Ni0yMi43NTU1NTYgNTYuODg4ODg5LTI4LjQ0NDQ0NCA3OS42NDQ0NDQtNS42ODg4ODlsMzY0LjA4ODg4OSAzMTIuODg4ODg5YzM0LjEzMzMzMyAyOC40NDQ0NDQgNTYuODg4ODg5IDczLjk1NTU1NiA1Ni44ODg4ODkgMTE5LjQ2NjY2N3MtMTcuMDY2NjY3IDg1LjMzMzMzMy01MS4yIDExOS40NjY2NjZsLTM2NC4wODg4ODkgMzI5Ljk1NTU1NmMtMTEuMzc3Nzc4IDUuNjg4ODg5LTI4LjQ0NDQ0NCAxMS4zNzc3NzgtMzkuODIyMjIyIDExLjM3Nzc3OHoiLz48L3N2Zz4=" parent="1" vertex="1">
          <mxGeometry x="883" y="1128" width="54" height="54" as="geometry" />
        </mxCell>
        <mxCell id="TGPx2V8O0Z7DVdudsgvW-79" value="&lt;span style=&quot;font-size: 24px;&quot;&gt;&lt;font color=&quot;#4a919b&quot;&gt;后面会改用&lt;br&gt;对称秘钥通信&lt;/font&gt;&lt;/span&gt;" style="text;html=1;strokeColor=none;fillColor=none;align=center;verticalAlign=middle;whiteSpace=wrap;rounded=0;fontSize=28;fontColor=#808080;" parent="1" vertex="1">
          <mxGeometry x="640" y="1137" width="276.66" height="30" as="geometry" />
        </mxCell>
        <mxCell id="TGPx2V8O0Z7DVdudsgvW-80" value="" style="endArrow=none;dashed=1;html=1;dashPattern=1 3;strokeWidth=2;rounded=0;fontSize=21;fontColor=#4A919B;fillColor=#535E80;" parent="1" edge="1">
          <mxGeometry width="50" height="50" relative="1" as="geometry">
            <mxPoint x="317" y="565" as="sourcePoint" />
            <mxPoint x="591" y="566" as="targetPoint" />
          </mxGeometry>
        </mxCell>
        <mxCell id="TGPx2V8O0Z7DVdudsgvW-81" value="" style="endArrow=none;dashed=1;html=1;dashPattern=1 3;strokeWidth=2;rounded=0;fontSize=21;fontColor=#4A919B;fillColor=#535E80;" parent="1" edge="1">
          <mxGeometry width="50" height="50" relative="1" as="geometry">
            <mxPoint x="318" y="1133" as="sourcePoint" />
            <mxPoint x="318" y="561" as="targetPoint" />
          </mxGeometry>
        </mxCell>
        <mxCell id="TGPx2V8O0Z7DVdudsgvW-82" value="" style="endArrow=none;dashed=1;html=1;dashPattern=1 3;strokeWidth=2;rounded=0;fontSize=21;fontColor=#4A919B;fillColor=#535E80;" parent="1" edge="1">
          <mxGeometry width="50" height="50" relative="1" as="geometry">
            <mxPoint x="318" y="1128.95" as="sourcePoint" />
            <mxPoint x="454" y="1129" as="targetPoint" />
          </mxGeometry>
        </mxCell>
        <mxCell id="TGPx2V8O0Z7DVdudsgvW-83" value="" style="endArrow=none;dashed=1;html=1;dashPattern=1 3;strokeWidth=2;rounded=0;fontSize=21;fontColor=#4A919B;fillColor=#535E80;" parent="1" edge="1">
          <mxGeometry width="50" height="50" relative="1" as="geometry">
            <mxPoint x="318" y="943.55" as="sourcePoint" />
            <mxPoint x="383" y="943.55" as="targetPoint" />
          </mxGeometry>
        </mxCell>
        <mxCell id="TGPx2V8O0Z7DVdudsgvW-84" value="" style="endArrow=none;dashed=1;html=1;dashPattern=1 3;strokeWidth=2;rounded=0;fontSize=21;fontColor=#4A919B;fillColor=#535E80;" parent="1" edge="1">
          <mxGeometry width="50" height="50" relative="1" as="geometry">
            <mxPoint x="318" y="722.0000000000002" as="sourcePoint" />
            <mxPoint x="383" y="722.0000000000002" as="targetPoint" />
          </mxGeometry>
        </mxCell>
        <mxCell id="TGPx2V8O0Z7DVdudsgvW-85" value="&lt;font style=&quot;font-size: 21px;&quot;&gt;pre_master&lt;/font&gt;" style="text;html=1;strokeColor=none;fillColor=none;align=center;verticalAlign=middle;whiteSpace=wrap;rounded=0;fontColor=#4A919B;" parent="1" vertex="1">
          <mxGeometry x="1263" y="986" width="170" height="30" as="geometry" />
        </mxCell>
        <mxCell id="TGPx2V8O0Z7DVdudsgvW-86" value="" style="shape=image;verticalLabelPosition=bottom;verticalAlign=top;imageAspect=0;aspect=fixed;image=data:image/svg+xml,PHN2ZyB4bWxuczp4bGluaz0iaHR0cDovL3d3dy53My5vcmcvMTk5OS94bGluayIgeG1sbnM9Imh0dHA6Ly93d3cudzMub3JnLzIwMDAvc3ZnIiBoZWlnaHQ9IjIwMCIgd2lkdGg9IjIwMCIgdmVyc2lvbj0iMS4xIiB2aWV3Qm94PSIwIDAgMTAyNCAxMDI0IiBjbGFzcz0iaWNvbiI+PHBhdGggZmlsbD0iIzRBOTE5QiIgZD0iTTQyMS4zNzYgNDgxLjI4czExNy4yNDggMjQuNTc2IDE3NS4xMDQtOC43MDRjMCAwLTg5LjYgNzAuMTQ0LTg5LjYgMTY2LjQgMC41MTItMC41MTItOC4xOTItMTIxLjM0NC04NS41MDQtMTU3LjY5NnpNNDM4Ljc4NCA5NjkuMjE2czY4LjYwOCA2LjY1NiA2OC42MDgtODAuODk2YzAgMCAzLjA3MiA4OC41NzYgNjUuMDI0IDc4LjMzNiAwIDAuNTEyLTUwLjY4OCAyMi4wMTYtMTMzLjYzMiAyLjU2ek0xNjEuMjggMjM4LjA4cy0zMC4yMDggNjUuNTM2IDExLjI2NCA5MS42NDhjMCAwLTY3LjA3Mi0xNy40MDgtODEuNDA4IDM3LjM3NiAwIDAgOC43MDQtODIuOTQ0IDcwLjE0NC0xMjkuMDI0ek04NTcuNiAyMjcuMzI4czQ5LjE1MiA1MC4xNzYgMS4wMjQgODEuNDA4YzAgMCA1OC44OC0xOC40MzIgNjYuNTYgMzYuMzUyIDAgMCA1LjEyLTY5LjYzMi02Ny41ODQtMTE3Ljc2eiIvPjxwYXRoIGZpbGw9IiM0QTkxOUIiIGQ9Ik00NDMuMzkyIDk3MC43NTJjLTUuNjMyIDAtMTAuNzUyLTEuMDI0LTE1LjM2LTMuMDcybC0yNzAuODQ4LTE1Ny4xODQtMS41MzYtMS4wMjRzLTEuMDI0LTEuMDI0LTQuNjA4LTIuNTZjLTUxLjItMjkuMTg0LTYyLjk3Ni05NC4yMDgtNjUuNTM2LTEyMC44MzJWMzg2LjU2YzAtMy4wNzIgMC41MTItNy4xNjggMS4wMjQtMTEuMjY0bDAuNTEyLTMuNTg0IDEuMDI0LTIuNTZjMTkuNDU2LTUwLjY4OCA3Ni44LTUxLjIgMTAzLjkzNi00NC4wMzJsLTEuNTM2IDUuNjMyIDQuMDk2LTYuMTQ0TDQ3Ni4xNiA0ODYuNGwxOC45NDQgMzcuODg4YzIwLjk5MiAzNi44NjQgMjkuMTg0IDc3LjgyNCAzMi43NjggOTkuODR2MjU4LjA0OGMtNC42MDggNTYuMzItMzYuODY0IDc2LjI4OC01NS44MDggODIuOTQ0LTEuMDI0IDAuNTEyLTE1LjM2IDUuNjMyLTI4LjY3MiA1LjYzMnogbS0yNjIuMTQ0LTE5Ni4wOTZsMjYzLjE2OCAxNTIuNTc2YzEyLjI4OC0wLjUxMiAzNi44NjQtNi42NTYgNDAuNDQ4LTQ4LjEyOHYtMjUwLjM2OGMtNC42MDgtMzEuNzQ0LTIwLjk5Mi0xMDMuOTM2LTcyLjE5Mi0xMjhMMzIyLjU2IDQ0NS40NGwxLjUzNiAzLjA3Mi0xNDIuMzM2LTgyLjQzMmMtMi4wNDgtMC41MTItNDAuNDQ4LTkuMjE2LTUyLjczNiAxNS44NzItMC41MTIgMi41Ni0wLjUxMiA0LjYwOC0wLjUxMiA2LjE0NHYyOTQuNGMxLjUzNiAxNi44OTYgOS43MjggNjcuMDcyIDQzLjUyIDg2LjUyOCAzLjU4NCAyLjA0OCA2LjY1NiA0LjA5NiA5LjIxNiA1LjYzMnoiLz48cGF0aCBmaWxsPSIjNEE5MTlCIiBkPSJNODM3LjYzMiAyMTIuOTkyYzYuNjU2IDQuMDk2IDEyLjggNy4xNjggMTguNDMyIDEwLjc1MmwxLjUzNiAxLjAyNCAxLjUzNiAxLjUzNmM1LjEyIDQuMDk2IDEwLjc1MiA5LjIxNiAxNi4zODQgMTUuMzYgNi4xNDQgMTEuNzc2IDUuNjMyIDMzLjI4IDQuNjA4IDQ5LjE1Mi0xLjAyNCAxMi4yODgtNi42NTYgMzAuMjA4LTI2LjYyNCA0NC41NDRsLTEuMDI0IDAuNTEyLTI0Ny44MDggMTU2LjY3MmMtMjYuNjI0IDE0LjMzNi02Mi45NzYgMTguNDMyLTk2LjI1NiAxOC40MzItNDAuOTYgMC03Ny44MjQtNi42NTYtODkuMDg4LTguNzA0bC0zLjA3Mi0wLjUxMi0yNDUuMjQ4LTE0Mi4zMzZjLTM5LjQyNC0yOS42OTYtMjguMTYtODUuNTA0LTE1LjM2LTExMy42NjRsMi41Ni02LjE0NCAyNjMuNjgtMTY2LjkxMmMyOS4xODQtMTQuMzM2IDEwNC40NDgtNDMuMDA4IDE3My4wNTYtMS4wMjQgMy41ODQgMi41NiA1OC4zNjggMzQuMzA0IDExOS4yOTYgNjkuNjMyTTQzMS42MTYgNDYwLjhjNDAuNDQ4IDcuMTY4IDExNC4xNzYgMTMuODI0IDE1Mi41NzYtNi4xNDRsMjQ0LjczNi0xNTUuMTM2YzcuMTY4LTUuNjMyIDguMTkyLTEwLjI0IDguNzA0LTEyLjggMS4wMjQtMTEuMjY0LTkuNzI4LTI2LjYyNC0xNS4zNi0zMi43NjgtNTUuODA4LTMyLjI1Ni0yNDMuNzEyLTE0MS4zMTItMjUwLjM2OC0xNDUuNDA4LTQ5LjY2NC0zMC43Mi0xMDcuMDA4LTkuMjE2LTEzMC4wNDggMi41NkwxOTIuNTEyIDI2OC44Yy00LjA5NiAxMi4yODgtMTIuMjg4IDQyLjQ5NiAzLjU4NCA1NS44MDhsMjM1LjUyIDEzNi4xOTJ6Ii8+PHBhdGggZmlsbD0iIzRBOTE5QiIgZD0iTTgzMS40ODggMjk5LjAwOGM0LjA5Ni0xLjAyNCAzOC40LTExLjI2NCA2Ni4wNDggNi4xNDQgNy4xNjggNC42MDggMTcuOTIgMTEuNzc2IDI0LjA2NCAyNC41NzYgMS4wMjQgNS42MzIgNC4wOTYgMTAuNzUyIDQuNjA4IDE2Ljg5NnYyLjA0OGwtMS4wMjQgMzIzLjA3MmMtNS4xMiAzNS4zMjgtMjIuNTI4IDkxLjY0OC03Ny4zMTIgMTI1LjQ0bC01LjEyIDMuNTg0aC0xLjAyNGwtMjYyLjE0NCAxNjUuODg4LTQuNjA4IDAuNTEyYy00LjA5NiAwLjUxMi04LjcwNCAxLjAyNC0xMi44IDEuMDI0LTE1Ljg3MiAwLTMwLjIwOC01LjEyLTQxLjk4NC0xNC44NDgtMjQuNTc2LTIwLjQ4LTMyLjc2OC01NS44MDgtMzUuMzI4LTczLjcyOGwtMS4wMjQtMjUyLjkyOGgxLjUzNmM2LjE0NC05Ni43NjggODguNTc2LTE2NC44NjQgOTYuNzY4LTE3MS4wMDhsLTAuNTEyLTAuNTEyTDgyOS40NCAyOTkuNTJtLTMwMS4wNTYgNTY3LjgwOGMwLjUxMiAxMC4yNCA1LjEyIDQxLjQ3MiAxOS45NjggNTMuNzYgMy4wNzIgMi41NiA3LjY4IDUuNjMyIDE2LjM4NCA1LjEybDI2NC43MDQtMTY3LjkzNmM1Ni4zMi0zOC40IDUzLjc2LTExNS43MTIgNTMuNzYtMTE2LjIyNGwtMC41MTItMzIuMjU2IDEuMDI0LTI1MC4zNjhoLTAuNTEyYy0xLjUzNi0xMi44LTcuMTY4LTE2LjM4NC04LjcwNC0xNy40MDgtOC43MDQtNS42MzItMjMuNTUyLTMuMDcyLTI4LjY3Mi0yLjA0OGwtMjM1LjUyIDE0OC45OTJjLTEuMDI0IDAuNTEyLTgwLjg5NiA2NS4wMjQtODAuODk2IDE0OS41MDRoLTEuNTM2bDAuNTEyIDIyOC44NjR6TTQzNS4yIDI2NC4xOTJjMCAyNy42NDggMzEuNzQ0IDUwLjE3NiA3MS4xNjggNTAuMTc2czcxLjE2OC0yMi41MjggNzEuMTY4LTUwLjE3Ni0zMS43NDQtNTAuMTc2LTcxLjE2OC01MC4xNzZTNDM1LjIgMjM2LjU0NCA0MzUuMiAyNjQuMTkyeiIvPjxwYXRoIGZpbGw9IiM0QTkxOUIiIGQ9Ik02NjMuNTUyIDc4Mi44NDhjMCAzMC43Mi0yMi41MjggNjcuMDcyLTQ5LjY2NCA4MC4zODQtMjcuNjQ4IDEzLjgyNC01MC4xNzYtMC41MTItNTAuMTc2LTMxLjIzMnMyMi41MjgtNjcuMDcyIDUwLjE3Ni04MC4zODRjMjcuMTM2LTEzLjgyNCA0OS42NjQgMCA0OS42NjQgMzEuMjMyek03NjAuMzIgNjAyLjYyNGMwIDMwLjcyLTIyLjUyOCA2Ny4wNzItNDkuNjY0IDgwLjM4NC0yNy42NDggMTMuODI0LTQ5LjY2NC0wLjUxMi00OS42NjQtMzEuMjMyczIyLjUyOC02Ny4wNzIgNDkuNjY0LTgwLjM4NGMyNy4xMzYtMTMuODI0IDQ5LjY2NCAwLjUxMiA0OS42NjQgMzEuMjMyek04NjcuODQgNDI4LjAzMmMwIDMwLjcyLTIyLjUyOCA2Ny4wNzItNDkuNjY0IDgwLjM4NC0yNy42NDggMTMuODI0LTUwLjE3Ni0wLjUxMi01MC4xNzYtMzEuMjMyczIyLjUyOC02Ny4wNzIgNTAuMTc2LTgwLjM4NGMyNy4xMzYtMTMuODI0IDQ5LjY2NCAwIDQ5LjY2NCAzMS4yMzJ6TTI3MC44NDggNTM4LjExMmMwIDMwLjcyLTIyLjAxNiA0MS45ODQtNDguNjQgMjQuNTc2LTI3LjEzNi0xNi44OTYtNDguNjQtNTUuODA4LTQ4LjY0LTg2LjUyOCAwLTMwLjcyIDIyLjAxNi00MS45ODQgNDguNjQtMjQuNTc2IDI2LjYyNCAxNi44OTYgNDguNjQgNTUuODA4IDQ4LjY0IDg2LjUyOHpNNDMyLjEyOCA4MjMuMjk2YzAgMzAuNzItMjIuMDE2IDQxLjk4NC00OC42NCAyNC41NzYtMjYuNjI0LTE3LjQwOC00OC42NC01NS44MDgtNDguNjQtODYuNTI4IDAtMzAuNzIgMjIuMDE2LTQxLjk4NCA0OC42NC0yNC41NzYgMjYuNjI0IDE2Ljg5NiA0OC42NCA1NS44MDggNDguNjQgODYuNTI4eiIvPjwvc3ZnPg==" parent="1" vertex="1">
          <mxGeometry x="1227" y="973" width="56" height="56" as="geometry" />
        </mxCell>
        <mxCell id="TGPx2V8O0Z7DVdudsgvW-87" value="" style="shape=image;verticalLabelPosition=bottom;verticalAlign=top;imageAspect=0;aspect=fixed;image=data:image/svg+xml,PHN2ZyB4bWxuczp4bGluaz0iaHR0cDovL3d3dy53My5vcmcvMTk5OS94bGluayIgeG1sbnM9Imh0dHA6Ly93d3cudzMub3JnLzIwMDAvc3ZnIiBoZWlnaHQ9IjIwMCIgd2lkdGg9IjIwMCIgdmVyc2lvbj0iMS4xIiB2aWV3Qm94PSIwIDAgMTAyNCAxMDI0IiBjbGFzcz0iaWNvbiI+PHBhdGggZmlsbD0iIzUzNUU4MCIgZD0iTTQ0Ni42ODA0MDcgNTEzLjcwNDcyNmgxMzYuMDc4NzM5djUxMC4yOTUyNzRoLTEzNi4wNzg3Mzl6Ii8+PHBhdGggZmlsbD0iIzUzNUU4MCIgZD0iTTUzMi40MTAwMTMgNjY2Ljc5MzMwOGgxMTUuNjY2OTI4djEzNi4wNzg3NEg1MzIuNDEwMDEzek01MzIuNDEwMDEzIDg0My42OTU2N2gxNDkuNjg2NjEzdjEzNi4wNzg3NEg1MzIuNDEwMDEzek01MTEuOTk4MjAyIDU4NS4xNDYwNjVBMjkwLjUyODEwOSAyOTAuNTI4MTA5IDAgMCAxIDIxOS40Mjg5MTIgMjkyLjU3Njc3NSAyOTAuNTI4MTA5IDI5MC41MjgxMDkgMCAwIDEgNTExLjk5ODIwMiAwLjAwNzQ4NGEyOTAuNTI4MTA5IDI5MC41MjgxMDkgMCAwIDEgMjkyLjU2OTI5IDI5Mi41NjkyOTEgMjkwLjUyODEwOSAyOTAuNTI4MTA5IDAgMCAxLTI5Mi41NjkyOSAyOTIuNTY5Mjl6IG0wLTQ0OS4wNTk4NDFBMTUzLjc2ODk3NiAxNTMuNzY4OTc2IDAgMCAwIDM1NS41MDc2NTEgMjkyLjU3Njc3NWExNTMuNzY4OTc2IDE1My43Njg5NzYgMCAwIDAgMTU2LjQ5MDU1MSAxNTYuNDkwNTUgMTUzLjc2ODk3NiAxNTMuNzY4OTc2IDAgMCAwIDE1Ni40OTA1NS0xNTYuNDkwNTVBMTUzLjc2ODk3NiAxNTMuNzY4OTc2IDAgMCAwIDUxMS45OTgyMDIgMTM2LjA4NjIyNHoiLz48L3N2Zz4=;strokeColor=#E6D7C2;fontSize=28;fontColor=#808080;fillColor=#E6D7C2;" parent="1" vertex="1">
          <mxGeometry x="972" y="976.0000000000002" width="52" height="52" as="geometry" />
        </mxCell>
        <mxCell id="TGPx2V8O0Z7DVdudsgvW-88" value="&lt;font color=&quot;#535e80&quot; style=&quot;font-size: 21px;&quot;&gt;服务器私钥&lt;/font&gt;" style="text;html=1;strokeColor=none;fillColor=none;align=center;verticalAlign=middle;whiteSpace=wrap;rounded=0;fontColor=#4A919B;" parent="1" vertex="1">
          <mxGeometry x="1036" y="987.5" width="117" height="29" as="geometry" />
        </mxCell>
        <mxCell id="TGPx2V8O0Z7DVdudsgvW-89" value="" style="shape=flexArrow;endArrow=classic;html=1;rounded=0;fontSize=28;fontColor=#808080;width=9.18032786885246;endSize=4.6;strokeColor=none;fillColor=#535E80;" parent="1" edge="1">
          <mxGeometry width="50" height="50" relative="1" as="geometry">
            <mxPoint x="1167.31" y="1001.6299999999997" as="sourcePoint" />
            <mxPoint x="1194.69" y="1001.6299999999997" as="targetPoint" />
          </mxGeometry>
        </mxCell>
        <mxCell id="TGPx2V8O0Z7DVdudsgvW-90" value="" style="endArrow=none;dashed=1;html=1;dashPattern=1 3;strokeWidth=2;rounded=0;fontSize=21;fontColor=#4A919B;fillColor=#535E80;" parent="1" edge="1">
          <mxGeometry width="50" height="50" relative="1" as="geometry">
            <mxPoint x="1468" y="1135.9999999999995" as="sourcePoint" />
            <mxPoint x="1468" y="573" as="targetPoint" />
          </mxGeometry>
        </mxCell>
        <mxCell id="TGPx2V8O0Z7DVdudsgvW-91" value="" style="endArrow=none;dashed=1;html=1;dashPattern=1 3;strokeWidth=2;rounded=0;fontSize=21;fontColor=#4A919B;fillColor=#535E80;" parent="1" edge="1">
          <mxGeometry width="50" height="50" relative="1" as="geometry">
            <mxPoint x="1247.5" y="740.9999999999998" as="sourcePoint" />
            <mxPoint x="1470.5" y="740" as="targetPoint" />
          </mxGeometry>
        </mxCell>
        <mxCell id="TGPx2V8O0Z7DVdudsgvW-92" value="" style="endArrow=none;dashed=1;html=1;dashPattern=1 3;strokeWidth=2;rounded=0;fontSize=21;fontColor=#4A919B;fillColor=#535E80;" parent="1" edge="1">
          <mxGeometry width="50" height="50" relative="1" as="geometry">
            <mxPoint x="1333" y="1136.9999999999998" as="sourcePoint" />
            <mxPoint x="1469" y="1137.0499999999995" as="targetPoint" />
          </mxGeometry>
        </mxCell>
        <mxCell id="TGPx2V8O0Z7DVdudsgvW-93" value="" style="shape=image;verticalLabelPosition=bottom;labelBackgroundColor=default;verticalAlign=top;aspect=fixed;imageAspect=0;image=data:image/svg+xml,PHN2ZyB4bWxuczp4bGluaz0iaHR0cDovL3d3dy53My5vcmcvMTk5OS94bGluayIgeG1sbnM9Imh0dHA6Ly93d3cudzMub3JnLzIwMDAvc3ZnIiBoZWlnaHQ9IjIwMCIgd2lkdGg9IjIwMCIgdmVyc2lvbj0iMS4xIiB2aWV3Qm94PSIwIDAgMTAyNCAxMDI0IiBjbGFzcz0iaWNvbiI+PHBhdGggZmlsbD0iI0YxOUM5OSIgZD0iTTQ0Ni42ODA0MDcgNTEzLjcwNDcyNmgxMzYuMDc4NzM5djUxMC4yOTUyNzRoLTEzNi4wNzg3Mzl6Ii8+PHBhdGggZmlsbD0iI0YxOUM5OSIgZD0iTTUzMi40MTAwMTMgNjY2Ljc5MzMwOGgxMTUuNjY2OTI4djEzNi4wNzg3NEg1MzIuNDEwMDEzek01MzIuNDEwMDEzIDg0My42OTU2N2gxNDkuNjg2NjEzdjEzNi4wNzg3NEg1MzIuNDEwMDEzek01MTEuOTk4MjAyIDU4NS4xNDYwNjVBMjkwLjUyODEwOSAyOTAuNTI4MTA5IDAgMCAxIDIxOS40Mjg5MTIgMjkyLjU3Njc3NSAyOTAuNTI4MTA5IDI5MC41MjgxMDkgMCAwIDEgNTExLjk5ODIwMiAwLjAwNzQ4NGEyOTAuNTI4MTA5IDI5MC41MjgxMDkgMCAwIDEgMjkyLjU2OTI5IDI5Mi41NjkyOTEgMjkwLjUyODEwOSAyOTAuNTI4MTA5IDAgMCAxLTI5Mi41NjkyOSAyOTIuNTY5Mjl6IG0wLTQ0OS4wNTk4NDFBMTUzLjc2ODk3NiAxNTMuNzY4OTc2IDAgMCAwIDM1NS41MDc2NTEgMjkyLjU3Njc3NWExNTMuNzY4OTc2IDE1My43Njg5NzYgMCAwIDAgMTU2LjQ5MDU1MSAxNTYuNDkwNTUgMTUzLjc2ODk3NiAxNTMuNzY4OTc2IDAgMCAwIDE1Ni40OTA1NS0xNTYuNDkwNTVBMTUzLjc2ODk3NiAxNTMuNzY4OTc2IDAgMCAwIDUxMS45OTgyMDIgMTM2LjA4NjIyNHoiLz48L3N2Zz4=;" parent="1" vertex="1">
          <mxGeometry x="1246" y="1101" width="89.5" height="89.5" as="geometry" />
        </mxCell>
        <mxCell id="TGPx2V8O0Z7DVdudsgvW-95" value="" style="rounded=1;whiteSpace=wrap;html=1;strokeColor=default;fillColor=#FCFBF8;" parent="1" vertex="1">
          <mxGeometry x="609" y="1211" width="602" height="152" as="geometry" />
        </mxCell>
        <mxCell id="TGPx2V8O0Z7DVdudsgvW-96" value="&lt;font style=&quot;font-size: 30px;&quot;&gt;Encrypted Handshake Message&lt;/font&gt;" style="text;html=1;strokeColor=none;fillColor=none;align=center;verticalAlign=middle;whiteSpace=wrap;rounded=0;fontColor=#4A919B;" parent="1" vertex="1">
          <mxGeometry x="709.1800000000001" y="1220" width="440.5" height="30" as="geometry" />
        </mxCell>
        <mxCell id="TGPx2V8O0Z7DVdudsgvW-97" value="" style="shape=image;verticalLabelPosition=bottom;verticalAlign=top;imageAspect=0;aspect=fixed;image=data:image/svg+xml,PHN2ZyB4bWxuczp4bGluaz0iaHR0cDovL3d3dy53My5vcmcvMTk5OS94bGluayIgeG1sbnM9Imh0dHA6Ly93d3cudzMub3JnLzIwMDAvc3ZnIiBoZWlnaHQ9IjIwMCIgd2lkdGg9IjIwMCIgdmVyc2lvbj0iMS4xIiB2aWV3Qm94PSIwIDAgMTAyNCAxMDI0IiBjbGFzcz0iaWNvbiI+PHBhdGggZmlsbD0iIzRBOTE5QiIgZD0iTTMxMi44ODg4ODkgOTk1LjU1NTU1NmMtMTcuMDY2NjY3IDAtMjguNDQ0NDQ0LTUuNjg4ODg5LTM5LjgyMjIyMi0xNy4wNjY2NjctMjIuNzU1NTU2LTIyLjc1NTU1Ni0xNy4wNjY2NjctNTYuODg4ODg5IDUuNjg4ODg5LTc5LjY0NDQ0NWwzNjQuMDg4ODg4LTMyOS45NTU1NTVjMTEuMzc3Nzc4LTExLjM3Nzc3OCAxNy4wNjY2NjctMjIuNzU1NTU2IDE3LjA2NjY2Ny0zNC4xMzMzMzMgMC0xMS4zNzc3NzgtNS42ODg4ODktMjIuNzU1NTU2LTE3LjA2NjY2Ny0zNC4xMzMzMzRMMjczLjA2NjY2NyAxODcuNzMzMzMzYy0yMi43NTU1NTYtMjIuNzU1NTU2LTI4LjQ0NDQ0NC01Ni44ODg4ODktNS42ODg4ODktNzkuNjQ0NDQ0IDIyLjc1NTU1Ni0yMi43NTU1NTYgNTYuODg4ODg5LTI4LjQ0NDQ0NCA3OS42NDQ0NDQtNS42ODg4ODlsMzY0LjA4ODg4OSAzMTIuODg4ODg5YzM0LjEzMzMzMyAyOC40NDQ0NDQgNTYuODg4ODg5IDczLjk1NTU1NiA1Ni44ODg4ODkgMTE5LjQ2NjY2N3MtMTcuMDY2NjY3IDg1LjMzMzMzMy01MS4yIDExOS40NjY2NjZsLTM2NC4wODg4ODkgMzI5Ljk1NTU1NmMtMTEuMzc3Nzc4IDUuNjg4ODg5LTI4LjQ0NDQ0NCAxMS4zNzc3NzgtMzkuODIyMjIyIDExLjM3Nzc3OHoiLz48L3N2Zz4=" parent="1" vertex="1">
          <mxGeometry x="883" y="1280" width="54" height="54" as="geometry" />
        </mxCell>
        <mxCell id="TGPx2V8O0Z7DVdudsgvW-98" value="&lt;font color=&quot;#4a919b&quot;&gt;&lt;span style=&quot;font-size: 24px;&quot;&gt;摘要，Finished报文&lt;/span&gt;&lt;/font&gt;" style="text;html=1;strokeColor=none;fillColor=none;align=center;verticalAlign=middle;whiteSpace=wrap;rounded=0;fontSize=28;fontColor=#808080;" parent="1" vertex="1">
          <mxGeometry x="640" y="1289" width="276.66" height="30" as="geometry" />
        </mxCell>
        <mxCell id="TGPx2V8O0Z7DVdudsgvW-99" value="" style="rounded=1;whiteSpace=wrap;html=1;strokeColor=default;fillColor=#E7E5ED;" parent="1" vertex="1">
          <mxGeometry x="607" y="1363" width="602" height="152" as="geometry" />
        </mxCell>
        <mxCell id="TGPx2V8O0Z7DVdudsgvW-100" value="&lt;font color=&quot;#535e80&quot; style=&quot;font-size: 30px;&quot;&gt;Change Cipher Spec&lt;/font&gt;" style="text;html=1;strokeColor=none;fillColor=#E7E5ED;align=center;verticalAlign=middle;whiteSpace=wrap;rounded=0;fontColor=#4A919B;" parent="1" vertex="1">
          <mxGeometry x="763.5" y="1378" width="307" height="30" as="geometry" />
        </mxCell>
        <mxCell id="TGPx2V8O0Z7DVdudsgvW-102" value="&lt;span style=&quot;font-size: 24px;&quot;&gt;&lt;font color=&quot;#535e80&quot;&gt;后面会改用&lt;br&gt;对称秘钥通信&lt;/font&gt;&lt;/span&gt;" style="text;html=1;strokeColor=none;fillColor=#E7E5ED;align=center;verticalAlign=middle;whiteSpace=wrap;rounded=0;fontSize=28;fontColor=#808080;" parent="1" vertex="1">
          <mxGeometry x="957.02" y="1443" width="192.66" height="32" as="geometry" />
        </mxCell>
        <mxCell id="TGPx2V8O0Z7DVdudsgvW-103" value="" style="rounded=1;whiteSpace=wrap;html=1;strokeColor=default;fillColor=#E7E5ED;" parent="1" vertex="1">
          <mxGeometry x="607" y="1515" width="602" height="152" as="geometry" />
        </mxCell>
        <mxCell id="TGPx2V8O0Z7DVdudsgvW-104" value="&lt;font color=&quot;#535e80&quot; style=&quot;font-size: 30px;&quot;&gt;Encrypted Handshake Message&lt;/font&gt;" style="text;html=1;strokeColor=none;fillColor=#E7E5ED;align=center;verticalAlign=middle;whiteSpace=wrap;rounded=0;fontColor=#4A919B;" parent="1" vertex="1">
          <mxGeometry x="707.1800000000001" y="1536" width="440.5" height="30" as="geometry" />
        </mxCell>
        <mxCell id="TGPx2V8O0Z7DVdudsgvW-106" value="&lt;span style=&quot;font-size: 24px;&quot;&gt;&lt;font color=&quot;#535e80&quot;&gt;摘要，Finished报文&lt;/font&gt;&lt;/span&gt;" style="text;html=1;strokeColor=none;fillColor=#E7E5ED;align=center;verticalAlign=middle;whiteSpace=wrap;rounded=0;fontSize=28;fontColor=#808080;" parent="1" vertex="1">
          <mxGeometry x="917.6700000000001" y="1598" width="276.66" height="30" as="geometry" />
        </mxCell>
        <mxCell id="TGPx2V8O0Z7DVdudsgvW-107" value="" style="shape=image;verticalLabelPosition=bottom;verticalAlign=top;imageAspect=0;aspect=fixed;image=data:image/svg+xml,PHN2ZyB4bWxuczp4bGluaz0iaHR0cDovL3d3dy53My5vcmcvMTk5OS94bGluayIgeG1sbnM9Imh0dHA6Ly93d3cudzMub3JnLzIwMDAvc3ZnIiBoZWlnaHQ9IjIwMCIgd2lkdGg9IjIwMCIgdmVyc2lvbj0iMS4xIiB2aWV3Qm94PSIwIDAgMTAyNCAxMDI0IiBjbGFzcz0iaWNvbiI+PHBhdGggZmlsbD0iIzUzNUU4MCIgZD0iTTMxMi44ODg4ODkgOTk1LjU1NTU1NmMtMTcuMDY2NjY3IDAtMjguNDQ0NDQ0LTUuNjg4ODg5LTM5LjgyMjIyMi0xNy4wNjY2NjctMjIuNzU1NTU2LTIyLjc1NTU1Ni0xNy4wNjY2NjctNTYuODg4ODg5IDUuNjg4ODg5LTc5LjY0NDQ0NWwzNjQuMDg4ODg4LTMyOS45NTU1NTVjMTEuMzc3Nzc4LTExLjM3Nzc3OCAxNy4wNjY2NjctMjIuNzU1NTU2IDE3LjA2NjY2Ny0zNC4xMzMzMzMgMC0xMS4zNzc3NzgtNS42ODg4ODktMjIuNzU1NTU2LTE3LjA2NjY2Ny0zNC4xMzMzMzRMMjczLjA2NjY2NyAxODcuNzMzMzMzYy0yMi43NTU1NTYtMjIuNzU1NTU2LTI4LjQ0NDQ0NC01Ni44ODg4ODktNS42ODg4ODktNzkuNjQ0NDQ0IDIyLjc1NTU1Ni0yMi43NTU1NTYgNTYuODg4ODg5LTI4LjQ0NDQ0NCA3OS42NDQ0NDQtNS42ODg4ODlsMzY0LjA4ODg4OSAzMTIuODg4ODg5YzM0LjEzMzMzMyAyOC40NDQ0NDQgNTYuODg4ODg5IDczLjk1NTU1NiA1Ni44ODg4ODkgMTE5LjQ2NjY2N3MtMTcuMDY2NjY3IDg1LjMzMzMzMy01MS4yIDExOS40NjY2NjZsLTM2NC4wODg4ODkgMzI5Ljk1NTU1NmMtMTEuMzc3Nzc4IDUuNjg4ODg5LTI4LjQ0NDQ0NCAxMS4zNzc3NzgtMzkuODIyMjIyIDExLjM3Nzc3OHoiLz48L3N2Zz4=;flipH=1;fillColor=#E7E5ED;" parent="1" vertex="1">
          <mxGeometry x="880.5" y="1430" width="55" height="55" as="geometry" />
        </mxCell>
        <mxCell id="TGPx2V8O0Z7DVdudsgvW-108" value="" style="shape=image;verticalLabelPosition=bottom;verticalAlign=top;imageAspect=0;aspect=fixed;image=data:image/svg+xml,PHN2ZyB4bWxuczp4bGluaz0iaHR0cDovL3d3dy53My5vcmcvMTk5OS94bGluayIgeG1sbnM9Imh0dHA6Ly93d3cudzMub3JnLzIwMDAvc3ZnIiBoZWlnaHQ9IjIwMCIgd2lkdGg9IjIwMCIgdmVyc2lvbj0iMS4xIiB2aWV3Qm94PSIwIDAgMTAyNCAxMDI0IiBjbGFzcz0iaWNvbiI+PHBhdGggZmlsbD0iIzUzNUU4MCIgZD0iTTMxMi44ODg4ODkgOTk1LjU1NTU1NmMtMTcuMDY2NjY3IDAtMjguNDQ0NDQ0LTUuNjg4ODg5LTM5LjgyMjIyMi0xNy4wNjY2NjctMjIuNzU1NTU2LTIyLjc1NTU1Ni0xNy4wNjY2NjctNTYuODg4ODg5IDUuNjg4ODg5LTc5LjY0NDQ0NWwzNjQuMDg4ODg4LTMyOS45NTU1NTVjMTEuMzc3Nzc4LTExLjM3Nzc3OCAxNy4wNjY2NjctMjIuNzU1NTU2IDE3LjA2NjY2Ny0zNC4xMzMzMzMgMC0xMS4zNzc3NzgtNS42ODg4ODktMjIuNzU1NTU2LTE3LjA2NjY2Ny0zNC4xMzMzMzRMMjczLjA2NjY2NyAxODcuNzMzMzMzYy0yMi43NTU1NTYtMjIuNzU1NTU2LTI4LjQ0NDQ0NC01Ni44ODg4ODktNS42ODg4ODktNzkuNjQ0NDQ0IDIyLjc1NTU1Ni0yMi43NTU1NTYgNTYuODg4ODg5LTI4LjQ0NDQ0NCA3OS42NDQ0NDQtNS42ODg4ODlsMzY0LjA4ODg4OSAzMTIuODg4ODg5YzM0LjEzMzMzMyAyOC40NDQ0NDQgNTYuODg4ODg5IDczLjk1NTU1NiA1Ni44ODg4ODkgMTE5LjQ2NjY2N3MtMTcuMDY2NjY3IDg1LjMzMzMzMy01MS4yIDExOS40NjY2NjZsLTM2NC4wODg4ODkgMzI5Ljk1NTU1NmMtMTEuMzc3Nzc4IDUuNjg4ODg5LTI4LjQ0NDQ0NCAxMS4zNzc3NzgtMzkuODIyMjIyIDExLjM3Nzc3OHoiLz48L3N2Zz4=;flipH=1;fillColor=#E7E5ED;" parent="1" vertex="1">
          <mxGeometry x="880.5" y="1583" width="55" height="55" as="geometry" />
        </mxCell>
        <mxCell id="TGPx2V8O0Z7DVdudsgvW-109" value="" style="rounded=1;whiteSpace=wrap;html=1;strokeColor=default;fillColor=#FCFBF8;" parent="1" vertex="1">
          <mxGeometry x="607" y="1682" width="602" height="152" as="geometry" />
        </mxCell>
        <mxCell id="TGPx2V8O0Z7DVdudsgvW-110" value="" style="shape=image;verticalLabelPosition=bottom;labelBackgroundColor=default;verticalAlign=top;aspect=fixed;imageAspect=0;image=data:image/svg+xml,PHN2ZyB4bWxuczp4bGluaz0iaHR0cDovL3d3dy53My5vcmcvMTk5OS94bGluayIgeG1sbnM9Imh0dHA6Ly93d3cudzMub3JnLzIwMDAvc3ZnIiBoZWlnaHQ9IjIwMCIgd2lkdGg9IjIwMCIgdmVyc2lvbj0iMS4xIiB2aWV3Qm94PSIwIDAgMTAyNCAxMDI0IiBjbGFzcz0iaWNvbiI+PHBhdGggZmlsbD0iI0YxOUM5OSIgZD0iTTQ0Ni42ODA0MDcgNTEzLjcwNDcyNmgxMzYuMDc4NzM5djUxMC4yOTUyNzRoLTEzNi4wNzg3Mzl6Ii8+PHBhdGggZmlsbD0iI0YxOUM5OSIgZD0iTTUzMi40MTAwMTMgNjY2Ljc5MzMwOGgxMTUuNjY2OTI4djEzNi4wNzg3NEg1MzIuNDEwMDEzek01MzIuNDEwMDEzIDg0My42OTU2N2gxNDkuNjg2NjEzdjEzNi4wNzg3NEg1MzIuNDEwMDEzek01MTEuOTk4MjAyIDU4NS4xNDYwNjVBMjkwLjUyODEwOSAyOTAuNTI4MTA5IDAgMCAxIDIxOS40Mjg5MTIgMjkyLjU3Njc3NSAyOTAuNTI4MTA5IDI5MC41MjgxMDkgMCAwIDEgNTExLjk5ODIwMiAwLjAwNzQ4NGEyOTAuNTI4MTA5IDI5MC41MjgxMDkgMCAwIDEgMjkyLjU2OTI5IDI5Mi41NjkyOTEgMjkwLjUyODEwOSAyOTAuNTI4MTA5IDAgMCAxLTI5Mi41NjkyOSAyOTIuNTY5Mjl6IG0wLTQ0OS4wNTk4NDFBMTUzLjc2ODk3NiAxNTMuNzY4OTc2IDAgMCAwIDM1NS41MDc2NTEgMjkyLjU3Njc3NWExNTMuNzY4OTc2IDE1My43Njg5NzYgMCAwIDAgMTU2LjQ5MDU1MSAxNTYuNDkwNTUgMTUzLjc2ODk3NiAxNTMuNzY4OTc2IDAgMCAwIDE1Ni40OTA1NS0xNTYuNDkwNTVBMTUzLjc2ODk3NiAxNTMuNzY4OTc2IDAgMCAwIDUxMS45OTgyMDIgMTM2LjA4NjIyNHoiLz48L3N2Zz4=;" parent="1" vertex="1">
          <mxGeometry x="455" y="1717" width="89.5" height="89.5" as="geometry" />
        </mxCell>
        <mxCell id="TGPx2V8O0Z7DVdudsgvW-111" value="" style="shape=image;verticalLabelPosition=bottom;labelBackgroundColor=default;verticalAlign=top;aspect=fixed;imageAspect=0;image=data:image/svg+xml,PHN2ZyB4bWxuczp4bGluaz0iaHR0cDovL3d3dy53My5vcmcvMTk5OS94bGluayIgeG1sbnM9Imh0dHA6Ly93d3cudzMub3JnLzIwMDAvc3ZnIiBoZWlnaHQ9IjIwMCIgd2lkdGg9IjIwMCIgdmVyc2lvbj0iMS4xIiB2aWV3Qm94PSIwIDAgMTAyNCAxMDI0IiBjbGFzcz0iaWNvbiI+PHBhdGggZmlsbD0iI0YxOUM5OSIgZD0iTTQ0Ni42ODA0MDcgNTEzLjcwNDcyNmgxMzYuMDc4NzM5djUxMC4yOTUyNzRoLTEzNi4wNzg3Mzl6Ii8+PHBhdGggZmlsbD0iI0YxOUM5OSIgZD0iTTUzMi40MTAwMTMgNjY2Ljc5MzMwOGgxMTUuNjY2OTI4djEzNi4wNzg3NEg1MzIuNDEwMDEzek01MzIuNDEwMDEzIDg0My42OTU2N2gxNDkuNjg2NjEzdjEzNi4wNzg3NEg1MzIuNDEwMDEzek01MTEuOTk4MjAyIDU4NS4xNDYwNjVBMjkwLjUyODEwOSAyOTAuNTI4MTA5IDAgMCAxIDIxOS40Mjg5MTIgMjkyLjU3Njc3NSAyOTAuNTI4MTA5IDI5MC41MjgxMDkgMCAwIDEgNTExLjk5ODIwMiAwLjAwNzQ4NGEyOTAuNTI4MTA5IDI5MC41MjgxMDkgMCAwIDEgMjkyLjU2OTI5IDI5Mi41NjkyOTEgMjkwLjUyODEwOSAyOTAuNTI4MTA5IDAgMCAxLTI5Mi41NjkyOSAyOTIuNTY5Mjl6IG0wLTQ0OS4wNTk4NDFBMTUzLjc2ODk3NiAxNTMuNzY4OTc2IDAgMCAwIDM1NS41MDc2NTEgMjkyLjU3Njc3NWExNTMuNzY4OTc2IDE1My43Njg5NzYgMCAwIDAgMTU2LjQ5MDU1MSAxNTYuNDkwNTUgMTUzLjc2ODk3NiAxNTMuNzY4OTc2IDAgMCAwIDE1Ni40OTA1NS0xNTYuNDkwNTVBMTUzLjc2ODk3NiAxNTMuNzY4OTc2IDAgMCAwIDUxMS45OTgyMDIgMTM2LjA4NjIyNHoiLz48L3N2Zz4=;" parent="1" vertex="1">
          <mxGeometry x="1231" y="1717" width="89.5" height="89.5" as="geometry" />
        </mxCell>
        <mxCell id="TGPx2V8O0Z7DVdudsgvW-112" value="" style="shape=image;verticalLabelPosition=bottom;verticalAlign=top;imageAspect=0;aspect=fixed;image=data:image/svg+xml,PHN2ZyB4bWxuczp4bGluaz0iaHR0cDovL3d3dy53My5vcmcvMTk5OS94bGluayIgeG1sbnM9Imh0dHA6Ly93d3cudzMub3JnLzIwMDAvc3ZnIiBoZWlnaHQ9IjIwMCIgd2lkdGg9IjIwMCIgdmVyc2lvbj0iMS4xIiB2aWV3Qm94PSIwIDAgMTAyNCAxMDI0IiBjbGFzcz0iaWNvbiI+PHBhdGggZmlsbD0iIzUzNUU4MCIgZD0iTTMxMi44ODg4ODkgOTk1LjU1NTU1NmMtMTcuMDY2NjY3IDAtMjguNDQ0NDQ0LTUuNjg4ODg5LTM5LjgyMjIyMi0xNy4wNjY2NjctMjIuNzU1NTU2LTIyLjc1NTU1Ni0xNy4wNjY2NjctNTYuODg4ODg5IDUuNjg4ODg5LTc5LjY0NDQ0NWwzNjQuMDg4ODg4LTMyOS45NTU1NTVjMTEuMzc3Nzc4LTExLjM3Nzc3OCAxNy4wNjY2NjctMjIuNzU1NTU2IDE3LjA2NjY2Ny0zNC4xMzMzMzMgMC0xMS4zNzc3NzgtNS42ODg4ODktMjIuNzU1NTU2LTE3LjA2NjY2Ny0zNC4xMzMzMzRMMjczLjA2NjY2NyAxODcuNzMzMzMzYy0yMi43NTU1NTYtMjIuNzU1NTU2LTI4LjQ0NDQ0NC01Ni44ODg4ODktNS42ODg4ODktNzkuNjQ0NDQ0IDIyLjc1NTU1Ni0yMi43NTU1NTYgNTYuODg4ODg5LTI4LjQ0NDQ0NCA3OS42NDQ0NDQtNS42ODg4ODlsMzY0LjA4ODg4OSAzMTIuODg4ODg5YzM0LjEzMzMzMyAyOC40NDQ0NDQgNTYuODg4ODg5IDczLjk1NTU1NiA1Ni44ODg4ODkgMTE5LjQ2NjY2N3MtMTcuMDY2NjY3IDg1LjMzMzMzMy01MS4yIDExOS40NjY2NjZsLTM2NC4wODg4ODkgMzI5Ljk1NTU1NmMtMTEuMzc3Nzc4IDUuNjg4ODg5LTI4LjQ0NDQ0NCAxMS4zNzc3NzgtMzkuODIyMjIyIDExLjM3Nzc3OHoiLz48L3N2Zz4=;flipH=1;" parent="1" vertex="1">
          <mxGeometry x="875" y="1700" width="55" height="55" as="geometry" />
        </mxCell>
        <mxCell id="TGPx2V8O0Z7DVdudsgvW-113" value="" style="shape=image;verticalLabelPosition=bottom;verticalAlign=top;imageAspect=0;aspect=fixed;image=data:image/svg+xml,PHN2ZyB4bWxuczp4bGluaz0iaHR0cDovL3d3dy53My5vcmcvMTk5OS94bGluayIgeG1sbnM9Imh0dHA6Ly93d3cudzMub3JnLzIwMDAvc3ZnIiBoZWlnaHQ9IjIwMCIgd2lkdGg9IjIwMCIgdmVyc2lvbj0iMS4xIiB2aWV3Qm94PSIwIDAgMTAyNCAxMDI0IiBjbGFzcz0iaWNvbiI+PHBhdGggZmlsbD0iIzRBOTE5QiIgZD0iTTMxMi44ODg4ODkgOTk1LjU1NTU1NmMtMTcuMDY2NjY3IDAtMjguNDQ0NDQ0LTUuNjg4ODg5LTM5LjgyMjIyMi0xNy4wNjY2NjctMjIuNzU1NTU2LTIyLjc1NTU1Ni0xNy4wNjY2NjctNTYuODg4ODg5IDUuNjg4ODg5LTc5LjY0NDQ0NWwzNjQuMDg4ODg4LTMyOS45NTU1NTVjMTEuMzc3Nzc4LTExLjM3Nzc3OCAxNy4wNjY2NjctMjIuNzU1NTU2IDE3LjA2NjY2Ny0zNC4xMzMzMzMgMC0xMS4zNzc3NzgtNS42ODg4ODktMjIuNzU1NTU2LTE3LjA2NjY2Ny0zNC4xMzMzMzRMMjczLjA2NjY2NyAxODcuNzMzMzMzYy0yMi43NTU1NTYtMjIuNzU1NTU2LTI4LjQ0NDQ0NC01Ni44ODg4ODktNS42ODg4ODktNzkuNjQ0NDQ0IDIyLjc1NTU1Ni0yMi43NTU1NTYgNTYuODg4ODg5LTI4LjQ0NDQ0NCA3OS42NDQ0NDQtNS42ODg4ODlsMzY0LjA4ODg4OSAzMTIuODg4ODg5YzM0LjEzMzMzMyAyOC40NDQ0NDQgNTYuODg4ODg5IDczLjk1NTU1NiA1Ni44ODg4ODkgMTE5LjQ2NjY2N3MtMTcuMDY2NjY3IDg1LjMzMzMzMy01MS4yIDExOS40NjY2NjZsLTM2NC4wODg4ODkgMzI5Ljk1NTU1NmMtMTEuMzc3Nzc4IDUuNjg4ODg5LTI4LjQ0NDQ0NCAxMS4zNzc3NzgtMzkuODIyMjIyIDExLjM3Nzc3OHoiLz48L3N2Zz4=" parent="1" vertex="1">
          <mxGeometry x="881.5" y="1770" width="54" height="54" as="geometry" />
        </mxCell>
        <mxCell id="TGPx2V8O0Z7DVdudsgvW-114" value="" style="shape=image;verticalLabelPosition=bottom;labelBackgroundColor=default;verticalAlign=top;aspect=fixed;imageAspect=0;image=data:image/svg+xml,PHN2ZyB4bWxuczp4bGluaz0iaHR0cDovL3d3dy53My5vcmcvMTk5OS94bGluayIgeG1sbnM9Imh0dHA6Ly93d3cudzMub3JnLzIwMDAvc3ZnIiBoZWlnaHQ9IjIwMCIgd2lkdGg9IjIwMCIgdmVyc2lvbj0iMS4xIiB2aWV3Qm94PSIwIDAgMTAyNCAxMDI0IiBjbGFzcz0iaWNvbiI+PHBhdGggZmlsbD0iIzRBOTE5QiIgZD0iTTU2Mi4zOTMyOCAyOTMuNjk2YTMyIDMyIDAgMCAxLTE0LjMzNiA2Mi40IDE2MCAxNjAgMCAwIDAtMTg1LjA1NiAyMTQuMzM2IDMyIDMyIDAgMSAxLTU5LjU4NCAyMy4zMjggMjI0IDIyNCAwIDAgMSAyNTguOTc2LTMwMC4wNjR6IG0tMTAwLjI1NiA0MzYuNzA0YTMyIDMyIDAgMCAxIDE0LjIwOC02Mi40IDE2MCAxNjAgMCAwIDAgMTg4LjIyNC0yMDQuNDggMzIgMzIgMCAxIDEgNjAuOTkyLTE5LjMyOCAyMjQgMjI0IDAgMCAxLTI2My40NTYgMjg2LjIwOHoiLz48cGF0aCBmaWxsPSIjNEE5MTlCIiBkPSJNMjEzLjQ2NTI4IDY3Ni4wOTZhMzIgMzIgMCAxIDEtNDIuMzM2IDQ4QzEzMi4wNTcyOCA2ODkuNiA3Ny40OTcyOCA2MjUuNTY4IDYuNDU3MjggNTMxLjI2NGEzMiAzMiAwIDAgMS0wLjk5Mi0zNy4xMkMxNTQuMTY5MjggMjcyLjcwNCAzMjMuMjI1MjggMTYwIDUxMi4wMjUyOCAxNjBjNTIuNzA0IDAgMTA0LjA5NiA4LjgzMiAxNTQuMDE2IDI2LjQ5NmEzMiAzMiAwIDAgMS0yMS4zNDQgNjAuMzUyQTM5NC43NTIgMzk0Ljc1MiAwIDAgMCA1MTIuMDI1MjggMjI0Yy0xNTkuNTg0IDAtMzA2LjI0IDk0LjQ2NC00NDAuNTc2IDI4Ny4wNCA2MS44MjQgODEuMDU2IDEwOS40NCAxMzYuMjg4IDE0Mi4wNDggMTY1LjA1NnogbTU5OS44MDgtMzI1Ljc2YTMyIDMyIDAgMCAxIDQyLjU5Mi00Ny44MDhjMzguMzY4IDM0LjI0IDkxLjk2OCA5Ny4zNzYgMTYxLjcyOCAxOTAuMjRhMzIgMzIgMCAwIDEgMC45OTIgMzcuMDg4Qzg2OS44ODEyOCA3NTEuMjk2IDcwMC44MjUyOCA4NjQgNTEyLjAyNTI4IDg2NGMtMzcuODI0IDAtNzQuOTQ0LTQuNTQ0LTExMS4zNi0xMy42NjRhMzIgMzIgMCAwIDEgMTUuNDg4LTYyLjA4YzMxLjM2IDcuODQgNjMuMjY0IDExLjc0NCA5NS44NzIgMTEuNzQ0IDE1OS41ODQgMCAzMDYuMjQtOTQuNDY0IDQ0MC41NzYtMjg3LjA0LTYwLjY0LTc5LjcxMi0xMDcuMzI4LTEzNC4xMTItMTM5LjMyOC0xNjIuNjU2ek04MjMuOTI5MjggMTIyLjkxMmEzMiAzMiAwIDAgMSA0OC4xOTIgNDIuMTc2bC02NzIgNzY4YTMyIDMyIDAgMCAxLTQ4LjE5Mi00Mi4xNzZsNjcyLTc2OHoiLz48L3N2Zz4=;" parent="1" vertex="1">
          <mxGeometry x="679" y="1776.5" width="41" height="41" as="geometry" />
        </mxCell>
        <mxCell id="TGPx2V8O0Z7DVdudsgvW-115" value="&lt;font color=&quot;#4a919b&quot;&gt;对称秘钥&lt;br&gt;密文通信&lt;/font&gt;" style="text;html=1;strokeColor=none;fillColor=none;align=center;verticalAlign=middle;whiteSpace=wrap;rounded=0;fontSize=21;fontColor=#535E80;" parent="1" vertex="1">
          <mxGeometry x="716" y="1782" width="122" height="30" as="geometry" />
        </mxCell>
        <mxCell id="TGPx2V8O0Z7DVdudsgvW-117" value="" style="shape=curlyBracket;whiteSpace=wrap;html=1;rounded=1;strokeColor=#4A919B;fontSize=21;fontColor=#4A919B;fillColor=#FFEED7;strokeWidth=3;" parent="1" vertex="1">
          <mxGeometry x="273" y="510" width="20" height="155" as="geometry" />
        </mxCell>
        <mxCell id="TGPx2V8O0Z7DVdudsgvW-118" value="&lt;font style=&quot;font-size: 27px;&quot;&gt;1.TLS第1次握手&lt;/font&gt;" style="text;html=1;strokeColor=none;fillColor=none;align=center;verticalAlign=middle;whiteSpace=wrap;rounded=0;strokeWidth=3;fontSize=21;fontColor=#4A919B;" parent="1" vertex="1">
          <mxGeometry x="56" y="579" width="213" height="30" as="geometry" />
        </mxCell>
        <mxCell id="TGPx2V8O0Z7DVdudsgvW-119" value="" style="shape=curlyBracket;whiteSpace=wrap;html=1;rounded=1;strokeColor=#4A919B;fontSize=21;fontColor=#4A919B;fillColor=#FFEED7;strokeWidth=3;" parent="1" vertex="1">
          <mxGeometry x="273" y="286" width="20" height="200" as="geometry" />
        </mxCell>
        <mxCell id="TGPx2V8O0Z7DVdudsgvW-120" value="&lt;font style=&quot;font-size: 27px;&quot;&gt;0.TCP握手&lt;/font&gt;" style="text;html=1;strokeColor=none;fillColor=none;align=center;verticalAlign=middle;whiteSpace=wrap;rounded=0;strokeWidth=3;fontSize=21;fontColor=#4A919B;" parent="1" vertex="1">
          <mxGeometry x="98" y="355" width="171" height="30" as="geometry" />
        </mxCell>
        <mxCell id="TGPx2V8O0Z7DVdudsgvW-121" value="" style="shape=curlyBracket;whiteSpace=wrap;html=1;rounded=1;strokeColor=#4A919B;fontSize=21;fontColor=#4A919B;fillColor=#FFEED7;strokeWidth=3;" parent="1" vertex="1">
          <mxGeometry x="273" y="675.3199999999999" width="20" height="230.68" as="geometry" />
        </mxCell>
        <mxCell id="TGPx2V8O0Z7DVdudsgvW-122" value="&lt;font style=&quot;font-size: 27px;&quot;&gt;2.TLS第2次握手&lt;/font&gt;" style="text;html=1;strokeColor=none;fillColor=none;align=center;verticalAlign=middle;whiteSpace=wrap;rounded=0;strokeWidth=3;fontSize=21;fontColor=#4A919B;" parent="1" vertex="1">
          <mxGeometry x="54" y="775" width="209" height="30" as="geometry" />
        </mxCell>
        <mxCell id="TGPx2V8O0Z7DVdudsgvW-123" value="" style="shape=curlyBracket;whiteSpace=wrap;html=1;rounded=1;strokeColor=#4A919B;fontSize=21;fontColor=#4A919B;fillColor=#FFEED7;strokeWidth=3;" parent="1" vertex="1">
          <mxGeometry x="272" y="917" width="20" height="434" as="geometry" />
        </mxCell>
        <mxCell id="TGPx2V8O0Z7DVdudsgvW-124" value="&lt;font style=&quot;font-size: 27px;&quot;&gt;6.TLS第3次握手&lt;/font&gt;" style="text;html=1;strokeColor=none;fillColor=none;align=center;verticalAlign=middle;whiteSpace=wrap;rounded=0;strokeWidth=3;fontSize=21;fontColor=#4A919B;" parent="1" vertex="1">
          <mxGeometry x="55" y="1114" width="207" height="30" as="geometry" />
        </mxCell>
        <mxCell id="TGPx2V8O0Z7DVdudsgvW-125" value="" style="shape=curlyBracket;whiteSpace=wrap;html=1;rounded=1;strokeColor=#4A919B;fontSize=21;fontColor=#4A919B;fillColor=#FFEED7;strokeWidth=3;" parent="1" vertex="1">
          <mxGeometry x="272" y="1359" width="20" height="302" as="geometry" />
        </mxCell>
        <mxCell id="TGPx2V8O0Z7DVdudsgvW-126" value="&lt;font style=&quot;font-size: 27px;&quot;&gt;9.TLS第4次握手&lt;/font&gt;" style="text;html=1;strokeColor=none;fillColor=none;align=center;verticalAlign=middle;whiteSpace=wrap;rounded=0;strokeWidth=3;fontSize=21;fontColor=#4A919B;" parent="1" vertex="1">
          <mxGeometry x="37" y="1489" width="225" height="30" as="geometry" />
        </mxCell>
        <mxCell id="TGPx2V8O0Z7DVdudsgvW-127" value="" style="shape=curlyBracket;whiteSpace=wrap;html=1;rounded=1;strokeColor=#4A919B;fontSize=21;fontColor=#4A919B;fillColor=#FFEED7;strokeWidth=3;" parent="1" vertex="1">
          <mxGeometry x="273" y="1682" width="20" height="151" as="geometry" />
        </mxCell>
        <mxCell id="TGPx2V8O0Z7DVdudsgvW-128" value="&lt;font style=&quot;font-size: 27px;&quot;&gt;10.对称秘钥&lt;br&gt;通信阶段&lt;/font&gt;" style="text;html=1;strokeColor=none;fillColor=none;align=center;verticalAlign=middle;whiteSpace=wrap;rounded=0;strokeWidth=3;fontSize=21;fontColor=#4A919B;" parent="1" vertex="1">
          <mxGeometry x="52" y="1743" width="211" height="30" as="geometry" />
        </mxCell>
        <mxCell id="TGPx2V8O0Z7DVdudsgvW-130" value="对称秘钥&lt;br&gt;密文通信" style="text;html=1;strokeColor=none;fillColor=none;align=center;verticalAlign=middle;whiteSpace=wrap;rounded=0;fontSize=21;fontColor=#535E80;" parent="1" vertex="1">
          <mxGeometry x="1024" y="1712.5" width="122" height="30" as="geometry" />
        </mxCell>
        <mxCell id="TGPx2V8O0Z7DVdudsgvW-131" value="" style="shape=image;verticalLabelPosition=bottom;labelBackgroundColor=default;verticalAlign=top;aspect=fixed;imageAspect=0;image=data:image/svg+xml,PHN2ZyB4bWxuczp4bGluaz0iaHR0cDovL3d3dy53My5vcmcvMTk5OS94bGluayIgeG1sbnM9Imh0dHA6Ly93d3cudzMub3JnLzIwMDAvc3ZnIiBoZWlnaHQ9IjIwMCIgd2lkdGg9IjIwMCIgdmVyc2lvbj0iMS4xIiB2aWV3Qm94PSIwIDAgMTAyNCAxMDI0IiBjbGFzcz0iaWNvbiI+PHBhdGggZmlsbD0iIzUzNUU4MCIgZD0iTTU2Mi4zOTMgMjkzLjY5NmEzMiAzMiAwIDAgMS0xNC4zMzYgNjIuNCAxNjAgMTYwIDAgMCAwLTE4NS4wNTYgMjE0LjMzNiAzMiAzMiAwIDEgMS01OS41ODQgMjMuMzI4IDIyNCAyMjQgMCAwIDEgMjU4Ljk3Ni0zMDAuMDY0ek00NjIuMTM3IDczMC40YTMyIDMyIDAgMCAxIDE0LjIwOC02Mi40QTE2MCAxNjAgMCAwIDAgNjY0LjU3IDQ2My41MmEzMiAzMiAwIDEgMSA2MC45OTItMTkuMzI4QTIyNCAyMjQgMCAwIDEgNDYyLjEwNSA3MzAuNHoiLz48cGF0aCBmaWxsPSIjNTM1RTgwIiBkPSJNMjEzLjQ2NSA2NzYuMDk2YTMyIDMyIDAgMSAxLTQyLjMzNiA0OEMxMzIuMDU3IDY4OS42IDc3LjQ5NyA2MjUuNTY4IDYuNDU3IDUzMS4yNjRhMzIgMzIgMCAwIDEtMC45OTItMzcuMTJDMTU0LjE3IDI3Mi43MDQgMzIzLjIyNSAxNjAgNTEyLjAyNSAxNjBjNTIuNzA0IDAgMTA0LjA5NiA4LjgzMiAxNTQuMDE2IDI2LjQ5NmEzMiAzMiAwIDAgMS0yMS4zNDQgNjAuMzUyQTM5NC43NTIgMzk0Ljc1MiAwIDAgMCA1MTIuMDI1IDIyNGMtMTU5LjU4NCAwLTMwNi4yNCA5NC40NjQtNDQwLjU3NiAyODcuMDQgNjEuODI0IDgxLjA1NiAxMDkuNDQgMTM2LjI4OCAxNDIuMDQ4IDE2NS4wNTZ6IG01OTkuODA4LTMyNS43NmEzMiAzMiAwIDAgMSA0Mi41OTItNDcuODA4YzM4LjM2OCAzNC4yNCA5MS45NjggOTcuMzc2IDE2MS43MjggMTkwLjI0YTMyIDMyIDAgMCAxIDAuOTkyIDM3LjA4OEM4NjkuODgxIDc1MS4yOTYgNzAwLjgyNSA4NjQgNTEyLjAyNSA4NjRjLTM3LjgyNCAwLTc0Ljk0NC00LjU0NC0xMTEuMzYtMTMuNjY0YTMyIDMyIDAgMCAxIDE1LjQ4OC02Mi4wOGMzMS4zNiA3Ljg0IDYzLjI2NCAxMS43NDQgOTUuODcyIDExLjc0NCAxNTkuNTg0IDAgMzA2LjI0LTk0LjQ2NCA0NDAuNTc2LTI4Ny4wNC02MC42NC03OS43MTItMTA3LjMyOC0xMzQuMTEyLTEzOS4zMjgtMTYyLjY1NnogbTEwLjY1Ni0yMjcuNDI0YTMyIDMyIDAgMCAxIDQ4LjE5MiA0Mi4xNzZsLTY3MiA3NjhhMzIgMzIgMCAwIDEtNDguMTkyLTQyLjE3Nmw2NzItNzY4eiIvPjwvc3ZnPg==;" parent="1" vertex="1">
          <mxGeometry x="987" y="1710" width="41.5" height="41.5" as="geometry" />
        </mxCell>
        <mxCell id="TGPx2V8O0Z7DVdudsgvW-132" value="" style="endArrow=none;dashed=1;html=1;dashPattern=1 3;strokeWidth=2;rounded=0;fontSize=21;fontColor=#4A919B;fillColor=#535E80;" parent="1" edge="1">
          <mxGeometry width="50" height="50" relative="1" as="geometry">
            <mxPoint x="1444" y="1005" as="sourcePoint" />
            <mxPoint x="1467" y="1005.0499999999993" as="targetPoint" />
          </mxGeometry>
        </mxCell>
        <mxCell id="TGPx2V8O0Z7DVdudsgvW-133" value="" style="endArrow=none;dashed=1;html=1;dashPattern=1 3;strokeWidth=2;rounded=0;fontSize=21;fontColor=#4A919B;fillColor=#535E80;" parent="1" edge="1">
          <mxGeometry width="50" height="50" relative="1" as="geometry">
            <mxPoint x="1444" y="572.71" as="sourcePoint" />
            <mxPoint x="1467" y="572.7599999999993" as="targetPoint" />
          </mxGeometry>
        </mxCell>
        <mxCell id="TGPx2V8O0Z7DVdudsgvW-134" value="&lt;font style=&quot;font-size: 24px;&quot;&gt;&lt;font color=&quot;#4a919b&quot;&gt;4.用服务器公钥加密第三个随机数&lt;/font&gt;&lt;br&gt;&lt;/font&gt;" style="text;html=1;strokeColor=none;fillColor=none;align=center;verticalAlign=middle;whiteSpace=wrap;rounded=0;fontSize=28;fontColor=#808080;" parent="1" vertex="1">
          <mxGeometry x="334" y="980" width="144" height="102" as="geometry" />
        </mxCell>
        <mxCell id="TGPx2V8O0Z7DVdudsgvW-135" value="&lt;font style=&quot;font-size: 24px;&quot;&gt;&lt;font color=&quot;#4a919b&quot;&gt;7.用服务器私钥解密获得第三个随机数&lt;/font&gt;&lt;br&gt;&lt;/font&gt;" style="text;html=1;strokeColor=none;fillColor=none;align=center;verticalAlign=middle;whiteSpace=wrap;rounded=0;fontSize=28;fontColor=#808080;" parent="1" vertex="1">
          <mxGeometry x="1279" y="882" width="155" height="102" as="geometry" />
        </mxCell>
        <mxCell id="TGPx2V8O0Z7DVdudsgvW-137" value="&lt;font style=&quot;font-size: 24px;&quot;&gt;&lt;font color=&quot;#4a919b&quot;&gt;5.用三个随机数&lt;br&gt;生成对称秘钥&lt;/font&gt;&lt;br&gt;&lt;/font&gt;" style="text;html=1;strokeColor=none;fillColor=none;align=center;verticalAlign=middle;whiteSpace=wrap;rounded=0;fontSize=28;fontColor=#808080;" parent="1" vertex="1">
          <mxGeometry x="338" y="1182" width="215.5" height="102" as="geometry" />
        </mxCell>
        <mxCell id="TGPx2V8O0Z7DVdudsgvW-138" value="&lt;font style=&quot;font-size: 24px;&quot;&gt;&lt;font color=&quot;#4a919b&quot;&gt;8.用三个随机数&lt;br&gt;生成对称秘钥&lt;/font&gt;&lt;br&gt;&lt;/font&gt;" style="text;html=1;strokeColor=none;fillColor=none;align=center;verticalAlign=middle;whiteSpace=wrap;rounded=0;fontSize=28;fontColor=#808080;" parent="1" vertex="1">
          <mxGeometry x="1248.75" y="1178" width="215.5" height="102" as="geometry" />
        </mxCell>
        <mxCell id="TGPx2V8O0Z7DVdudsgvW-139" value="" style="shape=image;verticalLabelPosition=bottom;verticalAlign=top;imageAspect=0;aspect=fixed;image=data:image/svg+xml,PHN2ZyB4bWxuczp4bGluaz0iaHR0cDovL3d3dy53My5vcmcvMTk5OS94bGluayIgeG1sbnM9Imh0dHA6Ly93d3cudzMub3JnLzIwMDAvc3ZnIiBoZWlnaHQ9IjIwMCIgd2lkdGg9IjIwMCIgdmVyc2lvbj0iMS4xIiB2aWV3Qm94PSIwIDAgMTAyNCAxMDI0IiBjbGFzcz0iaWNvbiI+PHBhdGggZmlsbD0iIzUzNUU4MCIgZD0iTTAgNzI4djEzNmMwIDM1LjMgMjguNyA2NCA2NCA2NGg4OTZjMzUuMyAwIDY0LTI4LjcgNjQtNjRWNzI4YzAtNC40LTMuNi04LTgtOEg4Yy00LjQgMC04IDMuNi04IDh6IG03NzQgOTZjMCA0LjQtMy42IDgtOCA4SDQyNGMtNC40IDAtOC0zLjYtOC04di00OGMwLTQuNCAzLjYtOCA4LThoMzQyYzQuNCAwIDggMy42IDggOHY0OHogbTEyMiAwYzAgNC40LTMuNiA4LTggOGgtNDhjLTQuNCAwLTgtMy42LTgtOHYtNDhjMC00LjQgMy42LTggOC04aDQ4YzQuNCAwIDggMy42IDggOHY0OHpNMCA1MzZ2MTQ0YzAgNC40IDMuNiA4IDggOGgxMDA4YzQuNCAwIDgtMy42IDgtOFY1MzZjMC00LjQtMy42LTgtOC04SDhjLTQuNCAwLTggMy42LTggOHogbTc3NCA5NmMwIDQuNC0zLjYgOC04IDhINDI0Yy00LjQgMC04LTMuNi04LTh2LTQ4YzAtNC40IDMuNi04IDgtOGgzNDJjNC40IDAgOCAzLjYgOCA4djQ4eiBtMTIyIDBjMCA0LjQtMy42IDgtOCA4aC00OGMtNC40IDAtOC0zLjYtOC04di00OGMwLTQuNCAzLjYtOCA4LThoNDhjNC40IDAgOCAzLjYgOCA4djQ4ek0wIDM0NHYxNDRjMCA0LjQgMy42IDggOCA4aDEwMDhjNC40IDAgOC0zLjYgOC04VjM0NGMwLTQuNC0zLjYtOC04LThIOGMtNC40IDAtOCAzLjYtOCA4eiBtNzc0IDk2YzAgNC40LTMuNiA4LTggOEg0MjRjLTQuNCAwLTgtMy42LTgtOHYtNDhjMC00LjQgMy42LTggOC04aDM0MmM0LjQgMCA4IDMuNiA4IDh2NDh6IG0xMjIgMGMwIDQuNC0zLjYgOC04IDhoLTQ4Yy00LjQgMC04LTMuNi04LTh2LTQ4YzAtNC40IDMuNi04IDgtOGg0OGM0LjQgMCA4IDMuNiA4IDh2NDh6TTk2MCA5Nkg2NGMtMzUuMyAwLTY0IDI4LjctNjQgNjR2MTM2YzAgNC40IDMuNiA4IDggOGgxMDA4YzQuNCAwIDgtMy42IDgtOFYxNjBjMC0zNS4zLTI4LjctNjQtNjQtNjR6TTc3NCAyNDhjMCA0LjQtMy42IDgtOCA4SDQyNGMtNC40IDAtOC0zLjYtOC04di00OGMwLTQuNCAzLjYtOCA4LThoMzQyYzQuNCAwIDggMy42IDggOHY0OHogbTEyMiAwYzAgNC40LTMuNiA4LTggOGgtNDhjLTQuNCAwLTgtMy42LTgtOHYtNDhjMC00LjQgMy42LTggOC04aDQ4YzQuNCAwIDggMy42IDggOHY0OHoiLz48L3N2Zz4=" parent="1" vertex="1">
          <mxGeometry x="1058" y="65" width="155" height="155" as="geometry" />
        </mxCell>
      </root>
    </mxGraphModel>
  </diagram>
</mxfile>
